<svg xmlns="http://www.w3.org/2000/svg" xmlns:xlink="http://www.w3.org/1999/xlink" width="200" zoomAndPan="magnify" viewBox="0 0 450 183.750001" height="80" preserveAspectRatio="xMidYMid meet" version="1.0"><defs><clipPath id="ec1614a917"><path d="M 112 0 L 449.691406 0 L 449.691406 182.75 L 112 182.75 Z M 112 0 " clip-rule="nonzero"/></clipPath><clipPath id="d2d3175c31"><path d="M 4.800781 75 L 210 75 L 210 80 L 4.800781 80 Z M 4.800781 75 " clip-rule="nonzero"/></clipPath><clipPath id="b775ee8ca5"><path d="M 4.800781 39 L 24 39 L 24 45 L 4.800781 45 Z M 4.800781 39 " clip-rule="nonzero"/></clipPath></defs><path fill="#000000" d="M 354.898438 47.269531 C 354.578125 47.269531 354.265625 47.332031 353.96875 47.453125 C 353.667969 47.578125 353.40625 47.753906 353.179688 47.980469 C 352.949219 48.210938 352.773438 48.472656 352.648438 48.773438 C 352.527344 49.070312 352.464844 49.382812 352.464844 49.703125 L 352.464844 91.558594 C 352.464844 91.882812 352.527344 92.195312 352.648438 92.492188 C 352.773438 92.792969 352.949219 93.054688 353.175781 93.285156 C 353.40625 93.511719 353.667969 93.6875 353.96875 93.8125 C 354.265625 93.933594 354.578125 93.996094 354.898438 93.996094 L 354.90625 93.996094 L 416.765625 93.710938 C 416.964844 93.710938 417.164062 93.683594 417.355469 93.636719 C 417.550781 93.585938 417.734375 93.515625 417.914062 93.421875 C 418.089844 93.324219 418.25 93.210938 418.398438 93.074219 C 418.546875 92.941406 418.675781 92.789062 418.785156 92.625 C 418.894531 92.457031 418.984375 92.277344 419.050781 92.089844 C 419.117188 91.902344 419.160156 91.707031 419.179688 91.507812 C 419.199219 91.308594 419.195312 91.109375 419.164062 90.914062 C 419.132812 90.714844 419.082031 90.523438 419.003906 90.339844 C 418.355469 88.761719 417.652344 87.207031 416.890625 85.679688 C 416.125 84.152344 415.308594 82.652344 414.4375 81.1875 C 413.5625 79.71875 412.636719 78.285156 411.660156 76.886719 C 410.679688 75.488281 409.652344 74.128906 408.574219 72.804688 C 407.492188 71.480469 406.367188 70.199219 405.195312 68.960938 C 404.019531 67.722656 402.804688 66.527344 401.542969 65.375 C 400.28125 64.226562 398.976562 63.125 397.636719 62.070312 C 396.292969 61.015625 394.910156 60.011719 393.496094 59.0625 C 392.078125 58.109375 390.628906 57.210938 389.144531 56.367188 C 387.660156 55.519531 386.148438 54.730469 384.609375 54 C 383.066406 53.265625 381.5 52.589844 379.910156 51.972656 C 378.316406 51.355469 376.707031 50.796875 375.074219 50.296875 C 373.441406 49.796875 371.792969 49.359375 370.128906 48.984375 C 368.460938 48.605469 366.785156 48.289062 365.097656 48.035156 C 363.410156 47.785156 361.714844 47.59375 360.011719 47.464844 C 358.3125 47.335938 356.605469 47.269531 354.898438 47.269531 Z M 357.335938 89.113281 L 357.335938 52.183594 C 360.257812 52.289062 363.160156 52.59375 366.042969 53.097656 C 368.925781 53.597656 371.757812 54.296875 374.542969 55.183594 C 377.332031 56.074219 380.042969 57.152344 382.683594 58.414062 C 385.324219 59.675781 387.863281 61.109375 390.304688 62.71875 C 392.75 64.328125 395.070312 66.097656 397.273438 68.023438 C 399.472656 69.949219 401.53125 72.019531 403.449219 74.226562 C 405.367188 76.4375 407.128906 78.765625 408.726562 81.214844 C 410.328125 83.664062 411.75 86.210938 413.003906 88.855469 Z M 357.335938 89.113281 " fill-opacity="1" fill-rule="nonzero"/><path fill="#000000" d="M 159.023438 148.449219 C 158.441406 148.449219 157.863281 148.503906 157.289062 148.617188 C 156.71875 148.730469 156.164062 148.902344 155.625 149.125 C 155.085938 149.347656 154.574219 149.621094 154.085938 149.945312 C 153.601562 150.269531 153.152344 150.640625 152.742188 151.050781 C 152.328125 151.464844 151.960938 151.914062 151.636719 152.398438 C 151.3125 152.882812 151.039062 153.394531 150.816406 153.9375 C 150.589844 154.476562 150.421875 155.03125 150.308594 155.601562 C 150.195312 156.175781 150.140625 156.753906 150.140625 157.335938 C 150.140625 157.921875 150.195312 158.5 150.308594 159.070312 C 150.421875 159.644531 150.59375 160.199219 150.816406 160.738281 C 151.039062 161.277344 151.3125 161.789062 151.636719 162.277344 C 151.960938 162.761719 152.328125 163.210938 152.742188 163.621094 C 153.15625 164.035156 153.605469 164.402344 154.089844 164.726562 C 154.574219 165.050781 155.085938 165.324219 155.625 165.550781 C 156.164062 165.773438 156.71875 165.941406 157.292969 166.054688 C 157.863281 166.167969 158.441406 166.226562 159.027344 166.226562 C 159.609375 166.226562 160.1875 166.167969 160.761719 166.054688 C 161.332031 165.941406 161.886719 165.773438 162.425781 165.546875 C 162.964844 165.324219 163.476562 165.050781 163.964844 164.726562 C 164.449219 164.402344 164.898438 164.035156 165.308594 163.621094 C 165.722656 163.207031 166.089844 162.761719 166.414062 162.273438 C 166.738281 161.789062 167.011719 161.277344 167.238281 160.738281 C 167.460938 160.199219 167.628906 159.644531 167.742188 159.070312 C 167.855469 158.5 167.914062 157.921875 167.914062 157.335938 C 167.914062 156.753906 167.855469 156.175781 167.742188 155.601562 C 167.625 155.03125 167.457031 154.476562 167.234375 153.9375 C 167.011719 153.398438 166.734375 152.886719 166.410156 152.398438 C 166.085938 151.914062 165.71875 151.464844 165.308594 151.054688 C 164.894531 150.640625 164.445312 150.273438 163.960938 149.949219 C 163.476562 149.625 162.964844 149.351562 162.425781 149.125 C 161.886719 148.902344 161.328125 148.734375 160.757812 148.621094 C 160.1875 148.503906 159.609375 148.449219 159.023438 148.449219 Z M 159.023438 161.355469 C 158.761719 161.355469 158.5 161.328125 158.242188 161.277344 C 157.984375 161.226562 157.730469 161.148438 157.488281 161.046875 C 157.242188 160.945312 157.011719 160.824219 156.792969 160.675781 C 156.574219 160.53125 156.371094 160.363281 156.183594 160.175781 C 156 159.988281 155.832031 159.785156 155.6875 159.566406 C 155.539062 159.347656 155.414062 159.117188 155.316406 158.871094 C 155.214844 158.628906 155.136719 158.378906 155.085938 158.117188 C 155.035156 157.859375 155.007812 157.597656 155.007812 157.335938 C 155.007812 157.070312 155.035156 156.808594 155.085938 156.550781 C 155.136719 156.292969 155.214844 156.042969 155.316406 155.796875 C 155.417969 155.554688 155.539062 155.324219 155.6875 155.105469 C 155.832031 154.882812 156 154.683594 156.1875 154.496094 C 156.371094 154.308594 156.574219 154.140625 156.796875 153.996094 C 157.015625 153.847656 157.246094 153.726562 157.488281 153.625 C 157.734375 153.523438 157.984375 153.449219 158.242188 153.394531 C 158.5 153.34375 158.761719 153.320312 159.027344 153.320312 C 159.289062 153.320312 159.550781 153.34375 159.808594 153.394531 C 160.070312 153.449219 160.320312 153.523438 160.5625 153.625 C 160.808594 153.726562 161.039062 153.851562 161.257812 153.996094 C 161.476562 154.144531 161.679688 154.308594 161.867188 154.496094 C 162.050781 154.683594 162.21875 154.886719 162.367188 155.105469 C 162.511719 155.324219 162.636719 155.554688 162.738281 155.800781 C 162.835938 156.042969 162.914062 156.292969 162.964844 156.554688 C 163.015625 156.8125 163.042969 157.074219 163.042969 157.335938 C 163.042969 157.601562 163.015625 157.863281 162.964844 158.121094 C 162.914062 158.378906 162.835938 158.628906 162.734375 158.875 C 162.632812 159.117188 162.511719 159.347656 162.363281 159.566406 C 162.21875 159.785156 162.050781 159.988281 161.863281 160.175781 C 161.675781 160.363281 161.476562 160.527344 161.253906 160.675781 C 161.035156 160.820312 160.804688 160.945312 160.5625 161.046875 C 160.316406 161.148438 160.066406 161.222656 159.808594 161.277344 C 159.550781 161.328125 159.289062 161.351562 159.023438 161.355469 Z M 159.023438 161.355469 " fill-opacity="1" fill-rule="nonzero"/><path fill="#000000" d="M 393.984375 148.824219 C 393.402344 148.824219 392.824219 148.882812 392.25 148.996094 C 391.679688 149.109375 391.121094 149.277344 390.582031 149.5 C 390.042969 149.726562 389.53125 150 389.046875 150.324219 C 388.5625 150.648438 388.113281 151.015625 387.699219 151.429688 C 387.285156 151.839844 386.917969 152.289062 386.59375 152.777344 C 386.269531 153.261719 385.996094 153.773438 385.769531 154.3125 C 385.546875 154.851562 385.378906 155.40625 385.265625 155.980469 C 385.152344 156.554688 385.09375 157.132812 385.09375 157.714844 C 385.09375 158.300781 385.148438 158.878906 385.265625 159.449219 C 385.378906 160.023438 385.546875 160.578125 385.769531 161.117188 C 385.992188 161.65625 386.265625 162.167969 386.589844 162.65625 C 386.914062 163.140625 387.285156 163.589844 387.695312 164.003906 C 388.109375 164.414062 388.558594 164.785156 389.042969 165.109375 C 389.527344 165.433594 390.039062 165.707031 390.578125 165.929688 C 391.117188 166.152344 391.675781 166.324219 392.246094 166.4375 C 392.820312 166.550781 393.398438 166.609375 393.980469 166.609375 C 394.566406 166.609375 395.144531 166.550781 395.714844 166.4375 C 396.289062 166.324219 396.84375 166.15625 397.382812 165.929688 C 397.921875 165.707031 398.433594 165.433594 398.921875 165.109375 C 399.40625 164.785156 399.855469 164.417969 400.269531 164.003906 C 400.679688 163.589844 401.050781 163.140625 401.375 162.65625 C 401.699219 162.171875 401.972656 161.660156 402.195312 161.121094 C 402.417969 160.582031 402.585938 160.023438 402.699219 159.453125 C 402.816406 158.878906 402.871094 158.300781 402.871094 157.71875 C 402.871094 157.132812 402.8125 156.554688 402.699219 155.984375 C 402.585938 155.410156 402.414062 154.855469 402.191406 154.316406 C 401.96875 153.777344 401.695312 153.265625 401.371094 152.78125 C 401.046875 152.296875 400.679688 151.847656 400.265625 151.433594 C 399.851562 151.023438 399.40625 150.652344 398.917969 150.328125 C 398.433594 150.003906 397.921875 149.730469 397.382812 149.507812 C 396.84375 149.28125 396.289062 149.113281 395.71875 149 C 395.144531 148.886719 394.570312 148.828125 393.984375 148.824219 Z M 393.984375 161.734375 C 393.722656 161.738281 393.460938 161.710938 393.203125 161.660156 C 392.941406 161.609375 392.691406 161.53125 392.445312 161.429688 C 392.203125 161.332031 391.972656 161.207031 391.753906 161.058594 C 391.53125 160.914062 391.328125 160.746094 391.144531 160.5625 C 390.957031 160.375 390.789062 160.171875 390.640625 159.953125 C 390.496094 159.734375 390.371094 159.5 390.269531 159.257812 C 390.167969 159.011719 390.09375 158.761719 390.042969 158.503906 C 389.988281 158.246094 389.964844 157.984375 389.964844 157.71875 C 389.964844 157.453125 389.988281 157.195312 390.039062 156.933594 C 390.09375 156.675781 390.167969 156.425781 390.269531 156.179688 C 390.371094 155.9375 390.492188 155.703125 390.640625 155.484375 C 390.785156 155.265625 390.953125 155.0625 391.140625 154.875 C 391.328125 154.6875 391.53125 154.523438 391.75 154.375 C 391.96875 154.230469 392.199219 154.105469 392.445312 154.003906 C 392.6875 153.902344 392.9375 153.828125 393.199219 153.773438 C 393.457031 153.722656 393.71875 153.699219 393.980469 153.699219 C 394.246094 153.699219 394.507812 153.722656 394.765625 153.773438 C 395.023438 153.828125 395.277344 153.902344 395.519531 154.003906 C 395.761719 154.105469 395.996094 154.226562 396.214844 154.375 C 396.433594 154.519531 396.636719 154.6875 396.824219 154.875 C 397.011719 155.0625 397.175781 155.265625 397.324219 155.484375 C 397.46875 155.703125 397.59375 155.933594 397.695312 156.179688 C 397.796875 156.421875 397.871094 156.675781 397.921875 156.933594 C 397.976562 157.191406 398 157.453125 398 157.71875 C 398 157.980469 397.972656 158.242188 397.921875 158.5 C 397.871094 158.757812 397.792969 159.011719 397.695312 159.253906 C 397.59375 159.496094 397.46875 159.730469 397.324219 159.949219 C 397.175781 160.167969 397.007812 160.371094 396.824219 160.554688 C 396.636719 160.742188 396.433594 160.910156 396.214844 161.054688 C 395.996094 161.203125 395.765625 161.328125 395.519531 161.429688 C 395.277344 161.527344 395.027344 161.605469 394.769531 161.65625 C 394.511719 161.710938 394.25 161.734375 393.984375 161.734375 Z M 393.984375 161.734375 " fill-opacity="1" fill-rule="nonzero"/><g clip-path="url(#ec1614a917)"><path fill="#000000" d="M 419.253906 59.148438 C 399.792969 39.199219 372.304688 27.933594 341.757812 27.367188 L 341.757812 2.4375 C 341.757812 2.113281 341.695312 1.800781 341.570312 1.503906 C 341.449219 1.207031 341.273438 0.941406 341.042969 0.714844 C 340.816406 0.484375 340.550781 0.308594 340.253906 0.1875 C 339.957031 0.0625 339.644531 0 339.324219 0 L 112.304688 0 L 112.304688 4.871094 L 336.886719 4.871094 L 336.886719 154.898438 L 188.179688 154.898438 C 188.105469 154.003906 187.988281 153.113281 187.828125 152.226562 C 187.671875 151.339844 187.472656 150.464844 187.230469 149.597656 C 186.992188 148.730469 186.710938 147.878906 186.394531 147.039062 C 186.074219 146.195312 185.71875 145.371094 185.320312 144.566406 C 184.925781 143.757812 184.492188 142.96875 184.023438 142.203125 C 183.554688 141.433594 183.050781 140.691406 182.515625 139.972656 C 181.976562 139.25 181.40625 138.554688 180.804688 137.890625 C 180.199219 137.222656 179.566406 136.582031 178.90625 135.976562 C 178.246094 135.367188 177.554688 134.789062 176.839844 134.246094 C 176.125 133.699219 175.386719 133.191406 174.621094 132.714844 C 173.859375 132.238281 173.074219 131.800781 172.273438 131.398438 C 171.46875 130.992188 170.648438 130.628906 169.808594 130.300781 C 168.972656 129.976562 168.121094 129.6875 167.257812 129.441406 C 166.390625 129.195312 165.519531 128.988281 164.636719 128.820312 C 163.75 128.65625 162.863281 128.53125 161.964844 128.445312 C 161.070312 128.363281 160.175781 128.320312 159.273438 128.320312 C 158.375 128.320312 157.480469 128.363281 156.582031 128.445312 C 155.6875 128.53125 154.800781 128.65625 153.914062 128.820312 C 153.03125 128.988281 152.15625 129.195312 151.292969 129.441406 C 150.429688 129.6875 149.578125 129.976562 148.738281 130.300781 C 147.902344 130.628906 147.082031 130.992188 146.277344 131.398438 C 145.472656 131.800781 144.691406 132.238281 143.925781 132.714844 C 143.164062 133.191406 142.425781 133.699219 141.710938 134.246094 C 140.996094 134.789062 140.304688 135.367188 139.644531 135.976562 C 138.980469 136.582031 138.351562 137.222656 137.746094 137.890625 C 137.144531 138.554688 136.574219 139.25 136.035156 139.972656 C 135.496094 140.691406 134.996094 141.433594 134.527344 142.203125 C 134.058594 142.96875 133.625 143.757812 133.230469 144.566406 C 132.832031 145.371094 132.476562 146.195312 132.15625 147.039062 C 131.835938 147.878906 131.558594 148.730469 131.316406 149.597656 C 131.078125 150.464844 130.878906 151.339844 130.722656 152.226562 C 130.5625 153.113281 130.445312 154.003906 130.371094 154.898438 L 112.304688 154.898438 L 112.304688 159.769531 L 132.703125 159.769531 C 133.136719 159.765625 133.539062 159.65625 133.910156 159.4375 C 133.976562 160.21875 134.078125 160.996094 134.214844 161.769531 C 134.351562 162.542969 134.527344 163.308594 134.734375 164.066406 C 134.945312 164.824219 135.1875 165.570312 135.46875 166.304688 C 135.746094 167.039062 136.058594 167.757812 136.40625 168.460938 C 136.753906 169.167969 137.132812 169.855469 137.542969 170.523438 C 137.953125 171.191406 138.394531 171.84375 138.863281 172.46875 C 139.335938 173.097656 139.835938 173.703125 140.363281 174.285156 C 140.890625 174.867188 141.445312 175.421875 142.023438 175.953125 C 142.605469 176.484375 143.207031 176.984375 143.832031 177.457031 C 144.460938 177.929688 145.109375 178.375 145.777344 178.785156 C 146.445312 179.199219 147.128906 179.582031 147.832031 179.929688 C 148.535156 180.277344 149.253906 180.59375 149.988281 180.875 C 150.722656 181.15625 151.464844 181.402344 152.222656 181.617188 C 152.976562 181.828125 153.742188 182.003906 154.515625 182.144531 C 155.289062 182.285156 156.066406 182.390625 156.847656 182.457031 C 157.628906 182.523438 158.414062 182.554688 159.199219 182.550781 C 159.984375 182.546875 160.765625 182.503906 161.546875 182.425781 C 162.328125 182.347656 163.105469 182.230469 163.875 182.078125 C 164.648438 181.929688 165.410156 181.742188 166.160156 181.519531 C 166.914062 181.296875 167.65625 181.039062 168.386719 180.746094 C 169.113281 180.457031 169.828125 180.132812 170.527344 179.773438 C 171.226562 179.414062 171.90625 179.023438 172.570312 178.601562 C 173.230469 178.179688 173.871094 177.726562 174.492188 177.246094 C 175.113281 176.761719 175.707031 176.253906 176.28125 175.714844 C 176.851562 175.175781 177.398438 174.613281 177.917969 174.023438 C 178.4375 173.4375 178.929688 172.824219 179.390625 172.191406 C 179.855469 171.554688 180.285156 170.898438 180.6875 170.226562 C 181.089844 169.550781 181.457031 168.855469 181.792969 168.148438 C 182.128906 167.4375 182.433594 166.714844 182.703125 165.976562 C 182.972656 165.238281 183.203125 164.488281 183.402344 163.730469 C 183.601562 162.96875 183.765625 162.203125 183.894531 161.425781 C 184.019531 160.652344 184.109375 159.871094 184.164062 159.089844 C 184.632812 159.542969 185.191406 159.769531 185.84375 159.769531 L 367.414062 159.769531 C 367.949219 159.769531 368.429688 159.605469 368.855469 159.28125 C 368.917969 160.066406 369.015625 160.84375 369.148438 161.617188 C 369.28125 162.390625 369.449219 163.15625 369.652344 163.914062 C 369.859375 164.671875 370.097656 165.417969 370.371094 166.15625 C 370.644531 166.890625 370.953125 167.613281 371.296875 168.316406 C 371.636719 169.023438 372.011719 169.714844 372.417969 170.386719 C 372.824219 171.058594 373.261719 171.710938 373.726562 172.339844 C 374.195312 172.972656 374.6875 173.578125 375.210938 174.164062 C 375.734375 174.75 376.285156 175.308594 376.863281 175.839844 C 377.4375 176.375 378.039062 176.878906 378.660156 177.355469 C 379.285156 177.832031 379.925781 178.28125 380.59375 178.699219 C 381.257812 179.117188 381.941406 179.5 382.640625 179.855469 C 383.339844 180.207031 384.058594 180.527344 384.789062 180.8125 C 385.519531 181.101562 386.261719 181.351562 387.015625 181.570312 C 387.769531 181.785156 388.53125 181.96875 389.304688 182.113281 C 390.074219 182.257812 390.851562 182.367188 391.632812 182.441406 C 392.414062 182.515625 393.195312 182.550781 393.980469 182.550781 C 394.765625 182.550781 395.550781 182.515625 396.332031 182.441406 C 397.113281 182.367188 397.890625 182.257812 398.660156 182.113281 C 399.429688 181.96875 400.195312 181.785156 400.949219 181.570312 C 401.703125 181.351562 402.445312 181.101562 403.175781 180.8125 C 403.90625 180.527344 404.621094 180.207031 405.324219 179.855469 C 406.023438 179.5 406.707031 179.117188 407.371094 178.699219 C 408.035156 178.28125 408.679688 177.835938 409.304688 177.359375 C 409.925781 176.878906 410.527344 176.375 411.101562 175.84375 C 411.679688 175.308594 412.226562 174.75 412.753906 174.164062 C 413.277344 173.582031 413.769531 172.972656 414.238281 172.339844 C 414.703125 171.710938 415.140625 171.058594 415.546875 170.386719 C 415.953125 169.714844 416.328125 169.027344 416.667969 168.320312 C 417.011719 167.613281 417.320312 166.890625 417.59375 166.15625 C 417.867188 165.421875 418.105469 164.675781 418.3125 163.917969 C 418.515625 163.160156 418.683594 162.394531 418.816406 161.621094 C 418.953125 160.847656 419.046875 160.066406 419.109375 159.285156 C 419.535156 159.605469 420.015625 159.769531 420.550781 159.769531 L 445.257812 159.769531 C 445.542969 159.769531 445.816406 159.722656 446.085938 159.625 C 446.351562 159.527344 446.597656 159.386719 446.816406 159.203125 C 447.035156 159.023438 447.214844 158.808594 447.359375 158.5625 C 447.503906 158.316406 447.601562 158.050781 447.652344 157.773438 C 448.894531 150.957031 449.519531 144.085938 449.519531 137.15625 C 449.519531 106.855469 438.769531 79.152344 419.253906 59.148438 Z M 159.023438 177.679688 C 158.359375 177.679688 157.695312 177.648438 157.03125 177.582031 C 156.367188 177.515625 155.710938 177.417969 155.054688 177.289062 C 154.402344 177.160156 153.757812 176.996094 153.121094 176.804688 C 152.484375 176.609375 151.855469 176.386719 151.242188 176.132812 C 150.625 175.875 150.023438 175.59375 149.4375 175.277344 C 148.847656 174.964844 148.277344 174.621094 147.722656 174.25 C 147.171875 173.882812 146.636719 173.484375 146.121094 173.0625 C 145.605469 172.640625 145.113281 172.191406 144.640625 171.722656 C 144.171875 171.25 143.722656 170.757812 143.300781 170.242188 C 142.878906 169.726562 142.480469 169.191406 142.113281 168.640625 C 141.742188 168.085938 141.398438 167.515625 141.085938 166.925781 C 140.773438 166.339844 140.488281 165.738281 140.234375 165.121094 C 139.976562 164.507812 139.753906 163.878906 139.558594 163.242188 C 139.367188 162.605469 139.207031 161.960938 139.074219 161.304688 C 138.945312 160.652344 138.847656 159.992188 138.78125 159.332031 C 138.71875 158.667969 138.683594 158.003906 138.683594 157.335938 C 138.683594 156.671875 138.71875 156.007812 138.78125 155.34375 C 138.847656 154.679688 138.945312 154.023438 139.074219 153.367188 C 139.203125 152.714844 139.367188 152.070312 139.558594 151.429688 C 139.753906 150.792969 139.976562 150.167969 140.230469 149.550781 C 140.488281 148.9375 140.773438 148.335938 141.085938 147.746094 C 141.398438 147.160156 141.742188 146.589844 142.113281 146.035156 C 142.480469 145.480469 142.878906 144.945312 143.300781 144.429688 C 143.722656 143.917969 144.171875 143.421875 144.640625 142.953125 C 145.113281 142.480469 145.605469 142.035156 146.121094 141.609375 C 146.636719 141.1875 147.167969 140.792969 147.722656 140.421875 C 148.277344 140.050781 148.847656 139.710938 149.433594 139.394531 C 150.023438 139.082031 150.625 138.796875 151.238281 138.542969 C 151.855469 138.285156 152.480469 138.0625 153.117188 137.871094 C 153.757812 137.675781 154.402344 137.515625 155.054688 137.382812 C 155.707031 137.253906 156.367188 137.15625 157.03125 137.089844 C 157.691406 137.027344 158.355469 136.992188 159.023438 136.992188 C 159.6875 136.992188 160.355469 137.027344 161.015625 137.089844 C 161.679688 137.15625 162.335938 137.253906 162.992188 137.382812 C 163.644531 137.515625 164.289062 137.675781 164.925781 137.867188 C 165.566406 138.0625 166.191406 138.285156 166.804688 138.542969 C 167.421875 138.796875 168.023438 139.082031 168.609375 139.394531 C 169.199219 139.710938 169.769531 140.050781 170.324219 140.421875 C 170.875 140.792969 171.410156 141.1875 171.925781 141.609375 C 172.441406 142.035156 172.933594 142.480469 173.40625 142.953125 C 173.875 143.421875 174.324219 143.914062 174.746094 144.429688 C 175.167969 144.945312 175.5625 145.480469 175.933594 146.035156 C 176.304688 146.589844 176.648438 147.160156 176.960938 147.746094 C 177.273438 148.335938 177.558594 148.9375 177.8125 149.550781 C 178.070312 150.167969 178.292969 150.792969 178.488281 151.429688 C 178.679688 152.070312 178.839844 152.714844 178.972656 153.367188 C 179.101562 154.019531 179.199219 154.679688 179.265625 155.34375 C 179.328125 156.003906 179.363281 156.671875 179.363281 157.335938 C 179.363281 158.003906 179.328125 158.667969 179.261719 159.328125 C 179.195312 159.992188 179.097656 160.648438 178.96875 161.304688 C 178.835938 161.957031 178.675781 162.601562 178.480469 163.238281 C 178.289062 163.875 178.0625 164.503906 177.808594 165.117188 C 177.554688 165.734375 177.269531 166.335938 176.953125 166.921875 C 176.640625 167.507812 176.296875 168.078125 175.925781 168.632812 C 175.558594 169.1875 175.160156 169.722656 174.738281 170.234375 C 174.316406 170.75 173.871094 171.242188 173.398438 171.714844 C 172.929688 172.183594 172.433594 172.632812 171.921875 173.054688 C 171.40625 173.476562 170.871094 173.875 170.316406 174.242188 C 169.765625 174.613281 169.195312 174.957031 168.605469 175.269531 C 168.019531 175.585938 167.417969 175.871094 166.804688 176.125 C 166.1875 176.378906 165.5625 176.605469 164.925781 176.796875 C 164.289062 176.992188 163.644531 177.152344 162.992188 177.285156 C 162.335938 177.414062 161.679688 177.511719 161.015625 177.578125 C 160.355469 177.644531 159.691406 177.679688 159.023438 177.679688 Z M 393.980469 177.679688 C 393.316406 177.679688 392.652344 177.648438 391.988281 177.582031 C 391.324219 177.515625 390.667969 177.417969 390.011719 177.289062 C 389.359375 177.160156 388.714844 176.996094 388.078125 176.804688 C 387.441406 176.609375 386.8125 176.386719 386.199219 176.132812 C 385.582031 175.875 384.980469 175.589844 384.394531 175.277344 C 383.804688 174.964844 383.234375 174.621094 382.683594 174.25 C 382.128906 173.882812 381.59375 173.484375 381.078125 173.0625 C 380.5625 172.640625 380.070312 172.191406 379.601562 171.722656 C 379.128906 171.25 378.683594 170.757812 378.257812 170.242188 C 377.835938 169.726562 377.441406 169.191406 377.070312 168.636719 C 376.699219 168.085938 376.359375 167.515625 376.042969 166.925781 C 375.730469 166.339844 375.445312 165.738281 375.191406 165.121094 C 374.9375 164.507812 374.710938 163.878906 374.519531 163.242188 C 374.324219 162.605469 374.164062 161.957031 374.035156 161.304688 C 373.902344 160.652344 373.804688 159.992188 373.742188 159.332031 C 373.675781 158.667969 373.640625 158.003906 373.640625 157.335938 C 373.640625 156.671875 373.675781 156.003906 373.742188 155.34375 C 373.804688 154.679688 373.902344 154.019531 374.035156 153.367188 C 374.164062 152.714844 374.324219 152.070312 374.519531 151.429688 C 374.710938 150.792969 374.9375 150.167969 375.191406 149.550781 C 375.445312 148.9375 375.730469 148.335938 376.042969 147.746094 C 376.359375 147.160156 376.699219 146.589844 377.070312 146.035156 C 377.441406 145.480469 377.835938 144.945312 378.257812 144.429688 C 378.683594 143.914062 379.128906 143.421875 379.601562 142.953125 C 380.070312 142.480469 380.5625 142.035156 381.078125 141.609375 C 381.59375 141.1875 382.128906 140.792969 382.683594 140.421875 C 383.234375 140.050781 383.804688 139.710938 384.394531 139.394531 C 384.980469 139.082031 385.582031 138.796875 386.199219 138.542969 C 386.8125 138.285156 387.441406 138.0625 388.078125 137.871094 C 388.714844 137.675781 389.359375 137.515625 390.011719 137.382812 C 390.667969 137.253906 391.324219 137.15625 391.988281 137.089844 C 392.652344 137.027344 393.316406 136.992188 393.980469 136.992188 C 394.648438 136.992188 395.3125 137.027344 395.976562 137.089844 C 396.636719 137.15625 397.296875 137.253906 397.949219 137.382812 C 398.601562 137.515625 399.25 137.675781 399.886719 137.871094 C 400.523438 138.0625 401.148438 138.285156 401.765625 138.542969 C 402.378906 138.796875 402.980469 139.082031 403.570312 139.394531 C 404.15625 139.710938 404.726562 140.050781 405.28125 140.421875 C 405.835938 140.792969 406.371094 141.1875 406.882812 141.609375 C 407.398438 142.035156 407.890625 142.480469 408.363281 142.953125 C 408.835938 143.421875 409.28125 143.914062 409.703125 144.429688 C 410.125 144.945312 410.523438 145.480469 410.894531 146.035156 C 411.261719 146.589844 411.605469 147.160156 411.917969 147.746094 C 412.234375 148.335938 412.515625 148.9375 412.773438 149.550781 C 413.027344 150.167969 413.25 150.792969 413.445312 151.429688 C 413.636719 152.070312 413.800781 152.714844 413.929688 153.367188 C 414.058594 154.019531 414.15625 154.679688 414.222656 155.34375 C 414.289062 156.003906 414.320312 156.671875 414.320312 157.335938 C 414.320312 158.003906 414.285156 158.667969 414.21875 159.328125 C 414.15625 159.992188 414.054688 160.652344 413.925781 161.304688 C 413.796875 161.957031 413.632812 162.601562 413.441406 163.238281 C 413.246094 163.875 413.019531 164.503906 412.765625 165.117188 C 412.511719 165.734375 412.226562 166.335938 411.914062 166.921875 C 411.597656 167.507812 411.257812 168.078125 410.886719 168.632812 C 410.515625 169.1875 410.121094 169.722656 409.695312 170.234375 C 409.273438 170.75 408.828125 171.242188 408.355469 171.714844 C 407.886719 172.1875 407.394531 172.632812 406.878906 173.054688 C 406.363281 173.476562 405.828125 173.875 405.277344 174.246094 C 404.722656 174.613281 404.152344 174.957031 403.566406 175.269531 C 402.976562 175.585938 402.375 175.871094 401.761719 176.125 C 401.144531 176.378906 400.519531 176.605469 399.882812 176.796875 C 399.246094 176.992188 398.601562 177.15625 397.949219 177.285156 C 397.292969 177.414062 396.636719 177.515625 395.972656 177.578125 C 395.3125 177.644531 394.648438 177.679688 393.980469 177.679688 Z M 443.207031 154.898438 L 422.886719 154.898438 C 422.8125 154.003906 422.695312 153.113281 422.535156 152.226562 C 422.378906 151.339844 422.179688 150.464844 421.9375 149.597656 C 421.699219 148.730469 421.417969 147.878906 421.101562 147.039062 C 420.78125 146.195312 420.425781 145.371094 420.027344 144.566406 C 419.632812 143.757812 419.199219 142.96875 418.730469 142.203125 C 418.261719 141.433594 417.757812 140.691406 417.222656 139.972656 C 416.683594 139.25 416.113281 138.554688 415.511719 137.890625 C 414.90625 137.222656 414.273438 136.582031 413.613281 135.976562 C 412.953125 135.367188 412.261719 134.789062 411.546875 134.246094 C 410.832031 133.699219 410.09375 133.191406 409.328125 132.714844 C 408.566406 132.238281 407.785156 131.800781 406.980469 131.398438 C 406.175781 130.992188 405.355469 130.628906 404.515625 130.300781 C 403.679688 129.976562 402.828125 129.6875 401.964844 129.441406 C 401.101562 129.195312 400.226562 128.988281 399.34375 128.820312 C 398.457031 128.65625 397.570312 128.53125 396.675781 128.445312 C 395.777344 128.363281 394.882812 128.320312 393.980469 128.320312 C 393.082031 128.320312 392.1875 128.363281 391.289062 128.445312 C 390.394531 128.53125 389.507812 128.65625 388.621094 128.820312 C 387.738281 128.988281 386.863281 129.195312 386 129.441406 C 385.136719 129.6875 384.285156 129.976562 383.449219 130.300781 C 382.609375 130.628906 381.789062 130.992188 380.984375 131.398438 C 380.179688 131.800781 379.398438 132.238281 378.636719 132.714844 C 377.871094 133.191406 377.132812 133.699219 376.417969 134.246094 C 375.703125 134.789062 375.011719 135.367188 374.351562 135.976562 C 373.691406 136.582031 373.058594 137.222656 372.453125 137.890625 C 371.851562 138.554688 371.28125 139.25 370.742188 139.972656 C 370.207031 140.691406 369.703125 141.433594 369.234375 142.203125 C 368.765625 142.96875 368.332031 143.757812 367.9375 144.566406 C 367.539062 145.371094 367.183594 146.195312 366.863281 147.039062 C 366.546875 147.878906 366.265625 148.730469 366.027344 149.597656 C 365.785156 150.464844 365.585938 151.339844 365.429688 152.226562 C 365.269531 153.113281 365.152344 154.003906 365.078125 154.898438 L 341.757812 154.898438 L 341.757812 32.230469 C 401.4375 33.394531 444.648438 77.371094 444.648438 137.15625 C 444.648438 143.109375 444.164062 149.023438 443.207031 154.898438 Z M 443.207031 154.898438 " fill-opacity="1" fill-rule="nonzero"/></g><g clip-path="url(#d2d3175c31)"><path fill="#000000" d="M 209.65625 77.453125 C 209.65625 77.128906 209.59375 76.820312 209.46875 76.519531 C 209.34375 76.222656 209.167969 75.957031 208.941406 75.730469 C 208.710938 75.5 208.449219 75.324219 208.152344 75.203125 C 207.851562 75.078125 207.542969 75.015625 207.21875 75.015625 L 7.394531 75.015625 C 7.070312 75.015625 6.761719 75.078125 6.460938 75.199219 C 6.160156 75.324219 5.898438 75.5 5.667969 75.726562 C 5.4375 75.957031 5.261719 76.21875 5.136719 76.519531 C 5.015625 76.816406 4.953125 77.128906 4.953125 77.453125 C 4.953125 77.777344 5.015625 78.085938 5.136719 78.386719 C 5.261719 78.683594 5.4375 78.949219 5.667969 79.175781 C 5.898438 79.40625 6.160156 79.582031 6.460938 79.703125 C 6.761719 79.828125 7.070312 79.890625 7.394531 79.886719 L 207.21875 79.886719 C 207.542969 79.886719 207.851562 79.828125 208.152344 79.703125 C 208.449219 79.578125 208.710938 79.402344 208.941406 79.175781 C 209.167969 78.945312 209.34375 78.683594 209.46875 78.382812 C 209.59375 78.085938 209.65625 77.773438 209.65625 77.453125 Z M 209.65625 77.453125 " fill-opacity="1" fill-rule="nonzero"/></g><path fill="#000000" d="M 152.570312 113.585938 C 152.570312 113.261719 152.511719 112.953125 152.386719 112.652344 C 152.261719 112.355469 152.085938 112.09375 151.859375 111.863281 C 151.628906 111.636719 151.367188 111.460938 151.070312 111.335938 C 150.769531 111.210938 150.460938 111.148438 150.136719 111.148438 L 42.363281 111.148438 C 42.042969 111.148438 41.730469 111.210938 41.433594 111.335938 C 41.132812 111.460938 40.871094 111.636719 40.640625 111.863281 C 40.414062 112.09375 40.238281 112.355469 40.113281 112.652344 C 39.992188 112.953125 39.929688 113.261719 39.929688 113.585938 C 39.929688 113.910156 39.992188 114.21875 40.113281 114.519531 C 40.238281 114.816406 40.414062 115.078125 40.640625 115.308594 C 40.871094 115.535156 41.132812 115.710938 41.433594 115.835938 C 41.730469 115.960938 42.042969 116.023438 42.363281 116.023438 L 150.136719 116.023438 C 150.460938 116.023438 150.769531 115.960938 151.070312 115.835938 C 151.367188 115.710938 151.628906 115.535156 151.859375 115.308594 C 152.085938 115.078125 152.261719 114.816406 152.386719 114.519531 C 152.511719 114.21875 152.570312 113.910156 152.570312 113.585938 Z M 152.570312 113.585938 " fill-opacity="1" fill-rule="nonzero"/><path fill="#000000" d="M 33.621094 44.09375 L 159.023438 44.09375 C 159.347656 44.097656 159.660156 44.035156 159.957031 43.910156 C 160.257812 43.789062 160.523438 43.613281 160.75 43.382812 C 160.980469 43.15625 161.15625 42.890625 161.28125 42.59375 C 161.40625 42.292969 161.46875 41.984375 161.46875 41.660156 C 161.46875 41.335938 161.40625 41.023438 161.28125 40.726562 C 161.15625 40.425781 160.980469 40.164062 160.75 39.933594 C 160.523438 39.707031 160.257812 39.53125 159.957031 39.40625 C 159.660156 39.285156 159.347656 39.222656 159.023438 39.222656 L 33.621094 39.222656 C 33.296875 39.222656 32.988281 39.285156 32.6875 39.40625 C 32.386719 39.53125 32.125 39.707031 31.894531 39.933594 C 31.664062 40.164062 31.488281 40.425781 31.363281 40.726562 C 31.242188 41.023438 31.179688 41.335938 31.179688 41.660156 C 31.179688 41.984375 31.242188 42.292969 31.363281 42.59375 C 31.488281 42.890625 31.664062 43.15625 31.894531 43.382812 C 32.125 43.613281 32.386719 43.789062 32.6875 43.910156 C 32.988281 44.035156 33.296875 44.097656 33.621094 44.09375 Z M 33.621094 44.09375 " fill-opacity="1" fill-rule="nonzero"/><g clip-path="url(#b775ee8ca5)"><path fill="#000000" d="M 7.394531 44.09375 L 21.132812 44.09375 C 21.457031 44.097656 21.769531 44.035156 22.066406 43.910156 C 22.367188 43.789062 22.628906 43.613281 22.859375 43.382812 C 23.089844 43.15625 23.265625 42.890625 23.390625 42.59375 C 23.515625 42.292969 23.574219 41.984375 23.574219 41.660156 C 23.574219 41.335938 23.515625 41.023438 23.390625 40.726562 C 23.265625 40.425781 23.089844 40.164062 22.859375 39.933594 C 22.628906 39.707031 22.367188 39.53125 22.066406 39.40625 C 21.769531 39.285156 21.457031 39.222656 21.132812 39.222656 L 7.394531 39.222656 C 7.070312 39.222656 6.761719 39.285156 6.460938 39.40625 C 6.160156 39.53125 5.898438 39.707031 5.667969 39.933594 C 5.4375 40.164062 5.261719 40.425781 5.136719 40.726562 C 5.015625 41.023438 4.953125 41.335938 4.953125 41.660156 C 4.953125 41.984375 5.015625 42.292969 5.136719 42.59375 C 5.261719 42.890625 5.4375 43.15625 5.667969 43.382812 C 5.898438 43.613281 6.160156 43.789062 6.460938 43.910156 C 6.761719 44.035156 7.070312 44.097656 7.394531 44.09375 Z M 7.394531 44.09375 " fill-opacity="1" fill-rule="nonzero"/></g></svg>