<svg xmlns="http://www.w3.org/2000/svg" xmlns:xlink="http://www.w3.org/1999/xlink" width="500" zoomAndPan="magnify" viewBox="0 0 375 374.999991" height="500" preserveAspectRatio="xMidYMid meet" version="1.0"><defs><g/></defs><g fill="#ffe0f3" fill-opacity="1"><g transform="translate(99.871413, 250.71582)"><g><path d="M 5.25 0 L 5.25 -1.875 L 10.125 -1.875 C 13.632812 -1.875 16.046875 -2.71875 17.359375 -4.40625 C 18.671875 -6.09375 19.328125 -9.816406 19.328125 -15.578125 L 19.328125 -118.59375 C 19.328125 -124.09375 18.734375 -127.71875 17.546875 -129.46875 C 16.359375 -131.21875 14.015625 -132.09375 10.515625 -132.09375 L 5.25 -132.09375 L 5.25 -133.96875 L 49.53125 -133.96875 L 49.53125 -132.09375 L 44.46875 -132.09375 C 40.96875 -132.09375 38.6875 -131.21875 37.625 -129.46875 C 36.5625 -127.71875 36.03125 -124.09375 36.03125 -118.59375 L 36.03125 -54.046875 L 78.4375 -114.65625 C 81.1875 -118.65625 83.09375 -121.59375 84.15625 -123.46875 C 85.21875 -125.34375 85.75 -126.78125 85.75 -127.78125 C 85.75 -129.40625 84.84375 -130.53125 83.03125 -131.15625 C 81.21875 -131.78125 76.992188 -132.09375 70.359375 -132.09375 L 70.359375 -133.96875 L 101.890625 -133.96875 L 101.890625 -132.09375 C 99.015625 -132.09375 96.664062 -131.65625 94.84375 -130.78125 C 93.03125 -129.90625 91.09375 -128.1875 89.03125 -125.625 C 86.96875 -123.0625 84.0625 -119.148438 80.3125 -113.890625 L 57.234375 -81.0625 L 93.4375 -18.015625 C 97.070312 -11.503906 99.953125 -7.1875 102.078125 -5.0625 C 104.203125 -2.9375 106.140625 -1.875 107.890625 -1.875 L 108.265625 -1.875 L 108.265625 0 L 101.140625 0 C 96.390625 0 92.476562 -0.5 89.40625 -1.5 C 86.34375 -2.5 83.59375 -4.4375 81.15625 -7.3125 C 78.71875 -10.195312 76.0625 -14.328125 73.1875 -19.703125 L 47.46875 -67.546875 L 36.03125 -50.65625 L 36.03125 -15.953125 C 36.03125 -10.066406 36.65625 -6.25 37.90625 -4.5 C 39.15625 -2.75 41.59375 -1.875 45.21875 -1.875 L 49.53125 -1.875 L 49.53125 0 Z M 5.25 0 "/></g></g></g><g fill="#ffe0f3" fill-opacity="1"><g transform="translate(168.735092, 250.71582)"><g><path d="M 0.1875 0 L 0.1875 -1.875 L 5.625 -1.875 C 9.007812 -1.875 11.453125 -2.8125 12.953125 -4.6875 C 14.453125 -6.5625 16.015625 -10.566406 17.640625 -16.703125 L 48.40625 -133.96875 L 60.796875 -133.96875 L 95.140625 -10.703125 C 96.140625 -7.066406 97.296875 -4.6875 98.609375 -3.5625 C 99.921875 -2.4375 102.078125 -1.875 105.078125 -1.875 L 106.390625 -1.875 L 106.390625 0 L 64.734375 0 L 64.734375 -1.875 L 70.359375 -1.875 C 73.867188 -1.875 76.15625 -2.3125 77.21875 -3.1875 C 78.28125 -4.0625 78.8125 -5.3125 78.8125 -6.9375 C 78.8125 -8.4375 78.5 -10.21875 77.875 -12.28125 C 77.25 -14.351562 76.6875 -16.453125 76.1875 -18.578125 L 68.484375 -48.78125 L 28.140625 -48.78125 L 21.015625 -21.765625 C 20.265625 -19.015625 19.578125 -16.320312 18.953125 -13.6875 C 18.328125 -11.0625 18.015625 -8.9375 18.015625 -7.3125 C 18.015625 -5.3125 18.609375 -3.90625 19.796875 -3.09375 C 20.984375 -2.28125 23.140625 -1.875 26.265625 -1.875 L 34.34375 -1.875 L 34.34375 0 Z M 28.703125 -50.65625 L 67.921875 -50.65625 L 55.546875 -98.703125 C 54.046875 -104.828125 52.820312 -109.734375 51.875 -113.421875 C 50.9375 -117.117188 50.1875 -120.03125 49.625 -122.15625 C 49.0625 -124.28125 48.65625 -126.09375 48.40625 -127.59375 C 47.65625 -124.34375 47.0625 -121.65625 46.625 -119.53125 C 46.1875 -117.40625 45.6875 -115.304688 45.125 -113.234375 C 44.5625 -111.171875 43.84375 -108.515625 42.96875 -105.265625 Z M 28.703125 -50.65625 "/></g></g></g><path stroke-linecap="round" transform="matrix(0.750413, 0.00113675, -0.00113612, 0.749999, 89.269832, 225.308085)" fill="none" stroke-linejoin="miter" d="M 0.500081 0.499921 L 84.464267 0.497659 " stroke="#292929" stroke-width="1" stroke-opacity="1" stroke-miterlimit="4"/><path stroke-linecap="round" transform="matrix(0.750854, -0.00000917668, 0.00000916624, 0.75, 89.829044, 137.163433)" fill="none" stroke-linejoin="miter" d="M 0.498201 0.500846 L 260.207657 0.498815 " stroke="#292929" stroke-width="1" stroke-opacity="1" stroke-miterlimit="4"/><path stroke-linecap="round" transform="matrix(0.747526, 0.000531525, -0.000533284, 0.75, 221.391069, 225.310855)" fill="none" stroke-linejoin="miter" d="M 0.501418 0.501838 L 84.789837 0.499395 " stroke="#292929" stroke-width="1" stroke-opacity="1" stroke-miterlimit="4"/><path stroke-linecap="round" transform="matrix(0.000000000000000046, -0.748301, 0.75, 0.000000000000000046, 284.977779, 225.490416)" fill="none" stroke-linejoin="miter" d="M 0.498767 0.498379 L 116.77779 0.498379 " stroke="#292929" stroke-width="1" stroke-opacity="1" stroke-miterlimit="4"/><path stroke-linecap="round" transform="matrix(0.00318171, -0.751486, 0.749993, 0.00317539, 89.261519, 225.770889)" fill="none" stroke-linejoin="miter" d="M 0.497725 0.49816 L 117.281973 0.49752 " stroke="#292929" stroke-width="1" stroke-opacity="1" stroke-miterlimit="4"/><g fill="#292929" fill-opacity="1"><g transform="translate(162.543143, 233.183085)"><g><path d="M 12.796875 -1.765625 C 12.972656 -1.296875 13.179688 -0.957031 13.421875 -0.75 C 13.660156 -0.539062 13.890625 -0.429688 14.109375 -0.421875 L 14.109375 0 C 13.273438 -0.0390625 12.210938 -0.0625 10.921875 -0.0625 C 9.503906 -0.0625 8.445312 -0.0390625 7.75 0 L 7.75 -0.421875 C 8.28125 -0.441406 8.65625 -0.503906 8.875 -0.609375 C 9.101562 -0.722656 9.21875 -0.910156 9.21875 -1.171875 C 9.21875 -1.421875 9.132812 -1.753906 8.96875 -2.171875 L 7.703125 -5.609375 L 3.140625 -5.609375 L 2.59375 -4.171875 C 2.207031 -3.160156 2.015625 -2.382812 2.015625 -1.84375 C 2.015625 -1.320312 2.171875 -0.957031 2.484375 -0.75 C 2.796875 -0.550781 3.257812 -0.441406 3.875 -0.421875 L 3.875 0 C 2.925781 -0.0390625 2.0625 -0.0625 1.28125 -0.0625 C 0.632812 -0.0625 0.101562 -0.0390625 -0.3125 0 L -0.3125 -0.421875 C 0.375 -0.546875 0.972656 -1.273438 1.484375 -2.609375 L 6.265625 -14.859375 C 6.410156 -14.847656 6.65625 -14.84375 7 -14.84375 C 7.332031 -14.84375 7.566406 -14.847656 7.703125 -14.859375 Z M 7.5625 -6.03125 L 5.484375 -11.6875 L 3.3125 -6.03125 Z M 7.5625 -6.03125 "/></g></g></g><g fill="#292929" fill-opacity="1"><g transform="translate(180.251721, 233.183085)"><g><path d="M 14.90625 -0.921875 C 14.53125 -0.484375 14.125 -0.171875 13.6875 0.015625 C 13.257812 0.203125 12.738281 0.296875 12.125 0.296875 C 11.3125 0.296875 10.671875 0.125 10.203125 -0.21875 C 9.734375 -0.5625 9.429688 -1.144531 9.296875 -1.96875 L 8.921875 -4.0625 C 8.734375 -5.082031 8.507812 -5.832031 8.25 -6.3125 C 8 -6.789062 7.570312 -7.03125 6.96875 -7.03125 L 5.609375 -7.03125 L 5.609375 -2.21875 C 5.609375 -1.6875 5.644531 -1.300781 5.71875 -1.0625 C 5.800781 -0.832031 5.945312 -0.671875 6.15625 -0.578125 C 6.363281 -0.492188 6.707031 -0.441406 7.1875 -0.421875 L 7.1875 0 C 6.425781 -0.0390625 5.367188 -0.0625 4.015625 -0.0625 C 2.523438 -0.0625 1.425781 -0.0390625 0.71875 0 L 0.71875 -0.421875 C 1.175781 -0.441406 1.507812 -0.492188 1.71875 -0.578125 C 1.9375 -0.671875 2.082031 -0.832031 2.15625 -1.0625 C 2.238281 -1.300781 2.28125 -1.6875 2.28125 -2.21875 L 2.28125 -12.609375 C 2.28125 -13.140625 2.238281 -13.519531 2.15625 -13.75 C 2.082031 -13.988281 1.9375 -14.148438 1.71875 -14.234375 C 1.507812 -14.316406 1.175781 -14.375 0.71875 -14.40625 L 0.71875 -14.828125 C 1.425781 -14.785156 2.484375 -14.765625 3.890625 -14.765625 L 6.21875 -14.78125 C 6.5 -14.789062 6.820312 -14.796875 7.1875 -14.796875 C 9.113281 -14.796875 10.5625 -14.484375 11.53125 -13.859375 C 12.5 -13.234375 12.984375 -12.332031 12.984375 -11.15625 C 12.984375 -10.164062 12.617188 -9.289062 11.890625 -8.53125 C 11.160156 -7.78125 9.960938 -7.3125 8.296875 -7.125 C 9.546875 -7.007812 10.476562 -6.734375 11.09375 -6.296875 C 11.707031 -5.867188 12.109375 -5.222656 12.296875 -4.359375 L 12.765625 -2.203125 C 12.878906 -1.640625 13.007812 -1.242188 13.15625 -1.015625 C 13.300781 -0.796875 13.507812 -0.6875 13.78125 -0.6875 C 13.945312 -0.707031 14.085938 -0.75 14.203125 -0.8125 C 14.328125 -0.882812 14.460938 -1.003906 14.609375 -1.171875 Z M 6.90625 -14.40625 C 6.53125 -14.40625 6.253906 -14.351562 6.078125 -14.25 C 5.910156 -14.15625 5.789062 -13.984375 5.71875 -13.734375 C 5.644531 -13.484375 5.609375 -13.109375 5.609375 -12.609375 L 5.609375 -7.453125 L 6.515625 -7.453125 C 7.660156 -7.453125 8.441406 -7.753906 8.859375 -8.359375 C 9.285156 -8.972656 9.5 -9.828125 9.5 -10.921875 C 9.5 -12.066406 9.296875 -12.929688 8.890625 -13.515625 C 8.492188 -14.109375 7.832031 -14.40625 6.90625 -14.40625 Z M 6.90625 -14.40625 "/></g></g></g><g fill="#292929" fill-opacity="1"><g transform="translate(198.483545, 233.183085)"><g><path d="M 13.4375 -14.828125 C 13.34375 -13.492188 13.296875 -12.304688 13.296875 -11.265625 C 13.296875 -10.609375 13.316406 -10.078125 13.359375 -9.671875 L 12.875 -9.671875 C 12.539062 -11.390625 12.082031 -12.597656 11.5 -13.296875 C 10.925781 -13.992188 10.132812 -14.34375 9.125 -14.34375 L 8.640625 -14.34375 L 8.640625 -2.390625 C 8.640625 -1.796875 8.695312 -1.367188 8.8125 -1.109375 C 8.9375 -0.847656 9.148438 -0.671875 9.453125 -0.578125 C 9.753906 -0.484375 10.234375 -0.429688 10.890625 -0.421875 L 10.890625 0 C 9.128906 -0.0390625 7.800781 -0.0625 6.90625 -0.0625 C 6.03125 -0.0625 4.753906 -0.0390625 3.078125 0 L 3.078125 -0.421875 C 3.734375 -0.429688 4.210938 -0.484375 4.515625 -0.578125 C 4.816406 -0.671875 5.023438 -0.847656 5.140625 -1.109375 C 5.253906 -1.367188 5.3125 -1.796875 5.3125 -2.390625 L 5.3125 -14.34375 L 4.859375 -14.34375 C 4.191406 -14.34375 3.625 -14.195312 3.15625 -13.90625 C 2.6875 -13.613281 2.28125 -13.128906 1.9375 -12.453125 C 1.601562 -11.773438 1.320312 -10.847656 1.09375 -9.671875 L 0.609375 -9.671875 C 0.648438 -10.078125 0.671875 -10.609375 0.671875 -11.265625 C 0.671875 -12.304688 0.617188 -13.492188 0.515625 -14.828125 C 1.785156 -14.785156 3.945312 -14.765625 7 -14.765625 C 10.039062 -14.765625 12.1875 -14.785156 13.4375 -14.828125 Z M 13.4375 -14.828125 "/></g></g></g><g fill="#292929" fill-opacity="1"><g transform="translate(103.144054, 195.907823)"><g><path d="M 2.863281 0 L 16.023438 0 L 16.023438 -1.476562 L 12.929688 -1.476562 C 12.050781 -1.476562 11.683594 -1.894531 11.683594 -2.722656 L 11.683594 -13.851562 L 15.515625 -17.730469 L 23.042969 -3.601562 C 23.226562 -3.324219 23.367188 -2.722656 23.367188 -2.449219 C 23.367188 -1.941406 22.8125 -1.476562 22.117188 -1.476562 L 19.023438 -1.476562 L 19.023438 0 L 32.972656 0 L 32.972656 -1.476562 L 31.445312 -1.476562 C 29.554688 -1.476562 28.769531 -2.03125 27.984375 -3.507812 L 18.5625 -20.824219 L 26.320312 -28.675781 C 27.429688 -29.832031 29.183594 -31.402344 30.476562 -31.402344 L 32.324219 -31.402344 L 32.324219 -32.878906 L 20.132812 -32.878906 L 20.132812 -31.402344 L 21.378906 -31.402344 C 22.582031 -31.402344 23.457031 -30.570312 23.457031 -29.460938 C 23.457031 -28.308594 23.089844 -27.523438 22.304688 -26.691406 L 11.683594 -15.839844 L 11.683594 -30.152344 C 11.683594 -31.03125 12.050781 -31.402344 12.929688 -31.402344 L 16.023438 -31.402344 L 16.023438 -32.878906 L 2.863281 -32.878906 L 2.863281 -31.402344 L 6.1875 -31.402344 C 7.066406 -31.402344 7.433594 -31.03125 7.433594 -30.152344 L 7.433594 -2.722656 C 7.433594 -1.894531 7.066406 -1.476562 6.1875 -1.476562 L 2.863281 -1.476562 Z M 2.863281 0 "/></g></g></g><g fill="#292929" fill-opacity="1"><g transform="translate(138.050008, 195.907823)"><g><path d="M 8.128906 -16.4375 C 8.128906 -25.859375 10.25 -32.230469 16.625 -32.230469 C 22.996094 -32.230469 25.121094 -25.859375 25.121094 -16.4375 C 25.121094 -7.019531 22.996094 -0.648438 16.625 -0.648438 C 10.25 -0.648438 8.128906 -7.019531 8.128906 -16.4375 Z M 3.234375 -16.4375 C 3.234375 -7.710938 8.589844 0.832031 16.625 0.832031 C 24.660156 0.832031 30.015625 -7.710938 30.015625 -16.4375 C 30.015625 -25.167969 24.660156 -33.710938 16.625 -33.710938 C 8.589844 -33.710938 3.234375 -25.167969 3.234375 -16.4375 Z M 3.234375 -16.4375 "/></g></g></g><g fill="#292929" fill-opacity="1"><g transform="translate(170.370342, 195.907823)"><g><path d="M 12.285156 -11.359375 L 16.945312 -25.351562 L 21.75 -11.359375 Z M 2.125 0 L 14.777344 0 L 14.777344 -1.476562 L 12.328125 -1.476562 C 10.4375 -1.476562 9.972656 -2.910156 9.972656 -3.925781 C 9.972656 -4.710938 10.296875 -5.773438 10.621094 -6.695312 L 11.683594 -9.699219 L 22.351562 -9.699219 L 24.429688 -3.648438 C 24.566406 -3.324219 24.613281 -2.910156 24.613281 -2.632812 C 24.613281 -2.03125 23.921875 -1.476562 22.996094 -1.476562 L 19.949219 -1.476562 L 19.949219 0 L 34.265625 0 L 34.265625 -1.476562 L 31.679688 -1.476562 C 30.429688 -1.476562 29.554688 -1.894531 28.90625 -3.507812 L 18.886719 -32.878906 L 17.640625 -32.878906 L 7.710938 -4.847656 C 7.15625 -3.371094 6.1875 -1.476562 3.832031 -1.476562 L 2.125 -1.476562 Z M 2.125 0 "/></g></g></g><g fill="#292929" fill-opacity="1"><g transform="translate(205.645677, 195.907823)"><g><path d="M 2.863281 0 L 27.660156 0 L 28.261719 -12.421875 L 27.105469 -12.421875 C 27.105469 -12.421875 26.597656 -6.742188 24.472656 -3.878906 C 23.089844 -2.078125 20.734375 -1.476562 19.394531 -1.476562 L 12.929688 -1.476562 C 12.050781 -1.476562 11.683594 -1.894531 11.683594 -2.722656 L 11.683594 -30.152344 C 11.683594 -31.03125 12.050781 -31.402344 12.929688 -31.402344 L 16.992188 -31.402344 L 16.992188 -32.878906 L 2.863281 -32.878906 L 2.863281 -31.402344 L 6.1875 -31.402344 C 7.066406 -31.402344 7.433594 -31.03125 7.433594 -30.152344 L 7.433594 -2.722656 C 7.433594 -1.894531 7.066406 -1.476562 6.1875 -1.476562 L 2.863281 -1.476562 Z M 2.863281 0 "/></g></g></g><g fill="#292929" fill-opacity="1"><g transform="translate(236.580851, 195.907823)"><g><path d="M 12.285156 -11.359375 L 16.945312 -25.351562 L 21.75 -11.359375 Z M 2.125 0 L 14.777344 0 L 14.777344 -1.476562 L 12.328125 -1.476562 C 10.4375 -1.476562 9.972656 -2.910156 9.972656 -3.925781 C 9.972656 -4.710938 10.296875 -5.773438 10.621094 -6.695312 L 11.683594 -9.699219 L 22.351562 -9.699219 L 24.429688 -3.648438 C 24.566406 -3.324219 24.613281 -2.910156 24.613281 -2.632812 C 24.613281 -2.03125 23.921875 -1.476562 22.996094 -1.476562 L 19.949219 -1.476562 L 19.949219 0 L 34.265625 0 L 34.265625 -1.476562 L 31.679688 -1.476562 C 30.429688 -1.476562 29.554688 -1.894531 28.90625 -3.507812 L 18.886719 -32.878906 L 17.640625 -32.878906 L 7.710938 -4.847656 C 7.15625 -3.371094 6.1875 -1.476562 3.832031 -1.476562 L 2.125 -1.476562 Z M 2.125 0 "/></g></g></g></svg>