<svg xmlns="http://www.w3.org/2000/svg" xmlns:xlink="http://www.w3.org/1999/xlink" width="25" zoomAndPan="magnify" viewBox="0 0 37.5 37.499999" height="25" preserveAspectRatio="xMidYMid meet" version="1.0"><path fill="#000000" d="M 25.679688 20.847656 C 25.679688 21.078125 25.867188 21.265625 26.097656 21.265625 C 26.328125 21.265625 26.511719 21.078125 26.511719 20.847656 C 26.511719 17.585938 25.191406 14.636719 23.054688 12.5 C 20.917969 10.363281 17.96875 9.042969 14.707031 9.042969 C 14.476562 9.042969 14.292969 9.230469 14.292969 9.457031 C 14.292969 9.6875 14.476562 9.875 14.707031 9.875 C 17.738281 9.875 20.480469 11.105469 22.464844 13.089844 C 24.453125 15.074219 25.679688 17.816406 25.679688 20.847656 Z M 25.679688 20.847656 " fill-opacity="1" fill-rule="nonzero"/><path fill="#000000" d="M 30.164062 20.207031 C 30.164062 20.4375 30.351562 20.625 30.582031 20.625 C 30.8125 20.625 31 20.4375 31 20.207031 C 31 15.886719 29.246094 11.972656 26.414062 9.140625 C 23.582031 6.308594 19.667969 4.558594 15.347656 4.558594 C 15.117188 4.558594 14.929688 4.742188 14.929688 4.972656 C 14.929688 5.203125 15.117188 5.390625 15.347656 5.390625 C 19.4375 5.390625 23.144531 7.046875 25.824219 9.730469 C 28.507812 12.410156 30.164062 16.117188 30.164062 20.207031 Z M 30.164062 20.207031 " fill-opacity="1" fill-rule="nonzero"/><path fill="#000000" d="M 34.722656 19.675781 C 34.722656 19.90625 34.910156 20.09375 35.140625 20.09375 C 35.367188 20.09375 35.554688 19.90625 35.554688 19.675781 C 35.554688 14.242188 33.351562 9.324219 29.792969 5.761719 C 26.230469 2.203125 21.3125 0 15.878906 0 C 15.648438 0 15.460938 0.1875 15.460938 0.417969 C 15.460938 0.648438 15.648438 0.832031 15.878906 0.832031 C 21.082031 0.832031 25.792969 2.941406 29.203125 6.351562 C 32.613281 9.761719 34.722656 14.472656 34.722656 19.675781 Z M 34.722656 19.675781 " fill-opacity="1" fill-rule="nonzero"/><path fill="#000000" d="M 8.398438 16.523438 C 8.050781 16.128906 7.738281 15.800781 7.484375 15.53125 C 7.472656 15.519531 7.464844 15.511719 7.457031 15.5 C 6.851562 14.859375 6.535156 14.519531 6.542969 14.074219 C 6.550781 13.574219 6.9375 13.246094 7.746094 12.5625 C 7.976562 12.367188 8.242188 12.140625 8.515625 11.902344 C 9.074219 11.410156 9.539062 11.054688 9.90625 10.773438 C 10.144531 10.59375 10.339844 10.441406 10.484375 10.316406 C 10.894531 9.953125 10.738281 9.714844 9.695312 8.527344 L 4.769531 2.917969 C -0.0390625 7.394531 -0.03125 13.589844 2.609375 19.316406 C 3.929688 22.175781 5.90625 24.925781 8.269531 27.289062 C 10.632812 29.652344 13.378906 31.625 16.238281 32.945312 C 21.964844 35.585938 28.164062 35.59375 32.636719 30.785156 L 27.03125 25.859375 C 25.839844 24.816406 25.601562 24.660156 25.238281 25.074219 C 25.113281 25.214844 24.964844 25.410156 24.78125 25.648438 C 24.5 26.015625 24.144531 26.480469 23.652344 27.039062 C 23.414062 27.3125 23.1875 27.582031 22.992188 27.8125 C 22.308594 28.617188 21.980469 29.007812 21.480469 29.011719 C 21.027344 29.019531 20.683594 28.695312 20.023438 28.070312 L 20.308594 27.769531 L 20.023438 28.070312 C 20.011719 28.0625 20.003906 28.050781 19.996094 28.039062 C 19.738281 27.796875 19.421875 27.5 19.003906 27.132812 L 19.277344 26.820312 L 19.003906 27.132812 C 18.996094 27.128906 18.992188 27.121094 18.984375 27.117188 L 8.4375 16.570312 C 8.425781 16.554688 8.410156 16.542969 8.398438 16.523438 Z M 7.789062 15.246094 L 8.089844 14.960938 C 8.339844 15.226562 8.648438 15.550781 9.023438 15.976562 L 19.574219 26.527344 C 19.964844 26.871094 20.292969 27.179688 20.5625 27.4375 C 20.574219 27.445312 20.585938 27.457031 20.597656 27.464844 L 20.59375 27.464844 C 21.09375 27.9375 21.355469 28.183594 21.472656 28.183594 C 21.589844 28.179688 21.839844 27.886719 22.355469 27.273438 C 22.539062 27.058594 22.746094 26.8125 23.027344 26.492188 C 23.496094 25.960938 23.84375 25.507812 24.121094 25.144531 C 24.308594 24.898438 24.464844 24.695312 24.613281 24.527344 C 25.488281 23.527344 25.859375 23.726562 27.578125 25.234375 L 33.476562 30.417969 C 33.484375 30.425781 33.496094 30.433594 33.503906 30.441406 C 33.675781 30.59375 33.691406 30.855469 33.539062 31.027344 C 28.753906 36.472656 22.054688 36.542969 15.890625 33.699219 C 12.9375 32.339844 10.109375 30.304688 7.679688 27.875 C 5.25 25.449219 3.21875 22.617188 1.855469 19.664062 C -0.984375 13.511719 -0.917969 6.824219 4.5 2.042969 C 4.507812 2.03125 4.515625 2.023438 4.527344 2.015625 C 4.699219 1.863281 4.964844 1.878906 5.113281 2.050781 L 4.800781 2.328125 L 5.113281 2.054688 L 10.320312 7.980469 C 11.828125 9.695312 12.027344 10.066406 11.03125 10.941406 C 10.859375 11.09375 10.65625 11.246094 10.410156 11.433594 C 10.050781 11.710938 9.59375 12.0625 9.0625 12.527344 C 8.742188 12.808594 8.496094 13.019531 8.28125 13.199219 C 7.667969 13.71875 7.375 13.96875 7.371094 14.085938 C 7.371094 14.199219 7.605469 14.449219 8.058594 14.929688 C 8.070312 14.9375 8.078125 14.949219 8.089844 14.960938 Z M 7.789062 15.246094 " fill-opacity="1" fill-rule="nonzero"/></svg>