<?xml version="1.0" standalone="no"?>
<!DOCTYPE svg PUBLIC "-//W3C//DTD SVG 20010904//EN"
 "http://www.w3.org/TR/2001/REC-SVG-20010904/DTD/svg10.dtd">
<svg version="1.0" xmlns="http://www.w3.org/2000/svg"
 width="700.000000pt" height="700.000000pt" viewBox="0 0 700.000000 700.000000"
 preserveAspectRatio="xMidYMid meet">
<metadata>
Created by potrace 1.14, written by Peter Selinger 2001-2017
</metadata>
<g transform="translate(0.000000,700.000000) scale(0.100000,-0.100000)"
fill="#000000" stroke="none">
<path d="M572 5918 l3 -33 155 -5 c129 -5 163 -9 201 -27 59 -27 94 -73 116
-154 17 -60 18 -180 18 -2124 0 -1998 -1 -2062 -19 -2129 -15 -55 -28 -79 -60
-111 -57 -56 -97 -67 -269 -72 l-148 -5 3 -32 3 -31 788 -3 787 -2 0 35 0 35
-113 0 c-177 0 -273 34 -314 113 -46 88 -47 101 -50 882 l-4 740 202 297 c111
164 203 297 205 295 1 -1 212 -393 469 -872 566 -1054 593 -1100 749 -1291
l25 -31 -34 -40 c-59 -69 -115 -86 -292 -91 l-153 -4 0 -34 0 -34 695 0 695 0
0 35 c0 30 -3 35 -22 35 -80 0 -208 109 -314 265 -74 109 -294 486 -294 504 0
15 218 845 231 879 l9 22 709 0 c390 0 712 -4 715 -8 3 -4 75 -282 161 -618
85 -335 167 -651 180 -703 31 -117 33 -200 4 -251 -40 -71 -109 -90 -329 -90
l-150 0 0 -35 0 -35 740 0 740 0 0 34 0 33 -82 6 c-46 3 -101 11 -123 17 -61
18 -117 83 -153 177 -26 67 -253 878 -1106 3943 l-152 545 -222 3 c-122 1
-222 0 -222 -3 0 -10 -1001 -3819 -1004 -3822 -2 -2 -24 31 -49 74 -24 43
-277 482 -561 976 l-516 899 402 571 c669 953 757 1070 871 1153 69 51 136 75
236 83 l76 6 3 33 3 32 -560 0 -561 0 0 -35 0 -35 128 0 c303 0 412 -39 412
-147 0 -63 -40 -143 -167 -333 -83 -126 -1570 -2257 -1590 -2279 -2 -3 -2 566
0 1265 2 1138 4 1274 19 1322 25 81 49 114 103 142 45 23 64 25 200 30 l150 5
3 33 3 32 -791 0 -791 0 3 -32z m4487 -2203 c100 -385 181 -705 181 -712 0
-10 -140 -13 -690 -13 -576 0 -690 2 -690 14 0 12 348 1353 530 2041 44 165
96 374 115 465 20 91 39 173 42 184 3 10 78 -274 168 -630 90 -357 245 -964
344 -1349z"/>
</g>
</svg>
