<svg xmlns="http://www.w3.org/2000/svg" xmlns:xlink="http://www.w3.org/1999/xlink" width="596" zoomAndPan="magnify" viewBox="0 0 446.88 183.750001" height="245" preserveAspectRatio="xMidYMid meet" version="1.0"><defs><clipPath id="9b38ee35fa"><path d="M 108 0 L 446.515625 0 L 446.515625 183.5 L 108 183.5 Z M 108 0 " clip-rule="nonzero"/></clipPath><clipPath id="9887d1e0a5"><path d="M 0.242188 75 L 207 75 L 207 81 L 0.242188 81 Z M 0.242188 75 " clip-rule="nonzero"/></clipPath><clipPath id="ba9adafa7e"><path d="M 0.242188 39 L 20 39 L 20 45 L 0.242188 45 Z M 0.242188 39 " clip-rule="nonzero"/></clipPath></defs><path fill="#000000" d="M 352.113281 47.460938 C 351.789062 47.460938 351.476562 47.523438 351.175781 47.648438 C 350.875 47.773438 350.613281 47.949219 350.382812 48.179688 C 350.152344 48.40625 349.976562 48.671875 349.851562 48.972656 C 349.726562 49.269531 349.664062 49.582031 349.664062 49.90625 L 349.664062 91.933594 C 349.664062 92.261719 349.726562 92.570312 349.851562 92.871094 C 349.972656 93.171875 350.152344 93.4375 350.382812 93.664062 C 350.609375 93.894531 350.875 94.070312 351.175781 94.195312 C 351.476562 94.320312 351.789062 94.382812 352.113281 94.382812 L 352.121094 94.382812 L 414.292969 94.09375 C 414.492188 94.09375 414.691406 94.070312 414.886719 94.019531 C 415.082031 93.96875 415.265625 93.898438 415.445312 93.804688 C 415.621094 93.707031 415.785156 93.59375 415.933594 93.457031 C 416.082031 93.320312 416.210938 93.171875 416.320312 93.003906 C 416.433594 92.835938 416.523438 92.65625 416.589844 92.46875 C 416.65625 92.277344 416.699219 92.082031 416.71875 91.882812 C 416.738281 91.683594 416.734375 91.484375 416.703125 91.285156 C 416.671875 91.085938 416.617188 90.894531 416.542969 90.710938 C 415.890625 89.125 415.183594 87.5625 414.414062 86.03125 C 413.648438 84.496094 412.828125 82.992188 411.949219 81.519531 C 411.074219 80.046875 410.144531 78.609375 409.160156 77.203125 C 408.175781 75.796875 407.140625 74.433594 406.058594 73.101562 C 404.972656 71.773438 403.839844 70.488281 402.660156 69.242188 C 401.484375 68 400.257812 66.796875 398.992188 65.644531 C 397.722656 64.488281 396.414062 63.382812 395.0625 62.324219 C 393.714844 61.265625 392.328125 60.257812 390.902344 59.304688 C 389.480469 58.347656 388.023438 57.445312 386.53125 56.597656 C 385.039062 55.75 383.519531 54.957031 381.972656 54.21875 C 380.421875 53.484375 378.847656 52.804688 377.25 52.183594 C 375.648438 51.5625 374.027344 51.003906 372.386719 50.503906 C 370.746094 50.003906 369.089844 49.5625 367.417969 49.183594 C 365.746094 48.804688 364.058594 48.488281 362.363281 48.234375 C 360.667969 47.980469 358.960938 47.789062 357.253906 47.660156 C 355.542969 47.53125 353.828125 47.464844 352.113281 47.460938 Z M 354.558594 89.480469 L 354.558594 52.398438 C 357.5 52.503906 360.414062 52.808594 363.3125 53.3125 C 366.207031 53.820312 369.054688 54.519531 371.855469 55.410156 C 374.65625 56.304688 377.382812 57.386719 380.035156 58.652344 C 382.691406 59.917969 385.242188 61.359375 387.699219 62.976562 C 390.152344 64.59375 392.488281 66.367188 394.699219 68.300781 C 396.910156 70.238281 398.980469 72.3125 400.910156 74.53125 C 402.835938 76.75 404.605469 79.089844 406.210938 81.546875 C 407.820312 84.007812 409.253906 86.566406 410.511719 89.222656 Z M 354.558594 89.480469 " fill-opacity="1" fill-rule="nonzero"/><path fill="#000000" d="M 155.246094 149.054688 C 154.660156 149.054688 154.078125 149.113281 153.503906 149.226562 C 152.925781 149.34375 152.367188 149.511719 151.828125 149.734375 C 151.285156 149.960938 150.769531 150.234375 150.28125 150.5625 C 149.796875 150.886719 149.34375 151.257812 148.929688 151.671875 C 148.515625 152.085938 148.144531 152.535156 147.820312 153.023438 C 147.492188 153.511719 147.21875 154.023438 146.992188 154.566406 C 146.769531 155.109375 146.601562 155.667969 146.484375 156.242188 C 146.371094 156.816406 146.3125 157.394531 146.3125 157.980469 C 146.316406 158.566406 146.371094 159.148438 146.484375 159.722656 C 146.601562 160.296875 146.769531 160.855469 146.996094 161.398438 C 147.21875 161.9375 147.496094 162.453125 147.820312 162.941406 C 148.144531 163.429688 148.515625 163.878906 148.929688 164.292969 C 149.347656 164.707031 149.796875 165.078125 150.285156 165.402344 C 150.773438 165.726562 151.289062 166.003906 151.828125 166.226562 C 152.371094 166.453125 152.929688 166.621094 153.503906 166.734375 C 154.078125 166.847656 154.660156 166.90625 155.246094 166.90625 C 155.832031 166.90625 156.414062 166.847656 156.988281 166.734375 C 157.566406 166.621094 158.125 166.453125 158.664062 166.226562 C 159.207031 166.003906 159.722656 165.726562 160.210938 165.402344 C 160.695312 165.078125 161.148438 164.707031 161.5625 164.292969 C 161.976562 163.878906 162.347656 163.425781 162.671875 162.941406 C 163 162.453125 163.273438 161.9375 163.5 161.398438 C 163.722656 160.855469 163.894531 160.296875 164.007812 159.722656 C 164.121094 159.148438 164.179688 158.566406 164.179688 157.980469 C 164.179688 157.394531 164.121094 156.816406 164.003906 156.242188 C 163.890625 155.664062 163.722656 155.109375 163.496094 154.566406 C 163.269531 154.027344 162.996094 153.511719 162.671875 153.023438 C 162.34375 152.539062 161.972656 152.085938 161.558594 151.671875 C 161.144531 151.257812 160.695312 150.886719 160.207031 150.5625 C 159.71875 150.238281 159.203125 149.960938 158.664062 149.738281 C 158.121094 149.511719 157.5625 149.34375 156.988281 149.230469 C 156.414062 149.113281 155.832031 149.054688 155.246094 149.054688 Z M 155.246094 162.015625 C 154.980469 162.015625 154.71875 161.988281 154.457031 161.9375 C 154.199219 161.886719 153.945312 161.808594 153.699219 161.707031 C 153.457031 161.605469 153.222656 161.480469 153.003906 161.335938 C 152.78125 161.1875 152.578125 161.019531 152.390625 160.832031 C 152.203125 160.644531 152.035156 160.441406 151.890625 160.222656 C 151.742188 160 151.617188 159.769531 151.515625 159.523438 C 151.414062 159.277344 151.339844 159.027344 151.289062 158.765625 C 151.234375 158.507812 151.210938 158.246094 151.210938 157.980469 C 151.210938 157.714844 151.234375 157.453125 151.289062 157.191406 C 151.339844 156.933594 151.414062 156.679688 151.515625 156.4375 C 151.617188 156.191406 151.742188 155.960938 151.890625 155.738281 C 152.039062 155.519531 152.207031 155.316406 152.394531 155.128906 C 152.582031 154.941406 152.785156 154.773438 153.003906 154.625 C 153.226562 154.480469 153.457031 154.355469 153.703125 154.253906 C 153.949219 154.152344 154.199219 154.078125 154.460938 154.023438 C 154.71875 153.972656 154.980469 153.949219 155.246094 153.949219 C 155.511719 153.949219 155.773438 153.972656 156.035156 154.023438 C 156.292969 154.078125 156.546875 154.152344 156.792969 154.253906 C 157.035156 154.355469 157.269531 154.480469 157.488281 154.628906 C 157.710938 154.773438 157.914062 154.941406 158.101562 155.128906 C 158.289062 155.316406 158.457031 155.519531 158.601562 155.742188 C 158.75 155.960938 158.875 156.191406 158.976562 156.4375 C 159.078125 156.683594 159.152344 156.933594 159.207031 157.195312 C 159.257812 157.453125 159.285156 157.714844 159.285156 157.980469 C 159.28125 158.246094 159.257812 158.507812 159.203125 158.769531 C 159.152344 159.027344 159.078125 159.28125 158.976562 159.523438 C 158.875 159.769531 158.75 160 158.601562 160.222656 C 158.453125 160.441406 158.285156 160.644531 158.097656 160.832031 C 157.910156 161.019531 157.707031 161.1875 157.488281 161.335938 C 157.265625 161.480469 157.035156 161.605469 156.789062 161.707031 C 156.542969 161.808594 156.292969 161.886719 156.03125 161.9375 C 155.773438 161.988281 155.511719 162.015625 155.246094 162.015625 Z M 155.246094 162.015625 " fill-opacity="1" fill-rule="nonzero"/><path fill="#000000" d="M 391.394531 149.4375 C 390.808594 149.4375 390.226562 149.492188 389.652344 149.605469 C 389.078125 149.722656 388.519531 149.890625 387.976562 150.113281 C 387.433594 150.339844 386.917969 150.613281 386.433594 150.9375 C 385.945312 151.265625 385.492188 151.632812 385.078125 152.050781 C 384.664062 152.464844 384.292969 152.914062 383.964844 153.402344 C 383.640625 153.890625 383.363281 154.402344 383.140625 154.945312 C 382.914062 155.488281 382.746094 156.042969 382.632812 156.621094 C 382.515625 157.195312 382.460938 157.773438 382.460938 158.363281 C 382.460938 158.949219 382.515625 159.527344 382.628906 160.101562 C 382.746094 160.679688 382.914062 161.238281 383.140625 161.777344 C 383.363281 162.320312 383.636719 162.835938 383.964844 163.320312 C 384.289062 163.808594 384.660156 164.261719 385.074219 164.675781 C 385.488281 165.089844 385.941406 165.460938 386.429688 165.785156 C 386.917969 166.109375 387.429688 166.386719 387.972656 166.609375 C 388.515625 166.835938 389.074219 167.003906 389.648438 167.117188 C 390.226562 167.234375 390.804688 167.289062 391.390625 167.289062 C 391.980469 167.289062 392.558594 167.234375 393.136719 167.121094 C 393.710938 167.003906 394.269531 166.835938 394.8125 166.609375 C 395.355469 166.386719 395.867188 166.113281 396.355469 165.785156 C 396.84375 165.460938 397.296875 165.089844 397.710938 164.675781 C 398.125 164.261719 398.496094 163.8125 398.820312 163.324219 C 399.148438 162.835938 399.421875 162.320312 399.648438 161.78125 C 399.871094 161.238281 400.042969 160.679688 400.15625 160.105469 C 400.269531 159.53125 400.328125 158.949219 400.328125 158.363281 C 400.328125 157.777344 400.269531 157.199219 400.152344 156.621094 C 400.039062 156.046875 399.867188 155.492188 399.644531 154.949219 C 399.417969 154.410156 399.144531 153.894531 398.820312 153.40625 C 398.492188 152.921875 398.121094 152.46875 397.707031 152.054688 C 397.292969 151.640625 396.84375 151.269531 396.355469 150.945312 C 395.867188 150.621094 395.355469 150.34375 394.8125 150.121094 C 394.269531 149.894531 393.710938 149.726562 393.136719 149.609375 C 392.5625 149.496094 391.984375 149.4375 391.394531 149.4375 Z M 391.394531 162.398438 C 391.132812 162.398438 390.867188 162.375 390.609375 162.320312 C 390.347656 162.269531 390.09375 162.195312 389.851562 162.09375 C 389.605469 161.992188 389.371094 161.867188 389.152344 161.71875 C 388.929688 161.574219 388.726562 161.40625 388.539062 161.21875 C 388.351562 161.03125 388.183594 160.828125 388.035156 160.605469 C 387.890625 160.386719 387.765625 160.15625 387.664062 159.910156 C 387.5625 159.664062 387.484375 159.414062 387.433594 159.152344 C 387.378906 158.894531 387.355469 158.628906 387.355469 158.367188 C 387.355469 158.101562 387.378906 157.835938 387.433594 157.578125 C 387.484375 157.316406 387.558594 157.066406 387.660156 156.820312 C 387.761719 156.574219 387.886719 156.34375 388.035156 156.121094 C 388.179688 155.902344 388.347656 155.699219 388.535156 155.511719 C 388.722656 155.324219 388.929688 155.15625 389.148438 155.007812 C 389.367188 154.859375 389.601562 154.738281 389.847656 154.636719 C 390.089844 154.535156 390.34375 154.457031 390.605469 154.40625 C 390.863281 154.355469 391.128906 154.328125 391.390625 154.328125 C 391.65625 154.328125 391.921875 154.351562 392.179688 154.40625 C 392.441406 154.457031 392.691406 154.535156 392.9375 154.632812 C 393.183594 154.734375 393.414062 154.859375 393.636719 155.007812 C 393.855469 155.15625 394.0625 155.320312 394.25 155.507812 C 394.4375 155.695312 394.605469 155.902344 394.75 156.121094 C 394.898438 156.339844 395.023438 156.574219 395.125 156.820312 C 395.226562 157.0625 395.300781 157.316406 395.355469 157.574219 C 395.40625 157.835938 395.433594 158.097656 395.433594 158.363281 C 395.429688 158.628906 395.40625 158.890625 395.355469 159.148438 C 395.300781 159.410156 395.226562 159.660156 395.125 159.90625 C 395.023438 160.152344 394.898438 160.382812 394.75 160.601562 C 394.601562 160.824219 394.4375 161.027344 394.25 161.214844 C 394.0625 161.402344 393.859375 161.570312 393.636719 161.714844 C 393.417969 161.863281 393.183594 161.988281 392.941406 162.089844 C 392.695312 162.191406 392.441406 162.269531 392.183594 162.320312 C 391.921875 162.371094 391.660156 162.398438 391.394531 162.398438 Z M 391.394531 162.398438 " fill-opacity="1" fill-rule="nonzero"/><g clip-path="url(#9b38ee35fa)"><path fill="#000000" d="M 416.792969 59.390625 C 397.234375 39.359375 369.605469 28.046875 338.90625 27.476562 L 338.90625 2.445312 C 338.902344 2.121094 338.84375 1.808594 338.71875 1.511719 C 338.59375 1.210938 338.417969 0.945312 338.1875 0.71875 C 337.957031 0.488281 337.691406 0.3125 337.394531 0.1875 C 337.09375 0.0625 336.78125 0 336.457031 0 L 108.285156 0 L 108.285156 4.890625 L 334.007812 4.890625 L 334.007812 155.535156 L 184.546875 155.535156 C 184.472656 154.632812 184.355469 153.738281 184.195312 152.851562 C 184.035156 151.960938 183.835938 151.082031 183.59375 150.210938 C 183.355469 149.339844 183.074219 148.484375 182.753906 147.640625 C 182.433594 146.796875 182.074219 145.96875 181.675781 145.15625 C 181.277344 144.347656 180.84375 143.554688 180.371094 142.785156 C 179.902344 142.015625 179.394531 141.269531 178.855469 140.542969 C 178.3125 139.820312 177.738281 139.125 177.132812 138.453125 C 176.527344 137.785156 175.894531 137.144531 175.226562 136.53125 C 174.5625 135.921875 173.871094 135.34375 173.152344 134.796875 C 172.433594 134.25 171.6875 133.738281 170.921875 133.257812 C 170.15625 132.78125 169.367188 132.339844 168.558594 131.933594 C 167.753906 131.53125 166.925781 131.164062 166.085938 130.835938 C 165.242188 130.507812 164.386719 130.21875 163.519531 129.972656 C 162.652344 129.722656 161.773438 129.515625 160.882812 129.347656 C 159.996094 129.183594 159.101562 129.054688 158.203125 128.972656 C 157.300781 128.890625 156.402344 128.847656 155.496094 128.847656 C 154.59375 128.847656 153.691406 128.890625 152.792969 128.972656 C 151.890625 129.054688 151 129.183594 150.109375 129.347656 C 149.222656 129.515625 148.34375 129.722656 147.476562 129.972656 C 146.605469 130.21875 145.75 130.507812 144.910156 130.835938 C 144.066406 131.164062 143.242188 131.53125 142.433594 131.933594 C 141.625 132.339844 140.839844 132.78125 140.070312 133.257812 C 139.304688 133.738281 138.5625 134.25 137.84375 134.796875 C 137.125 135.34375 136.429688 135.921875 135.765625 136.53125 C 135.101562 137.144531 134.464844 137.785156 133.859375 138.453125 C 133.253906 139.125 132.679688 139.820312 132.140625 140.542969 C 131.597656 141.269531 131.09375 142.015625 130.621094 142.785156 C 130.152344 143.554688 129.714844 144.347656 129.320312 145.15625 C 128.921875 145.96875 128.5625 146.796875 128.242188 147.640625 C 127.921875 148.484375 127.640625 149.339844 127.398438 150.210938 C 127.15625 151.082031 126.957031 151.960938 126.796875 152.851562 C 126.640625 153.738281 126.523438 154.632812 126.445312 155.535156 L 108.285156 155.535156 L 108.285156 160.425781 L 128.792969 160.425781 C 129.226562 160.421875 129.628906 160.3125 130.003906 160.089844 C 130.070312 160.875 130.171875 161.65625 130.308594 162.433594 C 130.449219 163.210938 130.621094 163.980469 130.832031 164.738281 C 131.042969 165.5 131.289062 166.246094 131.570312 166.984375 C 131.851562 167.722656 132.164062 168.445312 132.511719 169.152344 C 132.859375 169.859375 133.242188 170.550781 133.652344 171.222656 C 134.066406 171.894531 134.507812 172.546875 134.984375 173.175781 C 135.457031 173.808594 135.957031 174.414062 136.488281 175 C 137.019531 175.582031 137.574219 176.140625 138.160156 176.671875 C 138.742188 177.207031 139.347656 177.710938 139.976562 178.183594 C 140.605469 178.660156 141.257812 179.105469 141.929688 179.519531 C 142.601562 179.933594 143.289062 180.316406 143.996094 180.667969 C 144.703125 181.015625 145.425781 181.332031 146.164062 181.617188 C 146.898438 181.898438 147.648438 182.148438 148.40625 182.359375 C 149.167969 182.574219 149.9375 182.75 150.710938 182.890625 C 151.488281 183.03125 152.269531 183.136719 153.058594 183.203125 C 153.84375 183.273438 154.632812 183.304688 155.421875 183.300781 C 156.210938 183.292969 156.996094 183.25 157.78125 183.171875 C 158.566406 183.09375 159.347656 182.976562 160.121094 182.824219 C 160.894531 182.675781 161.660156 182.488281 162.417969 182.261719 C 163.175781 182.039062 163.921875 181.78125 164.652344 181.488281 C 165.386719 181.195312 166.105469 180.871094 166.804688 180.507812 C 167.507812 180.148438 168.191406 179.757812 168.859375 179.332031 C 169.523438 178.910156 170.167969 178.457031 170.789062 177.972656 C 171.414062 177.488281 172.011719 176.976562 172.589844 176.433594 C 173.164062 175.894531 173.710938 175.328125 174.234375 174.738281 C 174.757812 174.148438 175.25 173.53125 175.714844 172.894531 C 176.179688 172.257812 176.613281 171.601562 177.015625 170.921875 C 177.421875 170.246094 177.792969 169.550781 178.128906 168.835938 C 178.46875 168.125 178.773438 167.398438 179.042969 166.65625 C 179.3125 165.914062 179.546875 165.164062 179.746094 164.402344 C 179.949219 163.636719 180.113281 162.867188 180.238281 162.089844 C 180.367188 161.308594 180.457031 160.527344 180.511719 159.742188 C 180.984375 160.195312 181.546875 160.425781 182.203125 160.425781 L 364.6875 160.425781 C 365.226562 160.421875 365.710938 160.261719 366.140625 159.9375 C 366.203125 160.722656 366.296875 161.503906 366.433594 162.28125 C 366.566406 163.058594 366.734375 163.824219 366.941406 164.585938 C 367.148438 165.347656 367.386719 166.097656 367.664062 166.835938 C 367.9375 167.574219 368.25 168.296875 368.589844 169.007812 C 368.933594 169.71875 369.3125 170.410156 369.71875 171.085938 C 370.128906 171.757812 370.566406 172.414062 371.035156 173.046875 C 371.503906 173.679688 372.003906 174.289062 372.527344 174.878906 C 373.054688 175.464844 373.605469 176.027344 374.1875 176.5625 C 374.765625 177.097656 375.367188 177.605469 375.992188 178.082031 C 376.621094 178.5625 377.265625 179.011719 377.933594 179.429688 C 378.605469 179.847656 379.289062 180.234375 379.996094 180.589844 C 380.699219 180.945312 381.417969 181.265625 382.152344 181.554688 C 382.886719 181.84375 383.632812 182.09375 384.390625 182.3125 C 385.148438 182.53125 385.914062 182.710938 386.691406 182.859375 C 387.464844 183.003906 388.246094 183.117188 389.03125 183.1875 C 389.816406 183.261719 390.605469 183.300781 391.394531 183.300781 C 392.179688 183.300781 392.96875 183.261719 393.753906 183.1875 C 394.539062 183.117188 395.320312 183.003906 396.09375 182.859375 C 396.871094 182.714844 397.636719 182.53125 398.394531 182.3125 C 399.152344 182.09375 399.898438 181.84375 400.632812 181.554688 C 401.367188 181.269531 402.085938 180.945312 402.792969 180.59375 C 403.496094 180.238281 404.183594 179.851562 404.851562 179.429688 C 405.519531 179.011719 406.167969 178.5625 406.792969 178.085938 C 407.417969 177.605469 408.019531 177.097656 408.601562 176.5625 C 409.179688 176.027344 409.730469 175.464844 410.257812 174.878906 C 410.785156 174.292969 411.28125 173.679688 411.75 173.046875 C 412.222656 172.414062 412.660156 171.761719 413.066406 171.085938 C 413.476562 170.410156 413.851562 169.71875 414.195312 169.007812 C 414.539062 168.300781 414.847656 167.574219 415.125 166.835938 C 415.398438 166.097656 415.640625 165.347656 415.847656 164.589844 C 416.050781 163.828125 416.222656 163.058594 416.355469 162.28125 C 416.488281 161.503906 416.585938 160.722656 416.648438 159.9375 C 417.078125 160.261719 417.558594 160.421875 418.097656 160.425781 L 442.925781 160.425781 C 443.214844 160.425781 443.492188 160.375 443.761719 160.277344 C 444.03125 160.179688 444.273438 160.039062 444.492188 159.855469 C 444.714844 159.675781 444.894531 159.457031 445.039062 159.210938 C 445.183594 158.964844 445.28125 158.699219 445.335938 158.417969 C 446.585938 151.574219 447.210938 144.675781 447.210938 137.71875 C 447.210938 107.292969 436.410156 79.476562 416.792969 59.390625 Z M 155.246094 178.40625 C 154.574219 178.40625 153.90625 178.375 153.242188 178.308594 C 152.574219 178.242188 151.914062 178.144531 151.257812 178.015625 C 150.601562 177.886719 149.953125 177.722656 149.3125 177.527344 C 148.671875 177.335938 148.039062 177.109375 147.421875 176.851562 C 146.804688 176.597656 146.199219 176.3125 145.609375 175.996094 C 145.019531 175.679688 144.445312 175.335938 143.886719 174.964844 C 143.332031 174.59375 142.792969 174.195312 142.277344 173.773438 C 141.757812 173.347656 141.261719 172.898438 140.789062 172.425781 C 140.316406 171.953125 139.867188 171.457031 139.441406 170.941406 C 139.019531 170.421875 138.621094 169.886719 138.246094 169.332031 C 137.875 168.773438 137.53125 168.199219 137.214844 167.609375 C 136.898438 167.019531 136.613281 166.417969 136.359375 165.796875 C 136.101562 165.179688 135.875 164.550781 135.683594 163.910156 C 135.488281 163.269531 135.324219 162.621094 135.195312 161.96875 C 135.0625 161.3125 134.964844 160.648438 134.898438 159.984375 C 134.835938 159.316406 134.800781 158.652344 134.800781 157.980469 C 134.800781 157.3125 134.835938 156.644531 134.898438 155.980469 C 134.964844 155.3125 135.0625 154.652344 135.195312 153.996094 C 135.324219 153.339844 135.488281 152.691406 135.683594 152.050781 C 135.875 151.410156 136.101562 150.78125 136.359375 150.164062 C 136.613281 149.546875 136.898438 148.941406 137.214844 148.351562 C 137.53125 147.761719 137.875 147.1875 138.246094 146.632812 C 138.617188 146.078125 139.015625 145.539062 139.441406 145.023438 C 139.867188 144.503906 140.316406 144.011719 140.789062 143.539062 C 141.261719 143.066406 141.757812 142.617188 142.277344 142.191406 C 142.792969 141.765625 143.332031 141.367188 143.886719 140.996094 C 144.445312 140.625 145.015625 140.28125 145.609375 139.964844 C 146.199219 139.652344 146.800781 139.367188 147.421875 139.109375 C 148.039062 138.855469 148.667969 138.628906 149.308594 138.433594 C 149.949219 138.238281 150.597656 138.078125 151.253906 137.945312 C 151.914062 137.816406 152.574219 137.71875 153.238281 137.652344 C 153.90625 137.585938 154.574219 137.554688 155.242188 137.554688 C 155.914062 137.554688 156.582031 137.585938 157.246094 137.652344 C 157.914062 137.71875 158.574219 137.816406 159.230469 137.945312 C 159.886719 138.078125 160.539062 138.238281 161.179688 138.433594 C 161.820312 138.628906 162.449219 138.851562 163.066406 139.109375 C 163.683594 139.367188 164.289062 139.652344 164.878906 139.964844 C 165.46875 140.28125 166.042969 140.625 166.601562 140.996094 C 167.15625 141.367188 167.695312 141.765625 168.210938 142.191406 C 168.730469 142.617188 169.226562 143.0625 169.699219 143.539062 C 170.171875 144.011719 170.621094 144.503906 171.046875 145.023438 C 171.46875 145.539062 171.867188 146.078125 172.242188 146.632812 C 172.613281 147.1875 172.957031 147.761719 173.273438 148.351562 C 173.585938 148.941406 173.875 149.546875 174.128906 150.164062 C 174.386719 150.78125 174.613281 151.410156 174.804688 152.050781 C 175 152.691406 175.164062 153.339844 175.292969 153.996094 C 175.421875 154.652344 175.523438 155.3125 175.585938 155.980469 C 175.652344 156.644531 175.6875 157.3125 175.6875 157.980469 C 175.683594 158.648438 175.652344 159.316406 175.585938 159.984375 C 175.519531 160.648438 175.421875 161.308594 175.289062 161.964844 C 175.160156 162.621094 174.996094 163.269531 174.800781 163.90625 C 174.605469 164.546875 174.378906 165.175781 174.125 165.792969 C 173.867188 166.410156 173.582031 167.015625 173.265625 167.605469 C 172.949219 168.195312 172.605469 168.769531 172.234375 169.324219 C 171.863281 169.878906 171.464844 170.417969 171.039062 170.933594 C 170.613281 171.449219 170.164062 171.945312 169.691406 172.417969 C 169.21875 172.890625 168.722656 173.339844 168.207031 173.765625 C 167.6875 174.1875 167.152344 174.585938 166.597656 174.957031 C 166.039062 175.328125 165.464844 175.671875 164.875 175.988281 C 164.285156 176.304688 163.683594 176.589844 163.0625 176.847656 C 162.445312 177.101562 161.816406 177.328125 161.175781 177.523438 C 160.535156 177.71875 159.886719 177.878906 159.230469 178.011719 C 158.574219 178.140625 157.914062 178.242188 157.246094 178.308594 C 156.582031 178.375 155.914062 178.40625 155.246094 178.40625 Z M 391.390625 178.40625 C 390.722656 178.40625 390.054688 178.375 389.390625 178.308594 C 388.722656 178.242188 388.0625 178.144531 387.402344 178.015625 C 386.746094 177.886719 386.097656 177.722656 385.457031 177.527344 C 384.816406 177.335938 384.1875 177.109375 383.570312 176.851562 C 382.949219 176.597656 382.347656 176.3125 381.757812 175.996094 C 381.164062 175.679688 380.59375 175.335938 380.035156 174.964844 C 379.480469 174.59375 378.941406 174.195312 378.425781 173.769531 C 377.90625 173.347656 377.410156 172.898438 376.9375 172.425781 C 376.464844 171.953125 376.015625 171.457031 375.589844 170.941406 C 375.164062 170.421875 374.765625 169.886719 374.394531 169.328125 C 374.023438 168.773438 373.679688 168.199219 373.363281 167.609375 C 373.046875 167.019531 372.761719 166.417969 372.507812 165.796875 C 372.25 165.179688 372.023438 164.550781 371.832031 163.910156 C 371.636719 163.269531 371.472656 162.621094 371.34375 161.964844 C 371.210938 161.308594 371.113281 160.648438 371.046875 159.984375 C 370.984375 159.316406 370.949219 158.648438 370.949219 157.980469 C 370.949219 157.3125 370.984375 156.644531 371.046875 155.980469 C 371.113281 155.3125 371.210938 154.652344 371.34375 153.996094 C 371.472656 153.339844 371.636719 152.691406 371.832031 152.050781 C 372.023438 151.410156 372.25 150.78125 372.507812 150.164062 C 372.761719 149.546875 373.046875 148.941406 373.363281 148.351562 C 373.679688 147.761719 374.023438 147.1875 374.394531 146.632812 C 374.765625 146.078125 375.164062 145.539062 375.589844 145.023438 C 376.015625 144.503906 376.464844 144.011719 376.9375 143.539062 C 377.410156 143.0625 377.90625 142.617188 378.425781 142.191406 C 378.941406 141.765625 379.480469 141.367188 380.035156 140.996094 C 380.59375 140.625 381.164062 140.28125 381.757812 139.964844 C 382.347656 139.652344 382.949219 139.367188 383.570312 139.109375 C 384.1875 138.855469 384.816406 138.628906 385.457031 138.433594 C 386.097656 138.238281 386.746094 138.078125 387.40625 137.945312 C 388.0625 137.816406 388.722656 137.71875 389.390625 137.652344 C 390.054688 137.585938 390.722656 137.554688 391.390625 137.554688 C 392.0625 137.554688 392.730469 137.585938 393.394531 137.652344 C 394.0625 137.71875 394.722656 137.816406 395.378906 137.945312 C 396.035156 138.078125 396.6875 138.238281 397.328125 138.433594 C 397.96875 138.628906 398.597656 138.855469 399.214844 139.109375 C 399.832031 139.367188 400.4375 139.652344 401.027344 139.964844 C 401.621094 140.28125 402.191406 140.625 402.75 140.996094 C 403.304688 141.367188 403.84375 141.765625 404.359375 142.191406 C 404.878906 142.617188 405.375 143.0625 405.847656 143.539062 C 406.320312 144.011719 406.769531 144.503906 407.195312 145.023438 C 407.617188 145.539062 408.015625 146.078125 408.390625 146.632812 C 408.761719 147.1875 409.105469 147.761719 409.421875 148.351562 C 409.734375 148.941406 410.023438 149.546875 410.277344 150.164062 C 410.535156 150.78125 410.761719 151.410156 410.953125 152.050781 C 411.148438 152.691406 411.3125 153.339844 411.441406 153.996094 C 411.570312 154.652344 411.671875 155.3125 411.734375 155.980469 C 411.800781 156.644531 411.835938 157.3125 411.835938 157.980469 C 411.832031 158.648438 411.800781 159.316406 411.734375 159.984375 C 411.667969 160.648438 411.570312 161.308594 411.4375 161.964844 C 411.308594 162.621094 411.144531 163.269531 410.949219 163.910156 C 410.753906 164.546875 410.527344 165.175781 410.273438 165.792969 C 410.015625 166.414062 409.730469 167.015625 409.414062 167.605469 C 409.097656 168.195312 408.753906 168.769531 408.382812 169.324219 C 408.011719 169.878906 407.613281 170.417969 407.1875 170.933594 C 406.761719 171.449219 406.3125 171.945312 405.839844 172.417969 C 405.367188 172.890625 404.871094 173.339844 404.355469 173.765625 C 403.835938 174.1875 403.300781 174.585938 402.742188 174.957031 C 402.1875 175.332031 401.613281 175.671875 401.023438 175.988281 C 400.433594 176.304688 399.828125 176.589844 399.210938 176.847656 C 398.59375 177.101562 397.964844 177.328125 397.324219 177.523438 C 396.683594 177.71875 396.035156 177.878906 395.378906 178.011719 C 394.722656 178.144531 394.0625 178.242188 393.394531 178.308594 C 392.730469 178.375 392.0625 178.40625 391.390625 178.40625 Z M 440.867188 155.535156 L 420.445312 155.535156 C 420.367188 154.632812 420.25 153.738281 420.089844 152.851562 C 419.933594 151.960938 419.730469 151.082031 419.492188 150.210938 C 419.25 149.339844 418.96875 148.484375 418.648438 147.640625 C 418.328125 146.796875 417.96875 145.96875 417.570312 145.15625 C 417.171875 144.347656 416.738281 143.554688 416.269531 142.785156 C 415.796875 142.015625 415.289062 141.269531 414.75 140.542969 C 414.207031 139.820312 413.636719 139.125 413.03125 138.453125 C 412.425781 137.785156 411.789062 137.144531 411.125 136.53125 C 410.457031 135.921875 409.765625 135.34375 409.046875 134.796875 C 408.328125 134.25 407.585938 133.738281 406.816406 133.257812 C 406.050781 132.78125 405.265625 132.339844 404.457031 131.933594 C 403.648438 131.53125 402.824219 131.164062 401.980469 130.835938 C 401.140625 130.507812 400.285156 130.21875 399.414062 129.972656 C 398.546875 129.722656 397.667969 129.515625 396.78125 129.347656 C 395.890625 129.183594 395 129.054688 394.097656 128.972656 C 393.199219 128.890625 392.296875 128.847656 391.394531 128.847656 C 390.488281 128.847656 389.589844 128.890625 388.6875 128.972656 C 387.789062 129.054688 386.894531 129.183594 386.007812 129.347656 C 385.117188 129.515625 384.238281 129.722656 383.371094 129.972656 C 382.503906 130.21875 381.648438 130.507812 380.804688 130.835938 C 379.964844 131.164062 379.136719 131.53125 378.332031 131.933594 C 377.523438 132.339844 376.734375 132.78125 375.96875 133.257812 C 375.203125 133.738281 374.457031 134.25 373.738281 134.796875 C 373.019531 135.34375 372.328125 135.921875 371.664062 136.53125 C 370.996094 137.144531 370.363281 137.785156 369.757812 138.453125 C 369.152344 139.125 368.578125 139.820312 368.035156 140.542969 C 367.496094 141.269531 366.988281 142.015625 366.519531 142.785156 C 366.046875 143.554688 365.613281 144.347656 365.214844 145.15625 C 364.816406 145.96875 364.457031 146.796875 364.136719 147.640625 C 363.816406 148.484375 363.535156 149.339844 363.296875 150.210938 C 363.054688 151.082031 362.855469 151.960938 362.695312 152.851562 C 362.535156 153.738281 362.417969 154.632812 362.34375 155.535156 L 338.90625 155.535156 L 338.90625 32.363281 C 398.882812 33.53125 442.316406 77.6875 442.316406 137.71875 C 442.3125 143.695312 441.832031 149.632812 440.867188 155.535156 Z M 440.867188 155.535156 " fill-opacity="1" fill-rule="nonzero"/></g><g clip-path="url(#9887d1e0a5)"><path fill="#000000" d="M 206.132812 77.769531 C 206.132812 77.445312 206.070312 77.132812 205.945312 76.832031 C 205.820312 76.535156 205.644531 76.269531 205.414062 76.039062 C 205.183594 75.8125 204.921875 75.632812 204.621094 75.511719 C 204.320312 75.386719 204.007812 75.324219 203.683594 75.324219 L 2.847656 75.324219 C 2.523438 75.324219 2.210938 75.382812 1.910156 75.507812 C 1.609375 75.632812 1.34375 75.808594 1.113281 76.039062 C 0.882812 76.265625 0.703125 76.53125 0.578125 76.832031 C 0.453125 77.132812 0.390625 77.445312 0.390625 77.769531 C 0.390625 78.09375 0.453125 78.40625 0.578125 78.707031 C 0.703125 79.007812 0.882812 79.273438 1.113281 79.5 C 1.34375 79.730469 1.609375 79.90625 1.910156 80.03125 C 2.210938 80.15625 2.523438 80.214844 2.847656 80.214844 L 203.683594 80.214844 C 204.007812 80.214844 204.320312 80.152344 204.621094 80.03125 C 204.921875 79.90625 205.183594 79.726562 205.414062 79.5 C 205.644531 79.269531 205.820312 79.003906 205.945312 78.707031 C 206.070312 78.40625 206.132812 78.09375 206.132812 77.769531 Z M 206.132812 77.769531 " fill-opacity="1" fill-rule="nonzero"/></g><path fill="#000000" d="M 148.761719 114.050781 C 148.761719 113.726562 148.699219 113.414062 148.574219 113.117188 C 148.449219 112.816406 148.273438 112.550781 148.042969 112.320312 C 147.8125 112.09375 147.546875 111.914062 147.25 111.792969 C 146.949219 111.667969 146.636719 111.605469 146.3125 111.605469 L 37.992188 111.605469 C 37.667969 111.605469 37.355469 111.667969 37.058594 111.792969 C 36.757812 111.914062 36.492188 112.09375 36.261719 112.320312 C 36.035156 112.550781 35.855469 112.816406 35.734375 113.117188 C 35.609375 113.414062 35.546875 113.726562 35.546875 114.050781 C 35.546875 114.375 35.609375 114.6875 35.734375 114.988281 C 35.855469 115.289062 36.035156 115.550781 36.261719 115.78125 C 36.492188 116.011719 36.757812 116.1875 37.058594 116.3125 C 37.355469 116.433594 37.667969 116.496094 37.992188 116.496094 L 146.3125 116.496094 C 146.636719 116.496094 146.949219 116.433594 147.25 116.3125 C 147.546875 116.1875 147.8125 116.011719 148.042969 115.78125 C 148.273438 115.550781 148.449219 115.289062 148.574219 114.988281 C 148.699219 114.6875 148.761719 114.375 148.761719 114.050781 Z M 148.761719 114.050781 " fill-opacity="1" fill-rule="nonzero"/><path fill="#000000" d="M 29.207031 44.277344 L 155.246094 44.277344 C 155.570312 44.277344 155.882812 44.214844 156.183594 44.09375 C 156.484375 43.96875 156.75 43.792969 156.980469 43.5625 C 157.210938 43.332031 157.390625 43.066406 157.511719 42.769531 C 157.636719 42.46875 157.699219 42.15625 157.699219 41.828125 C 157.699219 41.503906 157.636719 41.191406 157.511719 40.890625 C 157.390625 40.59375 157.210938 40.328125 156.980469 40.097656 C 156.75 39.867188 156.484375 39.691406 156.183594 39.566406 C 155.882812 39.445312 155.570312 39.382812 155.246094 39.382812 L 29.207031 39.382812 C 28.882812 39.382812 28.570312 39.445312 28.269531 39.566406 C 27.96875 39.691406 27.703125 39.867188 27.472656 40.097656 C 27.242188 40.328125 27.0625 40.59375 26.9375 40.890625 C 26.8125 41.191406 26.75 41.503906 26.75 41.828125 C 26.75 42.15625 26.8125 42.46875 26.9375 42.769531 C 27.0625 43.066406 27.242188 43.332031 27.472656 43.5625 C 27.703125 43.792969 27.96875 43.96875 28.269531 44.09375 C 28.570312 44.214844 28.882812 44.277344 29.207031 44.277344 Z M 29.207031 44.277344 " fill-opacity="1" fill-rule="nonzero"/><g clip-path="url(#ba9adafa7e)"><path fill="#000000" d="M 2.847656 44.277344 L 16.65625 44.277344 C 16.980469 44.277344 17.292969 44.214844 17.59375 44.09375 C 17.894531 43.96875 18.160156 43.792969 18.390625 43.5625 C 18.621094 43.332031 18.796875 43.066406 18.921875 42.769531 C 19.046875 42.46875 19.109375 42.15625 19.109375 41.828125 C 19.109375 41.503906 19.046875 41.191406 18.921875 40.890625 C 18.796875 40.59375 18.621094 40.328125 18.390625 40.097656 C 18.160156 39.867188 17.894531 39.691406 17.59375 39.566406 C 17.292969 39.445312 16.980469 39.382812 16.65625 39.382812 L 2.847656 39.382812 C 2.523438 39.382812 2.210938 39.445312 1.910156 39.566406 C 1.609375 39.691406 1.34375 39.867188 1.113281 40.097656 C 0.882812 40.328125 0.703125 40.59375 0.578125 40.890625 C 0.453125 41.191406 0.390625 41.503906 0.390625 41.828125 C 0.390625 42.15625 0.453125 42.46875 0.578125 42.769531 C 0.703125 43.066406 0.882812 43.332031 1.113281 43.5625 C 1.34375 43.792969 1.609375 43.96875 1.910156 44.09375 C 2.210938 44.214844 2.523438 44.277344 2.847656 44.277344 Z M 2.847656 44.277344 " fill-opacity="1" fill-rule="nonzero"/></g></svg>