<svg xmlns="http://www.w3.org/2000/svg" xmlns:xlink="http://www.w3.org/1999/xlink" width="488" zoomAndPan="magnify" viewBox="0 0 366 239.999995" height="320" preserveAspectRatio="xMidYMid meet" version="1.0"><path fill="#000000" d="M 345.03125 0.625 L 20.65625 0.625 C 19.976562 0.625 19.296875 0.660156 18.621094 0.726562 C 17.945312 0.792969 17.269531 0.894531 16.601562 1.027344 C 15.9375 1.160156 15.277344 1.324219 14.625 1.523438 C 13.972656 1.722656 13.332031 1.949219 12.707031 2.210938 C 12.078125 2.472656 11.460938 2.761719 10.863281 3.082031 C 10.261719 3.402344 9.679688 3.753906 9.113281 4.132812 C 8.546875 4.507812 8 4.914062 7.472656 5.347656 C 6.949219 5.777344 6.445312 6.234375 5.964844 6.714844 C 5.480469 7.195312 5.023438 7.699219 4.59375 8.222656 C 4.160156 8.75 3.757812 9.296875 3.378906 9.859375 C 3 10.425781 2.648438 11.007812 2.328125 11.609375 C 2.007812 12.207031 1.714844 12.820312 1.457031 13.449219 C 1.195312 14.078125 0.964844 14.71875 0.769531 15.367188 C 0.570312 16.019531 0.402344 16.675781 0.269531 17.34375 C 0.136719 18.011719 0.0351562 18.683594 -0.03125 19.359375 C -0.0976562 20.035156 -0.132812 20.714844 -0.132812 21.394531 L -0.132812 218.914062 C -0.132812 219.59375 -0.0976562 220.269531 -0.03125 220.949219 C 0.0351562 221.625 0.136719 222.296875 0.269531 222.964844 C 0.402344 223.628906 0.570312 224.289062 0.769531 224.941406 C 0.964844 225.589844 1.195312 226.230469 1.457031 226.859375 C 1.714844 227.484375 2.007812 228.101562 2.328125 228.699219 C 2.648438 229.300781 3 229.882812 3.378906 230.445312 C 3.757812 231.011719 4.160156 231.558594 4.59375 232.082031 C 5.023438 232.609375 5.480469 233.113281 5.964844 233.59375 C 6.445312 234.074219 6.949219 234.53125 7.472656 234.960938 C 8 235.394531 8.546875 235.796875 9.113281 236.175781 C 9.679688 236.554688 10.261719 236.902344 10.863281 237.222656 C 11.460938 237.542969 12.078125 237.835938 12.707031 238.097656 C 13.332031 238.355469 13.972656 238.585938 14.625 238.785156 C 15.277344 238.980469 15.9375 239.148438 16.601562 239.28125 C 17.269531 239.414062 17.945312 239.515625 18.621094 239.582031 C 19.296875 239.648438 19.976562 239.683594 20.65625 239.683594 L 345.03125 239.683594 C 345.710938 239.683594 346.390625 239.648438 347.070312 239.582031 C 347.746094 239.515625 348.417969 239.414062 349.085938 239.28125 C 349.753906 239.148438 350.414062 238.980469 351.066406 238.785156 C 351.714844 238.585938 352.355469 238.359375 352.984375 238.097656 C 353.613281 237.835938 354.226562 237.546875 354.828125 237.226562 C 355.429688 236.902344 356.011719 236.554688 356.578125 236.175781 C 357.144531 235.800781 357.691406 235.394531 358.214844 234.960938 C 358.742188 234.53125 359.246094 234.074219 359.726562 233.59375 C 360.210938 233.113281 360.664062 232.609375 361.097656 232.085938 C 361.53125 231.558594 361.933594 231.011719 362.3125 230.449219 C 362.691406 229.882812 363.042969 229.300781 363.363281 228.699219 C 363.683594 228.101562 363.976562 227.488281 364.234375 226.859375 C 364.496094 226.230469 364.726562 225.589844 364.925781 224.941406 C 365.121094 224.289062 365.289062 223.628906 365.421875 222.964844 C 365.554688 222.296875 365.65625 221.625 365.722656 220.949219 C 365.789062 220.269531 365.824219 219.59375 365.824219 218.914062 L 365.824219 21.394531 C 365.824219 20.714844 365.789062 20.035156 365.722656 19.359375 C 365.65625 18.683594 365.554688 18.011719 365.421875 17.34375 C 365.289062 16.675781 365.121094 16.019531 364.925781 15.367188 C 364.726562 14.714844 364.496094 14.078125 364.234375 13.449219 C 363.976562 12.820312 363.683594 12.207031 363.363281 11.605469 C 363.042969 11.007812 362.691406 10.425781 362.3125 9.859375 C 361.933594 9.292969 361.53125 8.75 361.097656 8.222656 C 360.664062 7.699219 360.210938 7.195312 359.726562 6.714844 C 359.246094 6.230469 358.742188 5.777344 358.214844 5.34375 C 357.691406 4.914062 357.144531 4.507812 356.578125 4.128906 C 356.011719 3.753906 355.429688 3.402344 354.828125 3.082031 C 354.226562 2.761719 353.613281 2.472656 352.984375 2.210938 C 352.355469 1.949219 351.714844 1.722656 351.066406 1.523438 C 350.414062 1.324219 349.753906 1.160156 349.085938 1.027344 C 348.417969 0.894531 347.746094 0.792969 347.070312 0.726562 C 346.390625 0.660156 345.710938 0.625 345.03125 0.625 Z M 240.359375 120.152344 L 354.5625 18.453125 C 354.875 19.40625 355.039062 20.386719 355.054688 21.394531 L 355.054688 218.914062 C 355.039062 219.917969 354.875 220.898438 354.5625 221.855469 Z M 345.019531 11.386719 C 345.402344 11.402344 345.78125 11.441406 346.15625 11.5 L 189.476562 151.027344 C 189.023438 151.429688 188.535156 151.792969 188.015625 152.109375 C 187.496094 152.425781 186.949219 152.691406 186.382812 152.90625 C 185.8125 153.125 185.230469 153.289062 184.628906 153.398438 C 184.03125 153.507812 183.425781 153.5625 182.820312 153.5625 C 182.210938 153.5625 181.605469 153.507812 181.007812 153.398438 C 180.40625 153.289062 179.824219 153.125 179.253906 152.90625 C 178.6875 152.691406 178.140625 152.425781 177.621094 152.109375 C 177.101562 151.792969 176.613281 151.429688 176.160156 151.027344 L 19.523438 11.5 C 19.898438 11.441406 20.277344 11.402344 20.65625 11.386719 Z M 11.132812 221.855469 C 10.820312 220.898438 10.65625 219.917969 10.640625 218.914062 L 10.640625 21.394531 C 10.65625 20.386719 10.820312 19.40625 11.132812 18.453125 L 125.332031 120.152344 Z M 20.65625 228.929688 C 20.277344 228.914062 19.898438 228.875 19.523438 228.816406 L 133.417969 127.371094 L 169.023438 159.0625 C 169.964844 159.902344 170.976562 160.652344 172.058594 161.308594 C 173.136719 161.960938 174.269531 162.515625 175.449219 162.964844 C 176.628906 163.414062 177.84375 163.753906 179.085938 163.984375 C 180.328125 164.210938 181.582031 164.328125 182.847656 164.328125 C 184.109375 164.328125 185.363281 164.210938 186.605469 163.984375 C 187.851562 163.753906 189.0625 163.414062 190.242188 162.964844 C 191.425781 162.515625 192.554688 161.960938 193.636719 161.308594 C 194.714844 160.652344 195.726562 159.902344 196.671875 159.0625 L 232.265625 127.363281 L 346.160156 228.804688 C 345.785156 228.867188 345.402344 228.902344 345.023438 228.917969 Z M 20.65625 228.929688 " fill-opacity="1" fill-rule="nonzero"/></svg>