<svg xmlns="http://www.w3.org/2000/svg" xmlns:xlink="http://www.w3.org/1999/xlink" width="50" zoomAndPan="magnify" viewBox="0 0 37.5 36.75" height="49" preserveAspectRatio="xMidYMid meet" version="1.0"><defs><clipPath id="f19e66692f"><path d="M 0 5 L 28 5 L 28 36.386719 L 0 36.386719 Z M 0 5 " clip-rule="nonzero"/></clipPath><clipPath id="ec025bb45d"><path d="M 8 0.117188 L 37.007812 0.117188 L 37.007812 34 L 8 34 Z M 8 0.117188 " clip-rule="nonzero"/></clipPath></defs><g clip-path="url(#f19e66692f)"><path fill="#000000" d="M 5.984375 36.855469 C 5.628906 36.855469 5.285156 36.707031 5.039062 36.4375 C 4.699219 36.0625 4.609375 35.519531 4.808594 35.058594 L 6.59375 30.890625 C 2.398438 27.585938 0.00390625 22.769531 0.00390625 17.59375 C 0.00390625 13 1.890625 8.664062 5.320312 5.378906 C 5.605469 5.109375 6.050781 5.121094 6.316406 5.40625 C 6.585938 5.6875 6.574219 6.140625 6.292969 6.410156 C 3.144531 9.421875 1.410156 13.394531 1.410156 17.59375 C 1.410156 22.496094 3.769531 27.050781 7.878906 30.089844 C 8.144531 30.285156 8.238281 30.640625 8.109375 30.945312 L 6.222656 35.347656 L 13.359375 33 C 13.492188 32.957031 13.632812 32.953125 13.765625 32.988281 C 15.382812 33.4375 17.058594 33.667969 18.742188 33.667969 C 21.601562 33.667969 24.433594 33.007812 26.933594 31.765625 C 27.28125 31.589844 27.703125 31.734375 27.878906 32.085938 C 28.050781 32.441406 27.90625 32.867188 27.558594 33.039062 C 24.863281 34.378906 21.816406 35.089844 18.742188 35.089844 C 17.003906 35.089844 15.273438 34.863281 13.597656 34.417969 L 6.378906 36.792969 C 6.25 36.835938 6.113281 36.855469 5.984375 36.855469 Z M 5.984375 36.855469 " fill-opacity="1" fill-rule="nonzero"/></g><g clip-path="url(#ec025bb45d)"><path fill="#000000" d="M 27.246094 33.113281 C 26.984375 33.113281 26.734375 32.96875 26.613281 32.714844 C 26.441406 32.363281 26.585938 31.9375 26.933594 31.765625 C 32.574219 28.957031 36.082031 23.527344 36.082031 17.597656 C 36.082031 8.734375 28.296875 1.527344 18.730469 1.527344 C 16.671875 1.527344 14.65625 1.859375 12.746094 2.511719 C 12.375 2.636719 11.976562 2.4375 11.851562 2.0625 C 11.726562 1.691406 11.925781 1.289062 12.292969 1.164062 C 14.351562 0.460938 16.515625 0.105469 18.730469 0.105469 C 23.726562 0.105469 28.433594 1.917969 31.972656 5.207031 C 35.53125 8.511719 37.492188 12.914062 37.492188 17.597656 C 37.492188 24.074219 33.683594 29.992188 27.558594 33.039062 C 27.457031 33.089844 27.351562 33.113281 27.246094 33.113281 Z M 8.921875 4.222656 C 8.683594 4.222656 8.449219 4.097656 8.316406 3.875 C 8.117188 3.539062 8.226562 3.101562 8.558594 2.902344 L 8.617188 2.867188 C 8.953125 2.664062 9.386719 2.777344 9.585938 3.113281 C 9.785156 3.453125 9.671875 3.886719 9.339844 4.089844 L 9.285156 4.121094 C 9.171875 4.191406 9.046875 4.222656 8.921875 4.222656 Z M 8.921875 4.222656 " fill-opacity="1" fill-rule="nonzero"/></g><path fill="#000000" d="M 20.511719 23.507812 C 19.949219 23.507812 19.410156 23.273438 19.027344 22.863281 L 15.773438 19.375 L 8.804688 23.203125 C 8.660156 23.28125 8.496094 23.324219 8.335938 23.324219 C 8.03125 23.324219 7.742188 23.179688 7.558594 22.9375 C 7.261719 22.550781 7.289062 22.011719 7.625 21.65625 L 15.335938 13.429688 C 15.71875 13.027344 16.253906 12.789062 16.808594 12.789062 C 16.808594 12.789062 16.816406 12.789062 16.820312 12.789062 C 17.371094 12.789062 17.902344 13.015625 18.285156 13.417969 L 21.652344 16.933594 L 28.535156 13.109375 C 28.675781 13.027344 28.839844 12.988281 29.003906 12.988281 C 29.304688 12.988281 29.585938 13.125 29.773438 13.367188 C 30.066406 13.753906 30.039062 14.289062 29.710938 14.640625 L 21.992188 22.867188 C 21.609375 23.273438 21.070312 23.507812 20.511719 23.507812 Z M 15.914062 17.777344 C 16.101562 17.777344 16.289062 17.855469 16.425781 18.003906 L 20.054688 21.886719 C 20.171875 22.015625 20.339844 22.085938 20.511719 22.085938 L 20.511719 22.796875 L 20.511719 22.085938 C 20.683594 22.085938 20.851562 22.015625 20.96875 21.886719 L 26.757812 15.71875 L 21.859375 18.441406 C 21.578125 18.597656 21.230469 18.542969 21.011719 18.3125 L 17.273438 14.40625 C 17.152344 14.28125 16.988281 14.210938 16.820312 14.210938 C 16.644531 14.210938 16.480469 14.285156 16.363281 14.410156 L 10.511719 20.644531 L 15.578125 17.867188 C 15.683594 17.808594 15.796875 17.777344 15.914062 17.777344 Z M 15.914062 17.777344 " fill-opacity="1" fill-rule="nonzero"/></svg>