<svg xmlns="http://www.w3.org/2000/svg" xmlns:xlink="http://www.w3.org/1999/xlink" width="1000" zoomAndPan="magnify" viewBox="0 0 750 749.999995" height="1000" preserveAspectRatio="xMidYMid meet" version="1.0"><path fill="#3d5a98" d="M 708.554688 749.945312 C 731.40625 749.945312 749.941406 731.414062 749.941406 708.554688 L 749.941406 41.390625 C 749.941406 18.527344 731.410156 0 708.554688 0 L 41.390625 0 C 18.523438 0 0 18.527344 0 41.390625 L 0 708.554688 C 0 731.414062 18.523438 749.945312 41.390625 749.945312 Z M 708.554688 749.945312 " fill-opacity="1" fill-rule="nonzero"/><path fill="#ffffff" d="M 517.445312 749.945312 L 517.445312 459.527344 L 614.925781 459.527344 L 629.523438 346.347656 L 517.445312 346.347656 L 517.445312 274.085938 C 517.445312 241.316406 526.542969 218.984375 573.539062 218.984375 L 633.472656 218.957031 L 633.472656 117.726562 C 623.105469 116.351562 587.527344 113.269531 546.140625 113.269531 C 459.726562 113.269531 400.570312 166.011719 400.570312 262.878906 L 400.570312 346.34375 L 302.835938 346.34375 L 302.835938 459.527344 L 400.566406 459.527344 L 400.566406 749.945312 Z M 517.445312 749.945312 " fill-opacity="1" fill-rule="nonzero"/></svg>