<svg xmlns="http://www.w3.org/2000/svg" xmlns:xlink="http://www.w3.org/1999/xlink" width="28" zoomAndPan="magnify" viewBox="0 0 37.5 37.499999" height="28" preserveAspectRatio="xMidYMid meet" version="1.0"><defs><clipPath id="62a4ee4eb9"><path d="M 0 0 L 37.007812 0 L 37.007812 37.007812 L 0 37.007812 Z M 0 0 " clip-rule="nonzero"/></clipPath></defs><g clip-path="url(#62a4ee4eb9)"><path fill="#252525" d="M 34.855469 3.636719 C 34.511719 3.238281 33.941406 3.816406 34.28125 4.210938 C 35.734375 5.898438 36.578125 8.019531 36.679688 10.246094 C 36.703125 10.738281 36.6875 11.234375 36.6875 11.726562 C 36.6875 13.988281 36.6875 16.246094 36.6875 18.507812 C 36.6875 20.84375 36.6875 23.175781 36.6875 25.511719 C 36.6875 25.953125 36.6875 26.398438 36.6875 26.84375 C 36.6875 28.578125 36.226562 30.277344 35.363281 31.78125 C 33.628906 34.804688 30.308594 36.683594 26.835938 36.683594 C 25.320312 36.683594 23.804688 36.683594 22.289062 36.683594 C 19.691406 36.683594 17.097656 36.683594 14.5 36.683594 C 13.035156 36.683594 11.554688 36.742188 10.089844 36.667969 C 6.421875 36.488281 3.164062 34.140625 1.65625 30.828125 C 1.078125 29.554688 0.820312 28.152344 0.820312 26.757812 C 0.820312 26.175781 0.820312 25.589844 0.820312 25.003906 C 0.820312 20.449219 0.820312 15.890625 0.820312 11.335938 C 0.820312 10.617188 0.820312 9.902344 0.925781 9.191406 C 1.191406 7.402344 1.96875 5.710938 3.125 4.328125 C 5.0625 2.019531 7.902344 0.820312 10.886719 0.820312 C 15.28125 0.820312 19.675781 0.820312 24.070312 0.820312 C 25.988281 0.820312 27.921875 0.699219 29.777344 1.261719 C 30.28125 1.414062 30.492188 0.632812 29.996094 0.480469 C 28.082031 -0.0976562 26.105469 0.0078125 24.132812 0.0078125 C 21.59375 0.0078125 19.054688 0.0078125 16.515625 0.0078125 C 14.644531 0.0078125 12.777344 0.0078125 10.90625 0.0078125 C 7.945312 0.0078125 5.148438 1.085938 3.054688 3.203125 C 1 5.277344 0.0078125 8.0625 0.0078125 10.953125 C 0.0078125 12.855469 0.0078125 14.761719 0.0078125 16.667969 C 0.0078125 19.199219 0.0078125 21.726562 0.0078125 24.257812 C 0.0078125 26.011719 -0.0859375 27.785156 0.34375 29.503906 C 1.222656 33.015625 3.960938 35.847656 7.375 36.980469 C 9.171875 37.578125 11.03125 37.496094 12.890625 37.496094 C 17.394531 37.496094 21.894531 37.496094 26.394531 37.496094 C 27.296875 37.496094 28.1875 37.445312 29.074219 37.261719 C 30.835938 36.902344 32.472656 36.050781 33.835938 34.886719 C 36.210938 32.851562 37.5 29.816406 37.5 26.714844 C 37.5 22.394531 37.5 18.074219 37.5 13.753906 C 37.5 12.75 37.5 11.75 37.5 10.746094 C 37.5 8.121094 36.570312 5.621094 34.855469 3.636719 " fill-opacity="1" fill-rule="nonzero"/></g><path fill="#252525" d="M 31.523438 2 C 32.128906 2.332031 32.699219 2.71875 33.226562 3.164062 C 33.621094 3.5 34.199219 2.929688 33.800781 2.589844 C 33.21875 2.097656 32.601562 1.664062 31.933594 1.296875 C 31.476562 1.042969 31.066406 1.746094 31.523438 2 " fill-opacity="1" fill-rule="nonzero"/><path fill="#252525" d="M 21.476562 26.929688 C 17.964844 28.113281 13.988281 26.816406 11.800781 23.839844 C 9.585938 20.828125 9.636719 16.679688 11.800781 13.664062 C 13.96875 10.640625 17.972656 9.445312 21.476562 10.578125 C 24.980469 11.710938 27.34375 15.105469 27.367188 18.753906 C 27.34375 22.433594 24.972656 25.75 21.476562 26.929688 Z M 22.691406 10.1875 C 19.320312 8.628906 15.300781 9.265625 12.511719 11.691406 C 9.726562 14.109375 8.675781 18.085938 9.761719 21.585938 C 10.835938 25.042969 13.941406 27.628906 17.519531 28.09375 C 20.226562 28.449219 22.941406 27.601562 24.996094 25.816406 C 27.023438 24.050781 28.164062 21.425781 28.179688 18.753906 C 28.15625 15.097656 26.015625 11.722656 22.691406 10.1875 " fill-opacity="1" fill-rule="nonzero"/><path fill="#252525" d="M 28.773438 10.273438 C 27.984375 10.296875 27.386719 9.617188 27.363281 8.863281 C 27.339844 8.078125 28.023438 7.476562 28.773438 7.453125 C 29.558594 7.429688 30.160156 8.113281 30.183594 8.863281 C 30.160156 9.652344 29.558594 10.25 28.773438 10.273438 Z M 28.773438 6.640625 C 27.539062 6.605469 26.585938 7.683594 26.550781 8.863281 C 26.515625 10.101562 27.59375 11.050781 28.773438 11.085938 C 29.984375 11.121094 30.921875 10.089844 30.992188 8.9375 C 30.996094 8.914062 30.996094 8.890625 30.996094 8.863281 C 30.996094 8.839844 30.996094 8.816406 30.992188 8.792969 C 30.921875 7.59375 29.984375 6.679688 28.773438 6.640625 " fill-opacity="1" fill-rule="nonzero"/></svg>