<svg xmlns="http://www.w3.org/2000/svg" xmlns:xlink="http://www.w3.org/1999/xlink" width="1000" zoomAndPan="magnify" viewBox="0 0 750 749.999995" height="1000" preserveAspectRatio="xMidYMid meet" version="1.0"><path fill="#000000" d="M 208.332031 0 C 93.292969 0 0 93.292969 0 208.332031 L 0 541.667969 C 0 656.707031 93.292969 750 208.332031 750 L 541.667969 750 C 656.707031 750 750 656.707031 750 541.667969 L 750 208.332031 C 750 93.292969 656.707031 0 541.667969 0 Z M 625 83.332031 C 648 83.332031 666.667969 102 666.667969 125 C 666.667969 148 648 166.667969 625 166.667969 C 602 166.667969 583.332031 148 583.332031 125 C 583.332031 102 602 83.332031 625 83.332031 Z M 375 166.667969 C 490.042969 166.667969 583.332031 259.957031 583.332031 375 C 583.332031 490.042969 490.042969 583.332031 375 583.332031 C 259.957031 583.332031 166.667969 490.042969 166.667969 375 C 166.667969 259.957031 259.957031 166.667969 375 166.667969 Z M 375 250 C 372.953125 250 370.910156 250.050781 368.867188 250.152344 C 366.824219 250.25 364.785156 250.402344 362.746094 250.601562 C 360.710938 250.800781 358.683594 251.054688 356.660156 251.351562 C 354.636719 251.652344 352.621094 252.003906 350.613281 252.402344 C 348.605469 252.800781 346.613281 253.25 344.628906 253.746094 C 342.644531 254.242188 340.671875 254.789062 338.714844 255.382812 C 336.757812 255.976562 334.816406 256.617188 332.890625 257.308594 C 330.960938 257.996094 329.054688 258.730469 327.164062 259.515625 C 325.273438 260.296875 323.40625 261.125 321.554688 262 C 319.707031 262.875 317.878906 263.796875 316.074219 264.761719 C 314.269531 265.722656 312.492188 266.730469 310.738281 267.785156 C 308.984375 268.835938 307.253906 269.929688 305.554688 271.066406 C 303.851562 272.203125 302.179688 273.378906 300.539062 274.597656 C 298.894531 275.816406 297.28125 277.074219 295.699219 278.375 C 294.121094 279.671875 292.570312 281.007812 291.054688 282.382812 C 289.539062 283.753906 288.058594 285.164062 286.613281 286.613281 C 285.164062 288.058594 283.753906 289.539062 282.382812 291.054688 C 281.007812 292.570312 279.671875 294.121094 278.375 295.699219 C 277.074219 297.28125 275.816406 298.894531 274.597656 300.539062 C 273.378906 302.179688 272.203125 303.851562 271.066406 305.554688 C 269.929688 307.253906 268.835938 308.984375 267.785156 310.738281 C 266.730469 312.492188 265.722656 314.269531 264.761719 316.074219 C 263.796875 317.878906 262.875 319.707031 262 321.554688 C 261.125 323.40625 260.296875 325.273438 259.515625 327.164062 C 258.730469 329.054688 257.996094 330.960938 257.308594 332.890625 C 256.617188 334.816406 255.976562 336.757812 255.382812 338.714844 C 254.789062 340.671875 254.242188 342.644531 253.746094 344.628906 C 253.25 346.613281 252.800781 348.605469 252.402344 350.613281 C 252.003906 352.621094 251.652344 354.636719 251.351562 356.660156 C 251.054688 358.683594 250.800781 360.710938 250.601562 362.746094 C 250.402344 364.785156 250.25 366.824219 250.152344 368.867188 C 250.050781 370.910156 250 372.953125 250 375 C 250 377.046875 250.050781 379.089844 250.152344 381.132812 C 250.25 383.175781 250.402344 385.214844 250.601562 387.253906 C 250.800781 389.289062 251.050781 391.316406 251.351562 393.339844 C 251.652344 395.363281 252.003906 397.378906 252.402344 399.386719 C 252.800781 401.394531 253.25 403.386719 253.746094 405.371094 C 254.242188 407.355469 254.789062 409.328125 255.382812 411.285156 C 255.976562 413.242188 256.617188 415.183594 257.308594 417.109375 C 257.996094 419.039062 258.730469 420.945312 259.515625 422.835938 C 260.296875 424.726562 261.125 426.59375 262 428.445312 C 262.875 430.292969 263.796875 432.121094 264.757812 433.925781 C 265.722656 435.730469 266.730469 437.507812 267.785156 439.261719 C 268.835938 441.015625 269.929688 442.746094 271.066406 444.445312 C 272.203125 446.148438 273.378906 447.820312 274.597656 449.460938 C 275.816406 451.105469 277.074219 452.71875 278.375 454.300781 C 279.671875 455.878906 281.007812 457.429688 282.382812 458.945312 C 283.753906 460.460938 285.164062 461.941406 286.613281 463.386719 C 288.058594 464.835938 289.539062 466.246094 291.054688 467.617188 C 292.570312 468.992188 294.121094 470.328125 295.699219 471.625 C 297.28125 472.925781 298.894531 474.183594 300.539062 475.402344 C 302.179688 476.621094 303.851562 477.796875 305.554688 478.933594 C 307.253906 480.070312 308.980469 481.164062 310.738281 482.214844 C 312.492188 483.269531 314.269531 484.277344 316.074219 485.238281 C 317.878906 486.203125 319.707031 487.125 321.554688 488 C 323.40625 488.875 325.273438 489.703125 327.164062 490.484375 C 329.054688 491.269531 330.960938 492.003906 332.886719 492.691406 C 334.816406 493.382812 336.757812 494.023438 338.714844 494.617188 C 340.671875 495.210938 342.644531 495.757812 344.628906 496.253906 C 346.613281 496.75 348.605469 497.199219 350.613281 497.597656 C 352.621094 497.996094 354.636719 498.347656 356.660156 498.648438 C 358.683594 498.945312 360.710938 499.199219 362.746094 499.398438 C 364.785156 499.597656 366.824219 499.75 368.867188 499.847656 C 370.910156 499.949219 372.953125 500 375 500 C 377.046875 500 379.089844 499.949219 381.132812 499.847656 C 383.175781 499.75 385.214844 499.597656 387.253906 499.398438 C 389.289062 499.199219 391.316406 498.945312 393.339844 498.648438 C 395.363281 498.347656 397.378906 497.996094 399.386719 497.597656 C 401.394531 497.199219 403.386719 496.75 405.371094 496.253906 C 407.355469 495.757812 409.328125 495.210938 411.285156 494.617188 C 413.242188 494.023438 415.183594 493.382812 417.109375 492.691406 C 419.039062 492.003906 420.945312 491.269531 422.835938 490.484375 C 424.726562 489.703125 426.59375 488.875 428.445312 488 C 430.292969 487.125 432.121094 486.203125 433.925781 485.238281 C 435.730469 484.277344 437.507812 483.269531 439.261719 482.214844 C 441.015625 481.164062 442.746094 480.070312 444.445312 478.933594 C 446.148438 477.796875 447.820312 476.621094 449.460938 475.402344 C 451.105469 474.183594 452.71875 472.925781 454.300781 471.625 C 455.878906 470.328125 457.429688 468.992188 458.945312 467.617188 C 460.460938 466.246094 461.941406 464.835938 463.386719 463.386719 C 464.835938 461.941406 466.246094 460.460938 467.617188 458.945312 C 468.992188 457.429688 470.328125 455.878906 471.625 454.300781 C 472.925781 452.71875 474.183594 451.105469 475.402344 449.460938 C 476.621094 447.820312 477.796875 446.148438 478.933594 444.445312 C 480.070312 442.746094 481.164062 441.015625 482.214844 439.261719 C 483.269531 437.507812 484.277344 435.730469 485.238281 433.925781 C 486.203125 432.121094 487.125 430.292969 488 428.445312 C 488.875 426.59375 489.703125 424.726562 490.484375 422.835938 C 491.269531 420.945312 492.003906 419.039062 492.691406 417.109375 C 493.382812 415.183594 494.023438 413.242188 494.617188 411.285156 C 495.210938 409.328125 495.757812 407.355469 496.253906 405.371094 C 496.75 403.386719 497.199219 401.394531 497.597656 399.386719 C 497.996094 397.378906 498.347656 395.363281 498.648438 393.339844 C 498.945312 391.316406 499.199219 389.289062 499.398438 387.253906 C 499.597656 385.214844 499.75 383.175781 499.847656 381.132812 C 499.949219 379.089844 500 377.046875 500 375 C 500 372.953125 499.949219 370.910156 499.847656 368.867188 C 499.75 366.824219 499.597656 364.785156 499.398438 362.746094 C 499.199219 360.710938 498.945312 358.683594 498.648438 356.660156 C 498.347656 354.636719 497.996094 352.621094 497.597656 350.613281 C 497.199219 348.605469 496.75 346.613281 496.253906 344.628906 C 495.757812 342.644531 495.210938 340.671875 494.617188 338.714844 C 494.023438 336.757812 493.382812 334.816406 492.691406 332.890625 C 492.003906 330.960938 491.269531 329.054688 490.484375 327.164062 C 489.703125 325.273438 488.875 323.40625 488 321.554688 C 487.125 319.707031 486.203125 317.878906 485.238281 316.074219 C 484.277344 314.269531 483.269531 312.492188 482.214844 310.738281 C 481.164062 308.980469 480.070312 307.253906 478.933594 305.554688 C 477.796875 303.851562 476.621094 302.179688 475.402344 300.539062 C 474.183594 298.894531 472.925781 297.28125 471.625 295.699219 C 470.328125 294.121094 468.992188 292.570312 467.617188 291.054688 C 466.246094 289.539062 464.835938 288.058594 463.386719 286.613281 C 461.941406 285.164062 460.460938 283.753906 458.945312 282.382812 C 457.429688 281.007812 455.878906 279.671875 454.300781 278.375 C 452.71875 277.074219 451.105469 275.816406 449.460938 274.597656 C 447.820312 273.378906 446.148438 272.203125 444.445312 271.066406 C 442.746094 269.929688 441.015625 268.835938 439.261719 267.785156 C 437.507812 266.730469 435.730469 265.722656 433.925781 264.761719 C 432.121094 263.796875 430.292969 262.875 428.445312 262 C 426.59375 261.125 424.726562 260.296875 422.835938 259.515625 C 420.945312 258.730469 419.039062 257.996094 417.109375 257.308594 C 415.183594 256.617188 413.242188 255.976562 411.285156 255.382812 C 409.328125 254.789062 407.355469 254.242188 405.371094 253.746094 C 403.386719 253.25 401.394531 252.800781 399.386719 252.402344 C 397.378906 252.003906 395.363281 251.652344 393.339844 251.351562 C 391.316406 251.054688 389.289062 250.800781 387.253906 250.601562 C 385.214844 250.402344 383.175781 250.25 381.132812 250.152344 C 379.089844 250.050781 377.046875 250 375 250 Z M 375 250 " fill-opacity="1" fill-rule="nonzero"/></svg>