<svg xmlns="http://www.w3.org/2000/svg" xmlns:xlink="http://www.w3.org/1999/xlink" width="500" zoomAndPan="magnify" viewBox="0 0 375 374.999991" height="500" preserveAspectRatio="xMidYMid meet" version="1.0"><rect x="-37.5" width="450" fill="#ffffff" y="-37.499999" height="449.999989" fill-opacity="1"/><rect x="-37.5" width="450" fill="#ffffff" y="-37.499999" height="449.999989" fill-opacity="1"/><path fill="#000000" d="M 187.5 95.90625 C 136.996094 95.90625 95.90625 136.992188 95.90625 187.5 C 95.90625 238.007812 136.992188 279.09375 187.5 279.09375 C 238.007812 279.09375 279.09375 238.007812 279.09375 187.5 C 279.09375 136.992188 238.003906 95.90625 187.5 95.90625 Z M 187.5 266.164062 C 144.125 266.164062 108.835938 230.875 108.835938 187.5 C 108.835938 144.125 144.125 108.835938 187.5 108.835938 C 230.875 108.835938 266.164062 144.125 266.164062 187.5 C 266.164062 230.875 230.875 266.164062 187.5 266.164062 Z M 187.5 266.164062 " fill-opacity="1" fill-rule="nonzero"/><path fill="#000000" d="M 248.921875 0 L 126.078125 0 C 56.558594 0 0 56.558594 0 126.078125 L 0 248.921875 C 0 318.441406 56.558594 375 126.078125 375 L 248.921875 375 C 318.441406 375 375 318.441406 375 248.921875 L 375 126.078125 C 375 56.558594 318.441406 0 248.921875 0 Z M 362.070312 248.921875 C 362.070312 311.3125 311.3125 362.070312 248.921875 362.070312 L 126.078125 362.070312 C 63.6875 362.070312 12.929688 311.3125 12.929688 248.921875 L 12.929688 126.078125 C 12.929688 63.6875 63.6875 12.929688 126.078125 12.929688 L 248.921875 12.929688 C 311.3125 12.929688 362.070312 63.6875 362.070312 126.078125 Z M 362.070312 248.921875 " fill-opacity="1" fill-rule="nonzero"/><path fill="#000000" d="M 289.871094 55.496094 C 273.53125 55.496094 260.238281 68.789062 260.238281 85.128906 C 260.238281 101.472656 273.53125 114.765625 289.871094 114.765625 C 306.210938 114.765625 319.503906 101.472656 319.503906 85.128906 C 319.503906 68.789062 306.210938 55.496094 289.871094 55.496094 Z M 289.871094 101.832031 C 280.660156 101.832031 273.167969 94.339844 273.167969 85.128906 C 273.167969 75.921875 280.660156 68.425781 289.871094 68.425781 C 299.082031 68.425781 306.574219 75.921875 306.574219 85.128906 C 306.574219 94.339844 299.082031 101.832031 289.871094 101.832031 Z M 289.871094 101.832031 " fill-opacity="1" fill-rule="nonzero"/></svg>