<svg xmlns="http://www.w3.org/2000/svg" xmlns:xlink="http://www.w3.org/1999/xlink" width="500" zoomAndPan="magnify" viewBox="0 0 375 374.999991" height="500" preserveAspectRatio="xMidYMid meet" version="1.0"><defs><g/></defs><g fill="#ffe0f3" fill-opacity="1"><g transform="translate(24.318678, 308.391304)"><g><path d="M 9.78125 0 L 9.78125 -3.5 L 18.875 -3.5 C 25.394531 -3.5 29.875 -5.066406 32.3125 -8.203125 C 34.757812 -11.347656 35.984375 -18.28125 35.984375 -29 L 35.984375 -220.828125 C 35.984375 -231.078125 34.875 -237.832031 32.65625 -241.09375 C 30.445312 -244.363281 26.082031 -246 19.5625 -246 L 9.78125 -246 L 9.78125 -249.484375 L 92.25 -249.484375 L 92.25 -246 L 82.8125 -246 C 76.289062 -246 72.039062 -244.363281 70.0625 -241.09375 C 68.082031 -237.832031 67.09375 -231.078125 67.09375 -220.828125 L 67.09375 -100.640625 L 146.0625 -213.5 C 151.1875 -220.945312 154.738281 -226.414062 156.71875 -229.90625 C 158.695312 -233.40625 159.6875 -236.085938 159.6875 -237.953125 C 159.6875 -240.984375 157.992188 -243.082031 154.609375 -244.25 C 151.234375 -245.414062 143.375 -246 131.03125 -246 L 131.03125 -249.484375 L 189.734375 -249.484375 L 189.734375 -246 C 184.378906 -246 180.007812 -245.179688 176.625 -243.546875 C 173.25 -241.910156 169.640625 -238.707031 165.796875 -233.9375 C 161.953125 -229.164062 156.535156 -221.882812 149.546875 -212.09375 L 106.578125 -150.953125 L 174.015625 -33.546875 C 180.765625 -21.429688 186.117188 -13.394531 190.078125 -9.4375 C 194.046875 -5.476562 197.660156 -3.5 200.921875 -3.5 L 201.609375 -3.5 L 201.609375 0 L 188.34375 0 C 179.488281 0 172.207031 -0.929688 166.5 -2.796875 C 160.789062 -4.660156 155.664062 -8.269531 151.125 -13.625 C 146.582031 -18.988281 141.632812 -26.675781 136.28125 -36.6875 L 88.40625 -125.796875 L 67.09375 -94.34375 L 67.09375 -29.703125 C 67.09375 -18.753906 68.253906 -11.648438 70.578125 -8.390625 C 72.910156 -5.128906 77.453125 -3.5 84.203125 -3.5 L 92.25 -3.5 L 92.25 0 Z M 9.78125 0 "/></g></g></g><g fill="#ffe0f3" fill-opacity="1"><g transform="translate(152.556116, 308.391304)"><g><path d="M 0.34375 0 L 0.34375 -3.5 L 10.484375 -3.5 C 16.773438 -3.5 21.316406 -5.242188 24.109375 -8.734375 C 26.898438 -12.234375 29.8125 -19.6875 32.84375 -31.09375 L 90.15625 -249.484375 L 113.21875 -249.484375 L 177.15625 -19.921875 C 179.019531 -13.160156 181.175781 -8.734375 183.625 -6.640625 C 186.070312 -4.546875 190.085938 -3.5 195.671875 -3.5 L 198.125 -3.5 L 198.125 0 L 120.546875 0 L 120.546875 -3.5 L 131.03125 -3.5 C 137.550781 -3.5 141.800781 -4.3125 143.78125 -5.9375 C 145.757812 -7.570312 146.75 -9.898438 146.75 -12.921875 C 146.75 -15.722656 146.164062 -19.046875 145 -22.890625 C 143.84375 -26.734375 142.796875 -30.632812 141.859375 -34.59375 L 127.53125 -90.84375 L 52.40625 -90.84375 L 39.140625 -40.53125 C 37.734375 -35.40625 36.445312 -30.394531 35.28125 -25.5 C 34.125 -20.613281 33.546875 -16.65625 33.546875 -13.625 C 33.546875 -9.894531 34.648438 -7.273438 36.859375 -5.765625 C 39.078125 -4.253906 43.097656 -3.5 48.921875 -3.5 L 63.9375 -3.5 L 63.9375 0 Z M 53.46875 -94.34375 L 126.484375 -94.34375 L 103.421875 -183.796875 C 100.628906 -195.210938 98.359375 -204.351562 96.609375 -211.21875 C 94.867188 -218.09375 93.472656 -223.507812 92.421875 -227.46875 C 91.367188 -231.425781 90.613281 -234.804688 90.15625 -237.609375 C 88.75 -231.546875 87.640625 -226.535156 86.828125 -222.578125 C 86.015625 -218.617188 85.082031 -214.71875 84.03125 -210.875 C 82.988281 -207.03125 81.648438 -202.082031 80.015625 -196.03125 Z M 53.46875 -94.34375 "/></g></g></g><path stroke-linecap="round" transform="matrix(1.397414, 0.00211684, -0.00211568, 1.396643, 4.576494, 261.077239)" fill="none" stroke-linejoin="miter" d="M 0.499496 0.50052 L 84.466001 0.499115 " stroke="#292929" stroke-width="1" stroke-opacity="1" stroke-miterlimit="4"/><path stroke-linecap="round" transform="matrix(1.398235, -0.0000170887, 0.0000170693, 1.396644, 5.617857, 96.934894)" fill="none" stroke-linejoin="miter" d="M 0.499588 0.499717 L 260.204808 0.500098 " stroke="#292929" stroke-width="1" stroke-opacity="1" stroke-miterlimit="4"/><path stroke-linecap="round" transform="matrix(1.392038, 0.000989802, -0.000993077, 1.396644, 250.611667, 261.082394)" fill="none" stroke-linejoin="miter" d="M 0.501009 0.500027 L 84.788955 0.499027 " stroke="#292929" stroke-width="1" stroke-opacity="1" stroke-miterlimit="4"/><path stroke-linecap="round" transform="matrix(0.000000000000000085, -1.393481, 1.396644, 0.000000000000000086, 369.022391, 261.416788)" fill="none" stroke-linejoin="miter" d="M 0.500931 0.501391 L 116.778993 0.501391 " stroke="#292929" stroke-width="1" stroke-opacity="1" stroke-miterlimit="4"/><path stroke-linecap="round" transform="matrix(0.00592495, -1.399411, 1.396632, 0.00591319, 4.561007, 261.939036)" fill="none" stroke-linejoin="miter" d="M 0.500069 0.499594 L 117.279068 0.499233 " stroke="#292929" stroke-width="1" stroke-opacity="1" stroke-miterlimit="4"/><g fill="#292929" fill-opacity="1"><g transform="translate(141.02554, 275.741978)"><g><path d="M 23.828125 -3.28125 C 24.171875 -2.414062 24.5625 -1.785156 25 -1.390625 C 25.4375 -1.003906 25.863281 -0.800781 26.28125 -0.78125 L 26.28125 0 C 24.726562 -0.0703125 22.753906 -0.109375 20.359375 -0.109375 C 17.703125 -0.109375 15.726562 -0.0703125 14.4375 0 L 14.4375 -0.78125 C 15.414062 -0.832031 16.113281 -0.953125 16.53125 -1.140625 C 16.945312 -1.335938 17.15625 -1.6875 17.15625 -2.1875 C 17.15625 -2.65625 17 -3.28125 16.6875 -4.0625 L 14.359375 -10.453125 L 5.84375 -10.453125 L 4.84375 -7.765625 C 4.113281 -5.890625 3.75 -4.445312 3.75 -3.4375 C 3.75 -2.46875 4.039062 -1.796875 4.625 -1.421875 C 5.207031 -1.046875 6.070312 -0.832031 7.21875 -0.78125 L 7.21875 0 C 5.445312 -0.0703125 3.832031 -0.109375 2.375 -0.109375 C 1.175781 -0.109375 0.191406 -0.0703125 -0.578125 0 L -0.578125 -0.78125 C 0.691406 -1.007812 1.804688 -2.375 2.765625 -4.875 L 11.65625 -27.6875 C 11.945312 -27.664062 12.40625 -27.65625 13.03125 -27.65625 C 13.65625 -27.65625 14.097656 -27.664062 14.359375 -27.6875 Z M 14.078125 -11.234375 L 10.21875 -21.765625 L 6.15625 -11.234375 Z M 14.078125 -11.234375 "/></g></g></g><g fill="#292929" fill-opacity="1"><g transform="translate(174.002324, 275.741978)"><g><path d="M 27.765625 -1.71875 C 27.066406 -0.90625 26.3125 -0.328125 25.5 0.015625 C 24.695312 0.367188 23.722656 0.546875 22.578125 0.546875 C 21.066406 0.546875 19.875 0.226562 19 -0.40625 C 18.132812 -1.039062 17.570312 -2.128906 17.3125 -3.671875 L 16.609375 -7.5625 C 16.273438 -9.457031 15.863281 -10.851562 15.375 -11.75 C 14.894531 -12.65625 14.097656 -13.109375 12.984375 -13.109375 L 10.453125 -13.109375 L 10.453125 -4.140625 C 10.453125 -3.148438 10.519531 -2.429688 10.65625 -1.984375 C 10.800781 -1.546875 11.066406 -1.25 11.453125 -1.09375 C 11.847656 -0.9375 12.488281 -0.832031 13.375 -0.78125 L 13.375 0 C 11.96875 -0.0703125 10.003906 -0.109375 7.484375 -0.109375 C 4.703125 -0.109375 2.648438 -0.0703125 1.328125 0 L 1.328125 -0.78125 C 2.179688 -0.832031 2.8125 -0.9375 3.21875 -1.09375 C 3.625 -1.25 3.894531 -1.546875 4.03125 -1.984375 C 4.175781 -2.429688 4.25 -3.148438 4.25 -4.140625 L 4.25 -23.484375 C 4.25 -24.460938 4.175781 -25.171875 4.03125 -25.609375 C 3.894531 -26.054688 3.625 -26.359375 3.21875 -26.515625 C 2.8125 -26.671875 2.179688 -26.773438 1.328125 -26.828125 L 1.328125 -27.609375 C 2.648438 -27.535156 4.625 -27.5 7.25 -27.5 L 11.578125 -27.53125 C 12.097656 -27.5625 12.695312 -27.578125 13.375 -27.578125 C 16.96875 -27.578125 19.664062 -26.988281 21.46875 -25.8125 C 23.28125 -24.644531 24.1875 -22.96875 24.1875 -20.78125 C 24.1875 -18.9375 23.507812 -17.3125 22.15625 -15.90625 C 20.800781 -14.507812 18.5625 -13.628906 15.4375 -13.265625 C 17.78125 -13.054688 19.523438 -12.546875 20.671875 -11.734375 C 21.816406 -10.929688 22.554688 -9.722656 22.890625 -8.109375 L 23.796875 -4.09375 C 24.003906 -3.050781 24.242188 -2.320312 24.515625 -1.90625 C 24.785156 -1.488281 25.164062 -1.28125 25.65625 -1.28125 C 25.96875 -1.3125 26.234375 -1.390625 26.453125 -1.515625 C 26.679688 -1.648438 26.9375 -1.875 27.21875 -2.1875 Z M 12.875 -26.828125 C 12.164062 -26.828125 11.648438 -26.734375 11.328125 -26.546875 C 11.003906 -26.367188 10.773438 -26.046875 10.640625 -25.578125 C 10.515625 -25.109375 10.453125 -24.410156 10.453125 -23.484375 L 10.453125 -13.890625 L 12.125 -13.890625 C 14.257812 -13.890625 15.722656 -14.453125 16.515625 -15.578125 C 17.304688 -16.710938 17.703125 -18.304688 17.703125 -20.359375 C 17.703125 -22.492188 17.320312 -24.101562 16.5625 -25.1875 C 15.8125 -26.28125 14.582031 -26.828125 12.875 -26.828125 Z M 12.875 -26.828125 "/></g></g></g><g fill="#292929" fill-opacity="1"><g transform="translate(207.953494, 275.741978)"><g><path d="M 25.03125 -27.609375 C 24.851562 -25.140625 24.765625 -22.929688 24.765625 -20.984375 C 24.765625 -19.765625 24.800781 -18.773438 24.875 -18.015625 L 23.984375 -18.015625 C 23.359375 -21.210938 22.503906 -23.460938 21.421875 -24.765625 C 20.347656 -26.066406 18.875 -26.71875 17 -26.71875 L 16.109375 -26.71875 L 16.109375 -4.453125 C 16.109375 -3.359375 16.21875 -2.5625 16.4375 -2.0625 C 16.65625 -1.570312 17.046875 -1.238281 17.609375 -1.0625 C 18.171875 -0.894531 19.0625 -0.800781 20.28125 -0.78125 L 20.28125 0 C 17 -0.0703125 14.53125 -0.109375 12.875 -0.109375 C 11.226562 -0.109375 8.847656 -0.0703125 5.734375 0 L 5.734375 -0.78125 C 6.953125 -0.800781 7.84375 -0.894531 8.40625 -1.0625 C 8.96875 -1.238281 9.359375 -1.570312 9.578125 -2.0625 C 9.796875 -2.5625 9.90625 -3.359375 9.90625 -4.453125 L 9.90625 -26.71875 L 9.046875 -26.71875 C 7.796875 -26.71875 6.734375 -26.441406 5.859375 -25.890625 C 4.992188 -25.347656 4.25 -24.445312 3.625 -23.1875 C 3 -21.925781 2.46875 -20.203125 2.03125 -18.015625 L 1.125 -18.015625 C 1.207031 -18.773438 1.25 -19.765625 1.25 -20.984375 C 1.25 -22.929688 1.15625 -25.140625 0.96875 -27.609375 C 3.34375 -27.535156 7.363281 -27.5 13.03125 -27.5 C 18.695312 -27.5 22.695312 -27.535156 25.03125 -27.609375 Z M 25.03125 -27.609375 "/></g></g></g><g fill="#292929" fill-opacity="1"><g transform="translate(30.412962, 206.328274)"><g><path d="M 5.332031 0 L 29.839844 0 L 29.839844 -2.75 L 24.078125 -2.75 C 22.445312 -2.75 21.753906 -3.527344 21.753906 -5.074219 L 21.753906 -25.796875 L 28.894531 -33.019531 L 42.910156 -6.707031 C 43.253906 -6.191406 43.511719 -5.074219 43.511719 -4.558594 C 43.511719 -3.613281 42.480469 -2.75 41.191406 -2.75 L 35.429688 -2.75 L 35.429688 0 L 61.398438 0 L 61.398438 -2.75 L 58.558594 -2.75 C 55.035156 -2.75 53.574219 -3.785156 52.109375 -6.535156 L 34.570312 -38.78125 L 49.015625 -53.402344 C 51.078125 -55.550781 54.347656 -58.472656 56.753906 -58.472656 L 60.195312 -58.472656 L 60.195312 -61.226562 L 37.492188 -61.226562 L 37.492188 -58.472656 L 39.8125 -58.472656 C 42.050781 -58.472656 43.683594 -56.925781 43.683594 -54.863281 C 43.683594 -52.710938 42.996094 -51.25 41.535156 -49.703125 L 21.753906 -29.496094 L 21.753906 -56.152344 C 21.753906 -57.785156 22.445312 -58.472656 24.078125 -58.472656 L 29.839844 -58.472656 L 29.839844 -61.226562 L 5.332031 -61.226562 L 5.332031 -58.472656 L 11.523438 -58.472656 C 13.15625 -58.472656 13.84375 -57.785156 13.84375 -56.152344 L 13.84375 -5.074219 C 13.84375 -3.527344 13.15625 -2.75 11.523438 -2.75 L 5.332031 -2.75 Z M 5.332031 0 "/></g></g></g><g fill="#292929" fill-opacity="1"><g transform="translate(95.414573, 206.328274)"><g><path d="M 15.132812 -30.613281 C 15.132812 -48.15625 19.089844 -60.023438 30.957031 -60.023438 C 42.824219 -60.023438 46.78125 -48.15625 46.78125 -30.613281 C 46.78125 -13.070312 42.824219 -1.203125 30.957031 -1.203125 C 19.089844 -1.203125 15.132812 -13.070312 15.132812 -30.613281 Z M 6.019531 -30.613281 C 6.019531 -14.359375 15.996094 1.546875 30.957031 1.546875 C 45.917969 1.546875 55.894531 -14.359375 55.894531 -30.613281 C 55.894531 -46.867188 45.917969 -62.773438 30.957031 -62.773438 C 15.996094 -62.773438 6.019531 -46.867188 6.019531 -30.613281 Z M 6.019531 -30.613281 "/></g></g></g><g fill="#292929" fill-opacity="1"><g transform="translate(155.601262, 206.328274)"><g><path d="M 22.875 -21.152344 L 31.558594 -47.210938 L 40.5 -21.152344 Z M 3.957031 0 L 27.515625 0 L 27.515625 -2.75 L 22.960938 -2.75 C 19.433594 -2.75 18.574219 -5.417969 18.574219 -7.308594 C 18.574219 -8.769531 19.175781 -10.75 19.777344 -12.46875 L 21.753906 -18.058594 L 41.621094 -18.058594 L 45.488281 -6.792969 C 45.746094 -6.191406 45.832031 -5.417969 45.832031 -4.902344 C 45.832031 -3.785156 44.542969 -2.75 42.824219 -2.75 L 37.148438 -2.75 L 37.148438 0 L 63.804688 0 L 63.804688 -2.75 L 58.988281 -2.75 C 56.667969 -2.75 55.035156 -3.527344 53.832031 -6.535156 L 35.171875 -61.226562 L 32.847656 -61.226562 L 14.359375 -9.027344 C 13.328125 -6.277344 11.523438 -2.75 7.136719 -2.75 L 3.957031 -2.75 Z M 3.957031 0 "/></g></g></g><g fill="#292929" fill-opacity="1"><g transform="translate(221.290732, 206.328274)"><g><path d="M 5.332031 0 L 51.507812 0 L 52.625 -23.132812 L 50.476562 -23.132812 C 50.476562 -23.132812 49.53125 -12.554688 45.574219 -7.222656 C 42.996094 -3.871094 38.609375 -2.75 36.117188 -2.75 L 24.078125 -2.75 C 22.445312 -2.75 21.753906 -3.527344 21.753906 -5.074219 L 21.753906 -56.152344 C 21.753906 -57.785156 22.445312 -58.472656 24.078125 -58.472656 L 31.644531 -58.472656 L 31.644531 -61.226562 L 5.332031 -61.226562 L 5.332031 -58.472656 L 11.523438 -58.472656 C 13.15625 -58.472656 13.84375 -57.785156 13.84375 -56.152344 L 13.84375 -5.074219 C 13.84375 -3.527344 13.15625 -2.75 11.523438 -2.75 L 5.332031 -2.75 Z M 5.332031 0 "/></g></g></g><g fill="#292929" fill-opacity="1"><g transform="translate(278.897987, 206.328274)"><g><path d="M 22.875 -21.152344 L 31.558594 -47.210938 L 40.5 -21.152344 Z M 3.957031 0 L 27.515625 0 L 27.515625 -2.75 L 22.960938 -2.75 C 19.433594 -2.75 18.574219 -5.417969 18.574219 -7.308594 C 18.574219 -8.769531 19.175781 -10.75 19.777344 -12.46875 L 21.753906 -18.058594 L 41.621094 -18.058594 L 45.488281 -6.792969 C 45.746094 -6.191406 45.832031 -5.417969 45.832031 -4.902344 C 45.832031 -3.785156 44.542969 -2.75 42.824219 -2.75 L 37.148438 -2.75 L 37.148438 0 L 63.804688 0 L 63.804688 -2.75 L 58.988281 -2.75 C 56.667969 -2.75 55.035156 -3.527344 53.832031 -6.535156 L 35.171875 -61.226562 L 32.847656 -61.226562 L 14.359375 -9.027344 C 13.328125 -6.277344 11.523438 -2.75 7.136719 -2.75 L 3.957031 -2.75 Z M 3.957031 0 "/></g></g></g></svg>