<svg xmlns="http://www.w3.org/2000/svg" xmlns:xlink="http://www.w3.org/1999/xlink" width="500" zoomAndPan="magnify" viewBox="0 0 375 254.999984" height="340" preserveAspectRatio="xMidYMid meet" version="1.0"><defs><g/></defs><g fill="#ffe0f3" fill-opacity="1"><g transform="translate(20.965594, 253.775006)"><g><path d="M 9.984375 0 L 9.984375 -3.5625 L 19.234375 -3.5625 C 25.890625 -3.5625 30.460938 -5.164062 32.953125 -8.375 C 35.453125 -11.582031 36.703125 -18.648438 36.703125 -29.578125 L 36.703125 -225.1875 C 36.703125 -235.644531 35.570312 -242.535156 33.3125 -245.859375 C 31.0625 -249.179688 26.609375 -250.84375 19.953125 -250.84375 L 9.984375 -250.84375 L 9.984375 -254.40625 L 94.0625 -254.40625 L 94.0625 -250.84375 L 84.453125 -250.84375 C 77.796875 -250.84375 73.457031 -249.179688 71.4375 -245.859375 C 69.414062 -242.535156 68.40625 -235.644531 68.40625 -225.1875 L 68.40625 -102.625 L 148.9375 -217.703125 C 154.164062 -225.304688 157.785156 -230.890625 159.796875 -234.453125 C 161.816406 -238.015625 162.828125 -240.75 162.828125 -242.65625 C 162.828125 -245.738281 161.101562 -247.875 157.65625 -249.0625 C 154.21875 -250.25 146.207031 -250.84375 133.625 -250.84375 L 133.625 -254.40625 L 193.484375 -254.40625 L 193.484375 -250.84375 C 188.015625 -250.84375 183.554688 -250.007812 180.109375 -248.34375 C 176.671875 -246.6875 172.988281 -243.421875 169.0625 -238.546875 C 165.144531 -233.679688 159.625 -226.257812 152.5 -216.28125 L 108.671875 -153.921875 L 177.4375 -34.203125 C 184.332031 -21.847656 189.796875 -13.648438 193.828125 -9.609375 C 197.867188 -5.578125 201.550781 -3.5625 204.875 -3.5625 L 205.59375 -3.5625 L 205.59375 0 L 192.046875 0 C 183.023438 0 175.601562 -0.945312 169.78125 -2.84375 C 163.957031 -4.75 158.726562 -8.429688 154.09375 -13.890625 C 149.46875 -19.359375 144.425781 -27.195312 138.96875 -37.40625 L 90.140625 -128.265625 L 68.40625 -96.203125 L 68.40625 -30.28125 C 68.40625 -19.125 69.59375 -11.878906 71.96875 -8.546875 C 74.34375 -5.222656 78.976562 -3.5625 85.875 -3.5625 L 94.0625 -3.5625 L 94.0625 0 Z M 9.984375 0 "/></g></g></g><g fill="#ffe0f3" fill-opacity="1"><g transform="translate(151.728769, 253.775006)"><g><path d="M 0.359375 0 L 0.359375 -3.5625 L 10.6875 -3.5625 C 17.101562 -3.5625 21.734375 -5.34375 24.578125 -8.90625 C 27.429688 -12.46875 30.40625 -20.070312 33.5 -31.71875 L 91.921875 -254.40625 L 115.4375 -254.40625 L 180.65625 -20.3125 C 182.550781 -13.425781 184.742188 -8.910156 187.234375 -6.765625 C 189.734375 -4.628906 193.832031 -3.5625 199.53125 -3.5625 L 202.03125 -3.5625 L 202.03125 0 L 122.921875 0 L 122.921875 -3.5625 L 133.625 -3.5625 C 140.269531 -3.5625 144.601562 -4.390625 146.625 -6.046875 C 148.644531 -7.710938 149.65625 -10.09375 149.65625 -13.1875 C 149.65625 -16.03125 149.0625 -19.410156 147.875 -23.328125 C 146.6875 -27.253906 145.613281 -31.238281 144.65625 -35.28125 L 130.046875 -92.640625 L 53.453125 -92.640625 L 39.90625 -41.328125 C 38.476562 -36.109375 37.171875 -31.003906 35.984375 -26.015625 C 34.796875 -21.023438 34.203125 -16.984375 34.203125 -13.890625 C 34.203125 -10.085938 35.328125 -7.414062 37.578125 -5.875 C 39.835938 -4.332031 43.941406 -3.5625 49.890625 -3.5625 L 65.203125 -3.5625 L 65.203125 0 Z M 54.515625 -96.203125 L 128.984375 -96.203125 L 105.46875 -187.421875 C 102.613281 -199.054688 100.296875 -208.378906 98.515625 -215.390625 C 96.734375 -222.398438 95.304688 -227.921875 94.234375 -231.953125 C 93.171875 -235.992188 92.398438 -239.441406 91.921875 -242.296875 C 90.503906 -236.117188 89.378906 -231.007812 88.546875 -226.96875 C 87.710938 -222.925781 86.757812 -218.945312 85.6875 -215.03125 C 84.625 -211.113281 83.257812 -206.066406 81.59375 -199.890625 Z M 54.515625 -96.203125 "/></g></g></g><path stroke-linecap="round" transform="matrix(0.763713, 0.0011569, -0.0011585, 0.764771, 0.834641, 205.476355)" fill="none" stroke-linejoin="miter" d="M 1.000603 0.999875 L 157.222265 0.998509 " stroke="#292929" stroke-width="2" stroke-opacity="1" stroke-miterlimit="4"/><path stroke-linecap="round" transform="matrix(0.764033, -0.00000933775, 0.00000934677, 0.764772, 1.896436, 38.101099)" fill="none" stroke-linejoin="miter" d="M 0.999578 1.001733 L 484.484285 1.002529 " stroke="#292929" stroke-width="2" stroke-opacity="1" stroke-miterlimit="4"/><path stroke-linecap="round" transform="matrix(0.765674, 0.000544429, -0.000543787, 0.764772, 251.71566, 205.481613)" fill="none" stroke-linejoin="miter" d="M 0.999579 0.998908 L 157.826177 0.999635 " stroke="#292929" stroke-width="2" stroke-opacity="1" stroke-miterlimit="4"/><path stroke-linecap="round" transform="matrix(0.000000000000000047, -0.763404, 0.764772, 0.000000000000000047, 372.413205, 205.882689)" fill="none" stroke-linejoin="miter" d="M 0.997631 1.002237 L 217.395838 1.002237 " stroke="#292929" stroke-width="2" stroke-opacity="1" stroke-miterlimit="4"/><path stroke-linecap="round" transform="matrix(0.00323309, -0.763621, 0.764765, 0.00323793, 0.775916, 206.417488)" fill="none" stroke-linejoin="miter" d="M 1.001115 0.998759 L 218.330235 0.999388 " stroke="#292929" stroke-width="2" stroke-opacity="1" stroke-miterlimit="4"/><g fill="#292929" fill-opacity="1"><g transform="translate(139.971092, 220.482615)"><g><path d="M 24.296875 -3.34375 C 24.640625 -2.46875 25.035156 -1.828125 25.484375 -1.421875 C 25.941406 -1.023438 26.378906 -0.816406 26.796875 -0.796875 L 26.796875 0 C 25.210938 -0.0820312 23.195312 -0.125 20.75 -0.125 C 18.050781 -0.125 16.039062 -0.0820312 14.71875 0 L 14.71875 -0.796875 C 15.71875 -0.847656 16.429688 -0.972656 16.859375 -1.171875 C 17.285156 -1.367188 17.5 -1.722656 17.5 -2.234375 C 17.5 -2.703125 17.335938 -3.335938 17.015625 -4.140625 L 14.640625 -10.65625 L 5.96875 -10.65625 L 4.9375 -7.90625 C 4.1875 -6 3.8125 -4.53125 3.8125 -3.5 C 3.8125 -2.519531 4.109375 -1.835938 4.703125 -1.453125 C 5.304688 -1.066406 6.191406 -0.847656 7.359375 -0.796875 L 7.359375 0 C 5.554688 -0.0820312 3.910156 -0.125 2.421875 -0.125 C 1.203125 -0.125 0.195312 -0.0820312 -0.59375 0 L -0.59375 -0.796875 C 0.707031 -1.035156 1.847656 -2.425781 2.828125 -4.96875 L 11.890625 -28.234375 C 12.179688 -28.203125 12.644531 -28.1875 13.28125 -28.1875 C 13.914062 -28.1875 14.367188 -28.203125 14.640625 -28.234375 Z M 14.359375 -11.453125 L 10.421875 -22.1875 L 6.28125 -11.453125 Z M 14.359375 -11.453125 "/></g></g></g><g fill="#292929" fill-opacity="1"><g transform="translate(173.597379, 220.482615)"><g><path d="M 28.3125 -1.75 C 27.59375 -0.925781 26.820312 -0.335938 26 0.015625 C 25.1875 0.378906 24.195312 0.5625 23.03125 0.5625 C 21.488281 0.5625 20.269531 0.238281 19.375 -0.40625 C 18.488281 -1.0625 17.914062 -2.171875 17.65625 -3.734375 L 16.9375 -7.71875 C 16.59375 -9.65625 16.175781 -11.078125 15.6875 -11.984375 C 15.195312 -12.898438 14.378906 -13.359375 13.234375 -13.359375 L 10.65625 -13.359375 L 10.65625 -4.21875 C 10.65625 -3.207031 10.726562 -2.476562 10.875 -2.03125 C 11.019531 -1.582031 11.289062 -1.273438 11.6875 -1.109375 C 12.082031 -0.953125 12.734375 -0.847656 13.640625 -0.796875 L 13.640625 0 C 12.210938 -0.0820312 10.210938 -0.125 7.640625 -0.125 C 4.796875 -0.125 2.703125 -0.0820312 1.359375 0 L 1.359375 -0.796875 C 2.234375 -0.847656 2.875 -0.953125 3.28125 -1.109375 C 3.6875 -1.273438 3.960938 -1.582031 4.109375 -2.03125 C 4.253906 -2.476562 4.328125 -3.207031 4.328125 -4.21875 L 4.328125 -23.9375 C 4.328125 -24.945312 4.253906 -25.675781 4.109375 -26.125 C 3.960938 -26.570312 3.6875 -26.875 3.28125 -27.03125 C 2.875 -27.195312 2.234375 -27.304688 1.359375 -27.359375 L 1.359375 -28.15625 C 2.703125 -28.070312 4.710938 -28.03125 7.390625 -28.03125 L 11.8125 -28.078125 C 12.34375 -28.097656 12.953125 -28.109375 13.640625 -28.109375 C 17.296875 -28.109375 20.046875 -27.507812 21.890625 -26.3125 C 23.734375 -25.125 24.65625 -23.414062 24.65625 -21.1875 C 24.65625 -19.3125 23.960938 -17.65625 22.578125 -16.21875 C 21.203125 -14.789062 18.925781 -13.890625 15.75 -13.515625 C 18.132812 -13.304688 19.910156 -12.789062 21.078125 -11.96875 C 22.242188 -11.144531 23 -9.910156 23.34375 -8.265625 L 24.25 -4.171875 C 24.46875 -3.109375 24.710938 -2.363281 24.984375 -1.9375 C 25.265625 -1.519531 25.660156 -1.3125 26.171875 -1.3125 C 26.484375 -1.34375 26.75 -1.421875 26.96875 -1.546875 C 27.195312 -1.679688 27.457031 -1.910156 27.75 -2.234375 Z M 13.125 -27.359375 C 12.40625 -27.359375 11.878906 -27.265625 11.546875 -27.078125 C 11.222656 -26.890625 10.992188 -26.554688 10.859375 -26.078125 C 10.722656 -25.609375 10.65625 -24.894531 10.65625 -23.9375 L 10.65625 -14.15625 L 12.359375 -14.15625 C 14.535156 -14.15625 16.023438 -14.726562 16.828125 -15.875 C 17.640625 -17.03125 18.046875 -18.65625 18.046875 -20.75 C 18.046875 -22.925781 17.660156 -24.570312 16.890625 -25.6875 C 16.128906 -26.800781 14.875 -27.359375 13.125 -27.359375 Z M 13.125 -27.359375 "/></g></g></g><g fill="#292929" fill-opacity="1"><g transform="translate(208.217244, 220.482615)"><g><path d="M 25.53125 -28.15625 C 25.34375 -25.632812 25.25 -23.378906 25.25 -21.390625 C 25.25 -20.148438 25.289062 -19.144531 25.375 -18.375 L 24.453125 -18.375 C 23.816406 -21.632812 22.945312 -23.925781 21.84375 -25.25 C 20.75 -26.570312 19.25 -27.234375 17.34375 -27.234375 L 16.421875 -27.234375 L 16.421875 -4.53125 C 16.421875 -3.414062 16.53125 -2.609375 16.75 -2.109375 C 16.976562 -1.609375 17.378906 -1.269531 17.953125 -1.09375 C 18.523438 -0.914062 19.429688 -0.816406 20.671875 -0.796875 L 20.671875 0 C 17.335938 -0.0820312 14.820312 -0.125 13.125 -0.125 C 11.457031 -0.125 9.03125 -0.0820312 5.84375 0 L 5.84375 -0.796875 C 7.09375 -0.816406 8 -0.914062 8.5625 -1.09375 C 9.132812 -1.269531 9.53125 -1.609375 9.75 -2.109375 C 9.976562 -2.609375 10.09375 -3.414062 10.09375 -4.53125 L 10.09375 -27.234375 L 9.21875 -27.234375 C 7.945312 -27.234375 6.867188 -26.953125 5.984375 -26.390625 C 5.097656 -25.835938 4.335938 -24.921875 3.703125 -23.640625 C 3.066406 -22.359375 2.519531 -20.601562 2.0625 -18.375 L 1.15625 -18.375 C 1.226562 -19.144531 1.265625 -20.148438 1.265625 -21.390625 C 1.265625 -23.378906 1.175781 -25.632812 1 -28.15625 C 3.40625 -28.070312 7.5 -28.03125 13.28125 -28.03125 C 19.0625 -28.03125 23.144531 -28.070312 25.53125 -28.15625 Z M 25.53125 -28.15625 "/></g></g></g><g fill="#292929" fill-opacity="1"><g transform="translate(27.1799, 149.701759)"><g><path d="M 5.4375 0 L 30.425781 0 L 30.425781 -2.804688 L 24.550781 -2.804688 C 22.886719 -2.804688 22.183594 -3.59375 22.183594 -5.171875 L 22.183594 -26.304688 L 29.460938 -33.671875 L 43.753906 -6.839844 C 44.105469 -6.3125 44.367188 -5.171875 44.367188 -4.648438 C 44.367188 -3.683594 43.316406 -2.804688 42 -2.804688 L 36.125 -2.804688 L 36.125 0 L 62.605469 0 L 62.605469 -2.804688 L 59.714844 -2.804688 C 56.117188 -2.804688 54.628906 -3.859375 53.136719 -6.664062 L 35.25 -39.546875 L 49.980469 -54.453125 C 52.085938 -56.644531 55.417969 -59.625 57.871094 -59.625 L 61.378906 -59.625 L 61.378906 -62.433594 L 38.230469 -62.433594 L 38.230469 -59.625 L 40.597656 -59.625 C 42.878906 -59.625 44.542969 -58.046875 44.542969 -55.941406 C 44.542969 -53.75 43.84375 -52.261719 42.351562 -50.683594 L 22.183594 -30.074219 L 22.183594 -57.257812 C 22.183594 -58.925781 22.886719 -59.625 24.550781 -59.625 L 30.425781 -59.625 L 30.425781 -62.433594 L 5.4375 -62.433594 L 5.4375 -59.625 L 11.75 -59.625 C 13.414062 -59.625 14.117188 -58.925781 14.117188 -57.257812 L 14.117188 -5.171875 C 14.117188 -3.59375 13.414062 -2.804688 11.75 -2.804688 L 5.4375 -2.804688 Z M 5.4375 0 "/></g></g></g><g fill="#292929" fill-opacity="1"><g transform="translate(93.461769, 149.701759)"><g><path d="M 15.433594 -31.214844 C 15.433594 -49.105469 19.464844 -61.203125 31.566406 -61.203125 C 43.667969 -61.203125 47.699219 -49.105469 47.699219 -31.214844 C 47.699219 -13.328125 43.667969 -1.226562 31.566406 -1.226562 C 19.464844 -1.226562 15.433594 -13.328125 15.433594 -31.214844 Z M 6.136719 -31.214844 C 6.136719 -14.644531 16.308594 1.578125 31.566406 1.578125 C 46.824219 1.578125 56.996094 -14.644531 56.996094 -31.214844 C 56.996094 -47.789062 46.824219 -64.011719 31.566406 -64.011719 C 16.308594 -64.011719 6.136719 -47.789062 6.136719 -31.214844 Z M 6.136719 -31.214844 "/></g></g></g><g fill="#292929" fill-opacity="1"><g transform="translate(154.833881, 149.701759)"><g><path d="M 23.324219 -21.570312 L 32.179688 -48.140625 L 41.300781 -21.570312 Z M 4.035156 0 L 28.058594 0 L 28.058594 -2.804688 L 23.410156 -2.804688 C 19.816406 -2.804688 18.941406 -5.523438 18.941406 -7.453125 C 18.941406 -8.945312 19.554688 -10.960938 20.167969 -12.714844 L 22.183594 -18.414062 L 42.441406 -18.414062 L 46.386719 -6.925781 C 46.648438 -6.3125 46.734375 -5.523438 46.734375 -5 C 46.734375 -3.859375 45.421875 -2.804688 43.667969 -2.804688 L 37.878906 -2.804688 L 37.878906 0 L 65.0625 0 L 65.0625 -2.804688 L 60.152344 -2.804688 C 57.785156 -2.804688 56.117188 -3.59375 54.890625 -6.664062 L 35.863281 -62.433594 L 33.496094 -62.433594 L 14.644531 -9.207031 C 13.589844 -6.402344 11.75 -2.804688 7.277344 -2.804688 L 4.035156 -2.804688 Z M 4.035156 0 "/></g></g></g><g fill="#292929" fill-opacity="1"><g transform="translate(221.817156, 149.701759)"><g><path d="M 5.4375 0 L 52.523438 0 L 53.664062 -23.585938 L 51.472656 -23.585938 C 51.472656 -23.585938 50.507812 -12.800781 46.472656 -7.367188 C 43.84375 -3.945312 39.371094 -2.804688 36.828125 -2.804688 L 24.550781 -2.804688 C 22.886719 -2.804688 22.183594 -3.59375 22.183594 -5.171875 L 22.183594 -57.257812 C 22.183594 -58.925781 22.886719 -59.625 24.550781 -59.625 L 32.269531 -59.625 L 32.269531 -62.433594 L 5.4375 -62.433594 L 5.4375 -59.625 L 11.75 -59.625 C 13.414062 -59.625 14.117188 -58.925781 14.117188 -57.257812 L 14.117188 -5.171875 C 14.117188 -3.59375 13.414062 -2.804688 11.75 -2.804688 L 5.4375 -2.804688 Z M 5.4375 0 "/></g></g></g><g fill="#292929" fill-opacity="1"><g transform="translate(280.559031, 149.701759)"><g><path d="M 23.324219 -21.570312 L 32.179688 -48.140625 L 41.300781 -21.570312 Z M 4.035156 0 L 28.058594 0 L 28.058594 -2.804688 L 23.410156 -2.804688 C 19.816406 -2.804688 18.941406 -5.523438 18.941406 -7.453125 C 18.941406 -8.945312 19.554688 -10.960938 20.167969 -12.714844 L 22.183594 -18.414062 L 42.441406 -18.414062 L 46.386719 -6.925781 C 46.648438 -6.3125 46.734375 -5.523438 46.734375 -5 C 46.734375 -3.859375 45.421875 -2.804688 43.667969 -2.804688 L 37.878906 -2.804688 L 37.878906 0 L 65.0625 0 L 65.0625 -2.804688 L 60.152344 -2.804688 C 57.785156 -2.804688 56.117188 -3.59375 54.890625 -6.664062 L 35.863281 -62.433594 L 33.496094 -62.433594 L 14.644531 -9.207031 C 13.589844 -6.402344 11.75 -2.804688 7.277344 -2.804688 L 4.035156 -2.804688 Z M 4.035156 0 "/></g></g></g></svg>