<svg xmlns="http://www.w3.org/2000/svg" xmlns:xlink="http://www.w3.org/1999/xlink" width="1000" zoomAndPan="magnify" viewBox="0 0 750 749.999995" height="1000" preserveAspectRatio="xMidYMid meet" version="1.0"><defs><clipPath id="9d188e6849"><path d="M 0 0 L 749.925781 0 L 749.925781 748.5 L 0 748.5 Z M 0 0 " clip-rule="nonzero"/></clipPath></defs><g clip-path="url(#9d188e6849)"><path fill="#000000" d="M 639.839844 102.300781 C 569.039062 36.574219 474.972656 0.378906 374.957031 0.378906 C 274.941406 0.378906 180.871094 36.574219 110.074219 102.300781 C 39.042969 168.246094 -0.0742188 255.988281 -0.0742188 349.367188 C -0.0742188 451.972656 47.855469 548.449219 131.648438 614.941406 L 131.648438 736.738281 C 131.648438 740.65625 133.667969 744.292969 136.992188 746.363281 C 138.820312 747.5 140.902344 748.078125 142.988281 748.078125 C 144.695312 748.078125 146.40625 747.691406 147.988281 746.914062 L 273.199219 685.34375 C 306.171875 693.976562 340.382812 698.355469 374.957031 698.355469 C 474.96875 698.355469 569.039062 662.15625 639.839844 596.425781 C 710.867188 530.480469 749.984375 442.742188 749.984375 349.367188 C 749.984375 255.988281 710.867188 168.242188 639.839844 102.300781 Z M 606.582031 260.714844 L 418.183594 467.722656 C 417.488281 468.488281 416.511719 468.933594 415.480469 468.957031 C 415.449219 468.960938 415.417969 468.960938 415.390625 468.960938 C 414.390625 468.960938 413.425781 468.5625 412.71875 467.851562 L 315.863281 371 L 147.390625 462.6875 C 145.746094 463.585938 143.683594 463.132812 142.558594 461.628906 C 141.433594 460.125 141.585938 458.023438 142.914062 456.695312 L 334.800781 264.804688 C 336.277344 263.328125 338.671875 263.328125 340.144531 264.804688 L 433.972656 358.632812 L 601.800781 254.957031 C 603.402344 253.96875 605.492188 254.308594 606.695312 255.757812 C 607.898438 257.207031 607.851562 259.320312 606.582031 260.714844 Z M 606.582031 260.714844 " fill-opacity="1" fill-rule="nonzero"/></g></svg>