<svg xmlns="http://www.w3.org/2000/svg" xmlns:xlink="http://www.w3.org/1999/xlink" width="500" zoomAndPan="magnify" viewBox="0 0 375 284.999983" height="380" preserveAspectRatio="xMidYMid meet" version="1.0"><path fill="#1d1d1b" d="M 371.367188 92.558594 C 368.546875 69.207031 356.59375 48.496094 338.777344 33.296875 C 302.398438 2.25 250.710938 -3.710938 205.78125 9.003906 C 154.472656 23.53125 111.367188 61.410156 92.78125 111.613281 C 90.125 118.789062 87.984375 126.132812 86.214844 133.574219 C 86.191406 133.671875 86.214844 133.738281 86.207031 133.824219 C 68.257812 144.109375 50.308594 154.394531 32.320312 164.605469 C 26.847656 167.710938 21.367188 170.800781 15.894531 173.902344 C 12.265625 175.949219 7.660156 178.835938 6.304688 183.066406 C 5.335938 186.078125 7.210938 189.160156 10.335938 189.730469 C 12.378906 190.109375 13.96875 189.050781 15.695312 188.082031 C 18.804688 186.34375 21.910156 184.589844 25.003906 182.828125 C 44.589844 171.691406 63.960938 160.195312 83.355469 148.730469 C 82.609375 154.675781 82.117188 160.648438 81.976562 166.644531 C 74.320312 169.871094 66.671875 173.117188 59.058594 176.445312 C 50.3125 180.269531 41.597656 184.167969 32.914062 188.132812 C 24.316406 192.0625 15.117188 195.574219 6.914062 200.257812 C 2.550781 202.742188 0.34375 207.933594 3.113281 212.535156 C 6.371094 217.949219 13.246094 216.804688 18.074219 214.445312 C 34.972656 206.195312 51.582031 197.484375 68.722656 189.722656 C 73.253906 187.667969 77.847656 185.738281 82.40625 183.746094 C 83.347656 196.34375 85.53125 208.816406 89.28125 220.894531 C 93.109375 233.238281 98.105469 245.878906 107.390625 255.179688 C 115.507812 263.308594 126.675781 268.824219 138.277344 269.089844 C 147.808594 269.304688 156.753906 265.828125 164.566406 260.5625 C 173.542969 254.511719 180.976562 246.421875 188.003906 238.238281 C 188.285156 238.097656 188.542969 237.898438 188.773438 237.582031 C 192.0625 232.855469 195.609375 228.4375 199.527344 224.214844 C 203.5625 219.867188 207.183594 215.09375 211.261719 210.8125 C 217.578125 204.191406 225.917969 209.8125 226.289062 217.949219 C 226.664062 226.292969 220.683594 233.113281 215.980469 239.355469 C 209.664062 247.738281 203.917969 258.46875 209.820312 268.671875 C 216.363281 279.980469 230.894531 281.3125 242.355469 278.191406 C 254.714844 274.824219 266.511719 268.226562 277.351562 261.53125 C 288.910156 254.394531 299.722656 246.066406 309.601562 236.761719 C 329.003906 218.488281 344.894531 196.566406 355.972656 172.328125 C 367.207031 147.777344 374.648438 119.699219 371.367188 92.558594 Z M 27.660156 176.460938 C 25.285156 177.820312 22.902344 179.183594 20.515625 180.53125 C 19.085938 181.34375 17.652344 182.148438 16.222656 182.957031 C 15.355469 183.445312 10.792969 187.015625 10.378906 184.234375 C 10.148438 182.675781 14.59375 179.605469 15.679688 178.894531 C 18.355469 177.148438 21.277344 175.699219 24.054688 174.125 C 29.367188 171.121094 34.667969 168.109375 39.96875 165.101562 C 60.519531 153.421875 81.023438 141.667969 101.535156 129.921875 C 124.363281 116.851562 147.210938 103.789062 170.121094 90.863281 C 170.128906 90.878906 170.136719 90.886719 170.148438 90.902344 C 170.566406 91.441406 171.015625 91.972656 171.476562 92.476562 C 161.988281 99.1875 151.726562 104.625 141.566406 110.230469 C 130.875 116.125 120.285156 122.21875 109.730469 128.351562 C 87.859375 141.058594 66.167969 154.078125 44.316406 166.832031 C 38.769531 170.070312 33.222656 173.28125 27.660156 176.460938 Z M 234.234375 53.503906 C 231.738281 60.945312 225.09375 66.722656 218.585938 70.671875 C 212.394531 74.429688 203.9375 78.089844 196.503906 76.574219 C 196.460938 76.515625 196.410156 76.457031 196.355469 76.390625 C 204.441406 64.058594 219.421875 54.929688 234.234375 53.503906 Z M 175.105469 90.230469 C 175.097656 90.222656 175.097656 90.222656 175.089844 90.214844 C 174.703125 89.726562 174.296875 89.246094 173.882812 88.777344 C 178.753906 85.960938 183.855469 83.492188 188.980469 81.160156 C 187.898438 81.996094 186.847656 82.929688 185.8125 83.644531 C 182.367188 86.019531 178.792969 88.222656 175.105469 90.230469 Z M 29.453125 203.785156 C 25.863281 205.597656 22.277344 207.417969 18.730469 209.316406 C 15.851562 210.863281 10.691406 214.03125 7.59375 211.359375 C 0.53125 205.285156 18.152344 199.621094 21.554688 198.03125 C 52.558594 183.578125 83.96875 170.011719 115.761719 157.355469 C 143.417969 146.347656 171.355469 136.058594 199.527344 126.445312 C 199.53125 126.457031 199.539062 126.480469 199.546875 126.496094 C 199.742188 126.945312 199.902344 127.421875 200.058594 127.886719 C 200.214844 128.367188 200.355469 128.855469 200.496094 129.34375 C 200.511719 129.386719 200.503906 129.378906 200.511719 129.410156 C 200.539062 129.527344 200.578125 129.648438 200.605469 129.765625 C 200.679688 130.046875 200.753906 130.320312 200.828125 130.601562 C 201.164062 131.835938 201.480469 133.109375 201.917969 134.335938 C 191.195312 138.203125 180.257812 141.539062 169.503906 145.269531 C 137.523438 156.34375 105.933594 168.570312 74.996094 182.269531 C 59.636719 189.066406 44.449219 196.234375 29.453125 203.785156 Z M 224.238281 118.1875 C 224.242188 118.1875 224.242188 118.179688 224.242188 118.179688 C 228.160156 116.917969 232.0625 115.519531 236.078125 114.601562 C 236.78125 114.4375 238.195312 113.964844 238.824219 114.0625 C 240.253906 114.277344 240.082031 113.875 238.957031 115.148438 C 237.808594 116.449219 236.03125 117.484375 234.632812 118.492188 C 228.390625 122.96875 221.527344 126.464844 214.460938 129.460938 C 211.632812 130.660156 208.753906 131.746094 205.878906 132.835938 C 205.804688 132.636719 205.730469 132.441406 205.664062 132.242188 C 205.507812 131.761719 205.367188 131.273438 205.226562 130.785156 C 205.210938 130.742188 205.21875 130.75 205.210938 130.71875 C 205.183594 130.601562 205.144531 130.484375 205.117188 130.363281 C 205.042969 130.082031 204.96875 129.808594 204.894531 129.527344 C 204.503906 128.054688 204.125 126.523438 203.53125 125.097656 C 210.425781 122.773438 217.320312 120.4375 224.238281 118.1875 Z M 244.214844 112.523438 C 244.191406 112.480469 244.179688 112.433594 244.15625 112.390625 C 251.605469 98.359375 269.429688 89.039062 285.328125 90.4375 C 281.039062 98.0625 277.21875 106.117188 269.460938 110.835938 C 262.304688 115.171875 251.429688 118.09375 244.214844 112.523438 Z M 311.503906 229.046875 C 293.257812 247.382812 270.761719 263.441406 246.371094 272.472656 C 239.980469 274.839844 233.078125 276.355469 226.28125 275.03125 C 218.882812 273.589844 212.070312 268.175781 211.542969 260.230469 C 210.683594 247.175781 224.671875 238.179688 228.953125 226.871094 C 232.382812 217.800781 229.707031 204.265625 218.046875 203.453125 C 213.269531 203.121094 209.796875 206.003906 206.878906 209.421875 C 203.140625 213.792969 199.40625 218.121094 195.496094 222.351562 C 192.164062 225.960938 189.167969 229.777344 186.324219 233.773438 C 186.261719 233.832031 186.195312 233.851562 186.136719 233.917969 C 174.816406 247.210938 161.019531 262.929688 142.460938 264.726562 C 131.28125 265.816406 120.039062 261.097656 111.871094 253.617188 C 102.734375 245.246094 97.914062 233.542969 94.085938 222.003906 C 89.789062 209.050781 87.4375 195.550781 86.515625 181.957031 C 115.753906 169.359375 145.492188 157.953125 175.609375 147.636719 C 185.398438 144.285156 195.421875 141.253906 205.21875 137.6875 C 205.441406 137.648438 205.636719 137.570312 205.828125 137.457031 C 214.1875 134.386719 222.378906 130.925781 230.0625 126.457031 C 234.09375 124.121094 237.957031 121.511719 241.535156 118.523438 C 242.140625 118.019531 242.71875 117.523438 243.222656 117.003906 C 251.191406 121.933594 262.136719 119.640625 269.96875 115.378906 C 274.703125 112.804688 278.632812 109.304688 281.730469 104.898438 C 285.03125 100.199219 287.453125 94.949219 290.40625 90.035156 C 291.253906 88.632812 290.695312 86.945312 288.984375 86.632812 C 270.792969 83.3125 249.785156 93.757812 240.742188 109.824219 C 239.542969 109.644531 238.21875 109.839844 236.855469 110.105469 C 231.996094 111.058594 227.300781 112.738281 222.605469 114.261719 C 222.601562 114.261719 222.601562 114.269531 222.601562 114.269531 C 185.78125 126.25 149.347656 139.402344 113.382812 153.738281 C 104.332031 157.347656 95.308594 161.03125 86.316406 164.789062 C 86.546875 158.589844 87.027344 152.40625 87.910156 146.265625 C 87.925781 146.1875 87.894531 146.125 87.894531 146.054688 C 90.574219 144.46875 93.25 142.886719 95.929688 141.3125 C 109.730469 133.191406 123.578125 125.132812 137.546875 117.292969 C 150.4375 110.058594 163.773438 103.460938 175.726562 94.710938 C 181.433594 91.699219 186.863281 88.210938 192.070312 84.386719 C 193.179688 83.570312 194.914062 82.261719 196.007812 80.78125 C 204.515625 82.527344 214.078125 78.335938 221.15625 74.039062 C 229.464844 69 237.261719 61.328125 239.15625 51.46875 C 239.4375 49.988281 238.015625 49.085938 236.757812 49.109375 C 227.910156 49.300781 219.261719 52.410156 211.65625 56.808594 C 204.042969 61.210938 197.046875 67.1875 192.378906 74.710938 C 192.3125 74.8125 192.3125 74.917969 192.269531 75.011719 C 189.367188 75.574219 185.871094 77.90625 184.0625 78.769531 C 179.375 81.003906 174.734375 83.351562 170.269531 85.996094 C 170.179688 86.035156 170.097656 86.027344 170.007812 86.078125 C 143.683594 100.925781 117.457031 115.933594 91.234375 130.949219 C 98.238281 103.675781 111.539062 78.488281 131.183594 58.15625 C 148.269531 40.46875 169.433594 26.75 192.363281 17.925781 C 236.269531 1.03125 288.140625 2.515625 327.558594 29.988281 C 346.144531 42.941406 360.578125 61.632812 365.589844 83.972656 C 371.625 110.886719 365.167969 139.476562 354.765625 164.492188 C 344.753906 188.578125 329.890625 210.566406 311.503906 229.046875 Z M 311.503906 229.046875 " fill-opacity="1" fill-rule="nonzero"/><path fill="#1d1d1b" d="M 167.601562 196.609375 C 167.460938 196.359375 167.253906 196.121094 166.957031 195.921875 C 158.515625 190.21875 148.773438 188.84375 140.027344 194.695312 C 131.933594 200.117188 126.128906 208.949219 126.71875 218.882812 C 127.355469 229.5625 134.648438 239.046875 145.136719 241.628906 C 155.570312 244.195312 167.484375 240.050781 173.949219 231.441406 C 178.175781 225.804688 179.933594 218.710938 177.820312 211.898438 C 175.96875 205.960938 171.75 201.101562 167.601562 196.609375 Z M 149.484375 238.054688 C 140.242188 237.25 133.042969 230.480469 131.316406 221.410156 C 129.675781 212.785156 133.605469 205.464844 140.085938 199.96875 C 143.136719 197.386719 146.707031 195.433594 150.734375 195.027344 C 155.628906 194.523438 160.277344 196.527344 164.261719 199.199219 C 170.90625 206.425781 177.5625 214.960938 172.839844 225.132812 C 168.800781 233.808594 158.871094 238.875 149.484375 238.054688 Z M 149.484375 238.054688 " fill-opacity="1" fill-rule="nonzero"/><path fill="#1d1d1b" d="M 270.976562 204.175781 C 270.917969 204.140625 270.859375 204.140625 270.800781 204.109375 C 270.800781 204.109375 270.792969 204.101562 270.792969 204.101562 C 261.773438 198.148438 250.316406 200.625 242.519531 207.484375 C 234.847656 214.230469 231.234375 224.253906 235.203125 233.988281 C 238.863281 242.9375 247.769531 249.816406 257.640625 249.585938 C 267.46875 249.355469 276.132812 242.507812 280.234375 233.839844 C 282.574219 228.898438 283.527344 222.988281 282.097656 217.652344 C 280.507812 211.714844 276.019531 207.386719 270.976562 204.175781 Z M 261.097656 244.910156 C 253.011719 246.707031 245.207031 242.535156 240.867188 235.746094 C 236.195312 228.445312 237.0625 220.027344 242.554688 213.460938 C 248.589844 206.253906 259.675781 201.832031 268.183594 207.453125 C 268.246094 207.492188 268.3125 207.5 268.371094 207.527344 C 272.109375 209.910156 275.707031 212.847656 277.441406 217.046875 C 279.042969 220.929688 278.753906 225.496094 277.433594 229.421875 C 274.976562 236.753906 268.792969 243.203125 261.097656 244.910156 Z M 261.097656 244.910156 " fill-opacity="1" fill-rule="nonzero"/><path fill="#1d1d1b" d="M 308.0625 162.710938 C 307.855469 162.488281 307.617188 162.28125 307.335938 162.125 C 298.480469 157.03125 287.238281 159.226562 280.085938 166.238281 C 273.265625 172.917969 270.851562 183.339844 275.664062 191.855469 C 279.996094 199.507812 288.683594 204.671875 297.515625 204.5625 C 306.640625 204.445312 314.050781 198 316.519531 189.390625 C 319.25 179.871094 316.605469 168.40625 308.0625 162.710938 Z M 300.035156 200.085938 C 292.960938 201.300781 285.46875 197.839844 281.078125 192.320312 C 276.136719 186.113281 276.257812 177.84375 281.027344 171.535156 C 286.652344 164.09375 296.769531 161.394531 305.0625 165.734375 C 305.078125 165.75 305.085938 165.765625 305.097656 165.773438 C 317.503906 173.628906 315.851562 197.371094 300.035156 200.085938 Z M 300.035156 200.085938 " fill-opacity="1" fill-rule="nonzero"/><path fill="#1d1d1b" d="M 329.226562 84.695312 C 329.195312 84.6875 329.171875 84.695312 329.144531 84.6875 C 328.996094 84.613281 328.871094 84.519531 328.691406 84.472656 C 317.933594 81.757812 305.988281 86.730469 299.640625 95.6875 C 293.082031 104.941406 293.941406 117.050781 300.539062 126.050781 C 307.078125 134.964844 318.199219 139.167969 328.839844 135.75 C 338.875 132.523438 347.136719 123.027344 347.746094 112.34375 C 348.476562 99.585938 341.347656 88.792969 329.226562 84.695312 Z M 331.238281 130.136719 C 322.910156 134.558594 313.222656 133.117188 306.507812 126.496094 C 299.78125 119.867188 297.117188 109.484375 301.449219 100.859375 C 306.152344 91.492188 317.414062 86.34375 327.558594 88.578125 C 327.582031 88.585938 327.597656 88.609375 327.617188 88.617188 C 336.355469 91.566406 342.457031 98.292969 343.429688 107.617188 C 344.398438 116.996094 339.570312 125.710938 331.238281 130.136719 Z M 331.238281 130.136719 " fill-opacity="1" fill-rule="nonzero"/><path fill="#1d1d1b" d="M 273.6875 29.691406 C 273.414062 29.613281 273.101562 29.589844 272.746094 29.648438 C 263.378906 31.261719 255.203125 38.523438 252.722656 47.734375 C 250.222656 57.03125 254.257812 66.335938 262.511719 71.160156 C 270.523438 75.84375 280.773438 76.101562 288.691406 71.09375 C 297.28125 65.65625 302.367188 54.621094 299.359375 44.695312 C 296.132812 34.019531 284.34375 28.082031 273.6875 29.691406 Z M 288.75 65.773438 C 282.789062 70.878906 274.5625 71.824219 267.371094 68.867188 C 260.285156 65.953125 255.410156 59.355469 256.300781 51.507812 C 257.277344 42.933594 264.476562 35.648438 272.867188 33.976562 C 273.035156 33.984375 273.199219 34.019531 273.390625 33.984375 C 281.382812 32.445312 290.328125 35.878906 294.214844 43.296875 C 298.21875 50.960938 295.050781 60.382812 288.75 65.773438 Z M 288.75 65.773438 " fill-opacity="1" fill-rule="nonzero"/></svg>