<svg xmlns="http://www.w3.org/2000/svg" xmlns:xlink="http://www.w3.org/1999/xlink" width="500" zoomAndPan="magnify" viewBox="0 0 375 367.499994" height="490" preserveAspectRatio="xMidYMid meet" version="1.0"><defs><clipPath id="6dc4d93998"><path d="M 3 26 L 347 26 L 347 367 L 3 367 Z M 3 26 " clip-rule="nonzero"/></clipPath><clipPath id="3fde067c0b"><path d="M 163 0 L 374.746094 0 L 374.746094 212 L 163 212 Z M 163 0 " clip-rule="nonzero"/></clipPath></defs><g clip-path="url(#6dc4d93998)"><path fill="#000000" d="M 343.757812 286.203125 C 343.203125 284.617188 342.351562 283.214844 341.203125 281.992188 C 340.054688 280.765625 338.707031 279.828125 337.164062 279.167969 C 318.261719 272.84375 293.5625 264.925781 270.101562 259.398438 C 265.230469 258.246094 252.75 260.589844 249.117188 266.121094 L 234.15625 289.078125 C 233.554688 289.90625 232.820312 290.585938 231.941406 291.113281 C 231.066406 291.644531 230.121094 291.980469 229.109375 292.128906 C 226.816406 292.441406 224.546875 292.304688 222.308594 291.710938 C 220.066406 291.121094 218.027344 290.125 216.183594 288.722656 C 206.535156 281.867188 169.085938 247.410156 146.996094 226.355469 C 124.863281 203.179688 91.089844 166.242188 84.273438 156.644531 C 82.851562 154.8125 81.847656 152.773438 81.253906 150.535156 C 80.664062 148.292969 80.53125 146.023438 80.863281 143.730469 C 81.015625 142.714844 81.359375 141.769531 81.898438 140.894531 C 82.4375 140.015625 83.125 139.28125 83.960938 138.6875 L 96.667969 130.414062 L 106.804688 123.824219 C 112.335938 120.242188 114.636719 107.722656 113.488281 102.859375 C 109.148438 84.371094 103.128906 63.714844 93.832031 36.15625 C 93.167969 34.605469 92.21875 33.25 90.988281 32.097656 C 89.753906 30.941406 88.34375 30.082031 86.75 29.519531 C 85.363281 28.835938 83.925781 28.289062 82.433594 27.875 C 80.941406 27.460938 79.425781 27.191406 77.886719 27.0625 C 76.34375 26.933594 74.804688 26.949219 73.265625 27.109375 C 71.726562 27.269531 70.214844 27.574219 68.734375 28.015625 C 58.980469 32.03125 49.714844 36.953125 40.933594 42.789062 C 32.148438 48.625 24.019531 55.261719 16.542969 62.695312 C 12.277344 67.011719 8.25 71.539062 4.460938 76.273438 C 3.726562 77.210938 3.328125 78.273438 3.265625 79.460938 C 0.253906 134.574219 37.527344 209.148438 98.171875 269.304688 C 156.425781 330.167969 231.632812 369.84375 287.628906 369.84375 C 289.664062 369.84375 291.746094 369.84375 293.738281 369.84375 C 294.925781 369.78125 295.988281 369.382812 296.925781 368.652344 C 301.660156 364.855469 306.175781 360.816406 310.472656 356.53125 C 322.410156 344.617188 332.222656 331.15625 339.90625 316.148438 C 341.855469 312.34375 343.671875 308.496094 345.308594 304.558594 C 345.769531 303.050781 346.082031 301.511719 346.25 299.941406 C 346.417969 298.375 346.433594 296.804688 346.300781 295.230469 C 346.167969 293.660156 345.890625 292.113281 345.460938 290.59375 C 345.035156 289.078125 344.464844 287.613281 343.757812 286.203125 Z M 331.851562 307.300781 C 279.882812 298.898438 260.140625 284.433594 254.164062 278.769531 L 258.28125 272.445312 C 261.226562 270.933594 264.355469 270.195312 267.664062 270.234375 C 290.375 275.585938 314.453125 283.503906 333.046875 289.476562 C 334.007812 291.058594 334.664062 292.761719 335.023438 294.578125 C 335.378906 296.394531 335.414062 298.21875 335.128906 300.046875 C 334.109375 302.480469 333.046875 304.914062 331.941406 307.257812 Z M 65.371094 41.417969 C 67.847656 40.226562 70.371094 39.074219 72.984375 38.015625 C 74.816406 37.726562 76.640625 37.765625 78.457031 38.121094 C 80.273438 38.476562 81.976562 39.136719 83.5625 40.09375 C 92.636719 67.207031 98.570312 87.378906 102.773438 105.425781 C 102.835938 108.730469 102.113281 111.855469 100.605469 114.800781 L 95.074219 118.382812 C 90.917969 112.792969 87.160156 106.945312 83.792969 100.847656 C 80.425781 94.75 77.480469 88.453125 74.960938 81.960938 C 72.441406 75.464844 70.367188 68.832031 68.738281 62.058594 C 67.109375 55.289062 65.945312 48.4375 65.238281 41.507812 Z M 65.371094 41.417969 " fill-opacity="1" fill-rule="nonzero"/></g><g clip-path="url(#3fde067c0b)"><path fill="#ff66c4" d="M 369.300781 211.449219 C 368.9375 211.449219 368.578125 211.414062 368.222656 211.34375 C 367.863281 211.273438 367.519531 211.167969 367.183594 211.027344 C 366.847656 210.890625 366.527344 210.71875 366.226562 210.515625 C 365.925781 210.316406 365.644531 210.085938 365.386719 209.828125 C 365.132812 209.574219 364.902344 209.292969 364.699219 208.992188 C 364.496094 208.691406 364.328125 208.371094 364.1875 208.035156 C 364.050781 207.699219 363.945312 207.355469 363.875 207 C 363.800781 206.644531 363.765625 206.285156 363.765625 205.921875 C 363.761719 202.742188 363.679688 199.5625 363.519531 196.390625 C 363.359375 193.214844 363.121094 190.042969 362.808594 186.882812 C 362.492188 183.71875 362.097656 180.5625 361.628906 177.417969 C 361.15625 174.273438 360.609375 171.144531 359.988281 168.027344 C 359.363281 164.910156 358.664062 161.808594 357.886719 158.726562 C 357.113281 155.644531 356.261719 152.582031 355.335938 149.539062 C 354.410156 146.496094 353.410156 143.480469 352.335938 140.488281 C 351.261719 137.496094 350.113281 134.53125 348.894531 131.59375 C 347.675781 128.65625 346.386719 125.753906 345.023438 122.878906 C 343.660156 120.007812 342.230469 117.167969 340.730469 114.367188 C 339.226562 111.5625 337.660156 108.796875 336.023438 106.070312 C 334.386719 103.34375 332.683594 100.660156 330.914062 98.015625 C 329.148438 95.375 327.316406 92.777344 325.417969 90.222656 C 323.523438 87.671875 321.566406 85.164062 319.546875 82.707031 C 317.53125 80.25 315.453125 77.84375 313.316406 75.488281 C 311.179688 73.132812 308.984375 70.832031 306.734375 68.582031 C 304.488281 66.332031 302.183594 64.140625 299.828125 62.007812 C 297.46875 59.871094 295.0625 57.792969 292.601562 55.777344 C 290.144531 53.757812 287.636719 51.804688 285.082031 49.910156 C 282.527344 48.011719 279.929688 46.183594 277.285156 44.414062 C 274.640625 42.648438 271.953125 40.945312 269.226562 39.308594 C 266.496094 37.671875 263.730469 36.105469 260.925781 34.605469 C 258.121094 33.105469 255.28125 31.671875 252.40625 30.3125 C 249.53125 28.949219 246.625 27.660156 243.6875 26.441406 C 240.746094 25.222656 237.78125 24.074219 234.785156 23 C 231.792969 21.925781 228.773438 20.925781 225.730469 20 C 222.683594 19.074219 219.621094 18.226562 216.535156 17.449219 C 213.449219 16.671875 210.347656 15.972656 207.226562 15.347656 C 204.109375 14.726562 200.976562 14.175781 197.828125 13.707031 C 194.683594 13.234375 191.527344 12.84375 188.359375 12.527344 C 185.195312 12.210938 182.023438 11.972656 178.84375 11.8125 C 175.667969 11.652344 172.488281 11.566406 169.308594 11.5625 C 168.941406 11.5625 168.582031 11.527344 168.226562 11.457031 C 167.871094 11.386719 167.523438 11.28125 167.1875 11.140625 C 166.851562 11.003906 166.535156 10.832031 166.234375 10.632812 C 165.929688 10.429688 165.652344 10.199219 165.394531 9.945312 C 165.136719 9.6875 164.90625 9.40625 164.707031 9.105469 C 164.503906 8.804688 164.332031 8.484375 164.195312 8.148438 C 164.054688 7.8125 163.949219 7.46875 163.878906 7.113281 C 163.808594 6.757812 163.773438 6.398438 163.773438 6.035156 C 163.773438 5.671875 163.808594 5.3125 163.878906 4.957031 C 163.949219 4.597656 164.054688 4.253906 164.195312 3.917969 C 164.332031 3.582031 164.503906 3.265625 164.707031 2.960938 C 164.90625 2.660156 165.136719 2.382812 165.394531 2.125 C 165.652344 1.867188 165.929688 1.636719 166.234375 1.4375 C 166.535156 1.234375 166.851562 1.066406 167.1875 0.925781 C 167.523438 0.785156 167.871094 0.683594 168.226562 0.609375 C 168.582031 0.539062 168.941406 0.503906 169.308594 0.503906 C 172.667969 0.511719 176.027344 0.597656 179.386719 0.769531 C 182.742188 0.9375 186.09375 1.191406 189.441406 1.527344 C 192.785156 1.859375 196.121094 2.277344 199.445312 2.773438 C 202.769531 3.273438 206.082031 3.851562 209.378906 4.511719 C 212.675781 5.171875 215.953125 5.910156 219.210938 6.730469 C 222.472656 7.550781 225.710938 8.453125 228.925781 9.429688 C 232.144531 10.410156 235.332031 11.46875 238.496094 12.601562 C 241.660156 13.738281 244.796875 14.949219 247.898438 16.238281 C 251.003906 17.527344 254.078125 18.890625 257.113281 20.328125 C 260.152344 21.769531 263.152344 23.28125 266.117188 24.867188 C 269.078125 26.453125 272.003906 28.113281 274.886719 29.839844 C 277.769531 31.570312 280.605469 33.367188 283.398438 35.238281 C 286.195312 37.105469 288.941406 39.042969 291.640625 41.042969 C 294.339844 43.046875 296.988281 45.113281 299.585938 47.246094 C 302.183594 49.378906 304.726562 51.574219 307.21875 53.832031 C 309.707031 56.089844 312.140625 58.40625 314.515625 60.78125 C 316.894531 63.15625 319.210938 65.589844 321.46875 68.078125 C 323.726562 70.570312 325.917969 73.113281 328.050781 75.710938 C 330.183594 78.308594 332.25 80.957031 334.253906 83.652344 C 336.257812 86.351562 338.191406 89.097656 340.058594 91.890625 C 341.929688 94.683594 343.726562 97.519531 345.453125 100.402344 C 347.183594 103.285156 348.839844 106.207031 350.425781 109.167969 C 352.011719 112.128906 353.523438 115.128906 354.960938 118.167969 C 356.398438 121.203125 357.761719 124.273438 359.050781 127.375 C 360.339844 130.480469 361.550781 133.613281 362.683594 136.773438 C 363.816406 139.9375 364.875 143.125 365.851562 146.339844 C 366.828125 149.554688 367.726562 152.789062 368.546875 156.046875 C 369.363281 159.304688 370.105469 162.582031 370.761719 165.878906 C 371.421875 169.171875 371.996094 172.480469 372.492188 175.804688 C 372.988281 179.125 373.402344 182.457031 373.734375 185.800781 C 374.070312 189.144531 374.320312 192.492188 374.488281 195.847656 C 374.65625 199.203125 374.742188 202.5625 374.746094 205.921875 C 374.75 206.28125 374.714844 206.636719 374.648438 206.992188 C 374.582031 207.34375 374.480469 207.6875 374.34375 208.023438 C 374.210938 208.355469 374.042969 208.675781 373.84375 208.976562 C 373.648438 209.277344 373.421875 209.554688 373.167969 209.8125 C 372.917969 210.066406 372.640625 210.296875 372.34375 210.5 C 372.042969 210.703125 371.730469 210.875 371.398438 211.015625 C 371.066406 211.15625 370.722656 211.261719 370.371094 211.335938 C 370.019531 211.410156 369.660156 211.445312 369.300781 211.449219 Z M 369.300781 211.449219 " fill-opacity="1" fill-rule="nonzero"/></g><path fill="#ff66c4" d="M 310.558594 211.40625 C 310.195312 211.40625 309.835938 211.371094 309.480469 211.296875 C 309.125 211.226562 308.777344 211.125 308.441406 210.984375 C 308.105469 210.84375 307.789062 210.675781 307.484375 210.472656 C 307.183594 210.273438 306.902344 210.042969 306.648438 209.785156 C 306.390625 209.527344 306.160156 209.25 305.957031 208.949219 C 305.757812 208.644531 305.585938 208.328125 305.449219 207.992188 C 305.308594 207.65625 305.203125 207.3125 305.132812 206.953125 C 305.0625 206.597656 305.027344 206.238281 305.027344 205.875 C 305.023438 203.65625 304.96875 201.4375 304.859375 199.222656 C 304.75 197.007812 304.582031 194.792969 304.363281 192.585938 C 304.144531 190.378906 303.871094 188.175781 303.546875 185.980469 C 303.21875 183.785156 302.839844 181.601562 302.402344 179.425781 C 301.96875 177.25 301.480469 175.085938 300.941406 172.933594 C 300.402344 170.78125 299.808594 168.640625 299.164062 166.519531 C 298.515625 164.394531 297.820312 162.289062 297.070312 160.199219 C 296.320312 158.109375 295.523438 156.042969 294.671875 153.992188 C 293.820312 151.941406 292.921875 149.914062 291.972656 147.90625 C 291.019531 145.902344 290.023438 143.921875 288.976562 141.964844 C 287.925781 140.007812 286.832031 138.078125 285.691406 136.175781 C 284.546875 134.269531 283.359375 132.398438 282.125 130.550781 C 280.890625 128.707031 279.613281 126.894531 278.289062 125.113281 C 276.96875 123.328125 275.601562 121.582031 274.191406 119.867188 C 272.785156 118.148438 271.332031 116.46875 269.839844 114.828125 C 268.351562 113.183594 266.820312 111.574219 265.25 110.007812 C 263.679688 108.4375 262.070312 106.90625 260.425781 105.417969 C 258.78125 103.925781 257.097656 102.476562 255.382812 101.070312 C 253.664062 99.660156 251.914062 98.296875 250.132812 96.976562 C 248.347656 95.652344 246.535156 94.375 244.6875 93.140625 C 242.839844 91.910156 240.964844 90.722656 239.0625 89.582031 C 237.15625 88.4375 235.226562 87.34375 233.265625 86.300781 C 231.308594 85.253906 229.324219 84.253906 227.320312 83.304688 C 225.3125 82.355469 223.28125 81.457031 221.230469 80.605469 C 219.179688 79.757812 217.109375 78.957031 215.015625 78.207031 C 212.925781 77.460938 210.820312 76.765625 208.695312 76.117188 C 206.570312 75.472656 204.429688 74.882812 202.277344 74.339844 C 200.121094 73.800781 197.957031 73.3125 195.777344 72.878906 C 193.601562 72.445312 191.414062 72.066406 189.214844 71.738281 C 187.019531 71.410156 184.816406 71.140625 182.605469 70.921875 C 180.398438 70.703125 178.183594 70.539062 175.964844 70.425781 C 173.746094 70.316406 171.527344 70.261719 169.308594 70.257812 C 168.9375 70.277344 168.570312 70.257812 168.203125 70.199219 C 167.839844 70.144531 167.484375 70.046875 167.140625 69.917969 C 166.792969 69.785156 166.464844 69.617188 166.15625 69.417969 C 165.84375 69.21875 165.558594 68.988281 165.296875 68.726562 C 165.03125 68.464844 164.800781 68.183594 164.597656 67.871094 C 164.394531 67.5625 164.226562 67.238281 164.089844 66.894531 C 163.957031 66.550781 163.855469 66.195312 163.796875 65.832031 C 163.734375 65.464844 163.714844 65.097656 163.730469 64.730469 C 163.730469 64.367188 163.765625 64.007812 163.835938 63.652344 C 163.90625 63.296875 164.011719 62.949219 164.148438 62.613281 C 164.289062 62.277344 164.460938 61.960938 164.660156 61.660156 C 164.863281 61.355469 165.09375 61.078125 165.351562 60.820312 C 165.605469 60.5625 165.886719 60.335938 166.1875 60.132812 C 166.492188 59.929688 166.808594 59.761719 167.144531 59.621094 C 167.480469 59.484375 167.828125 59.378906 168.183594 59.308594 C 168.539062 59.238281 168.898438 59.203125 169.261719 59.203125 C 171.664062 59.203125 174.066406 59.261719 176.464844 59.378906 C 178.867188 59.496094 181.261719 59.671875 183.652344 59.90625 C 186.042969 60.144531 188.425781 60.4375 190.804688 60.789062 C 193.179688 61.140625 195.546875 61.550781 197.902344 62.019531 C 200.257812 62.488281 202.601562 63.011719 204.933594 63.597656 C 207.261719 64.179688 209.578125 64.820312 211.878906 65.515625 C 214.175781 66.214844 216.457031 66.964844 218.71875 67.773438 C 220.980469 68.582031 223.222656 69.445312 225.441406 70.367188 C 227.660156 71.285156 229.855469 72.257812 232.027344 73.28125 C 234.203125 74.308594 236.347656 75.386719 238.464844 76.519531 C 240.585938 77.652344 242.675781 78.832031 244.734375 80.066406 C 246.796875 81.300781 248.824219 82.585938 250.824219 83.917969 C 252.820312 85.253906 254.785156 86.632812 256.714844 88.0625 C 258.644531 89.492188 260.539062 90.96875 262.394531 92.492188 C 264.253906 94.015625 266.070312 95.582031 267.851562 97.195312 C 269.632812 98.808594 271.371094 100.460938 273.070312 102.160156 C 274.769531 103.855469 276.425781 105.59375 278.039062 107.371094 C 279.65625 109.152344 281.222656 110.96875 282.75 112.824219 C 284.273438 114.679688 285.75 116.570312 287.183594 118.5 C 288.613281 120.425781 289.996094 122.386719 291.332031 124.382812 C 292.667969 126.378906 293.953125 128.40625 295.1875 130.464844 C 296.421875 132.527344 297.609375 134.613281 298.742188 136.730469 C 299.875 138.847656 300.953125 140.992188 301.980469 143.160156 C 303.007812 145.332031 303.984375 147.523438 304.902344 149.742188 C 305.824219 151.960938 306.6875 154.199219 307.5 156.460938 C 308.308594 158.71875 309.0625 161 309.761719 163.296875 C 310.457031 165.59375 311.097656 167.90625 311.683594 170.234375 C 312.269531 172.5625 312.792969 174.90625 313.265625 177.257812 C 313.734375 179.613281 314.144531 181.976562 314.496094 184.351562 C 314.851562 186.726562 315.144531 189.109375 315.382812 191.496094 C 315.617188 193.886719 315.796875 196.28125 315.914062 198.679688 C 316.03125 201.074219 316.09375 203.476562 316.09375 205.875 C 316.09375 206.238281 316.058594 206.597656 315.988281 206.953125 C 315.914062 207.3125 315.8125 207.65625 315.671875 207.992188 C 315.53125 208.328125 315.363281 208.644531 315.160156 208.949219 C 314.957031 209.25 314.730469 209.527344 314.472656 209.785156 C 314.214844 210.042969 313.9375 210.273438 313.632812 210.472656 C 313.332031 210.675781 313.011719 210.84375 312.675781 210.984375 C 312.339844 211.125 311.996094 211.226562 311.640625 211.296875 C 311.28125 211.371094 310.921875 211.40625 310.558594 211.40625 Z M 310.558594 211.40625 " fill-opacity="1" fill-rule="nonzero"/><path fill="#ff66c4" d="M 248.675781 211.449219 C 248.3125 211.449219 247.953125 211.414062 247.597656 211.34375 C 247.238281 211.273438 246.894531 211.167969 246.558594 211.027344 C 246.222656 210.890625 245.902344 210.71875 245.601562 210.515625 C 245.300781 210.316406 245.019531 210.085938 244.761719 209.828125 C 244.507812 209.574219 244.277344 209.292969 244.074219 208.992188 C 243.875 208.691406 243.703125 208.371094 243.5625 208.035156 C 243.425781 207.699219 243.320312 207.355469 243.25 207 C 243.179688 206.644531 243.140625 206.285156 243.140625 205.921875 C 243.140625 204.710938 243.109375 203.503906 243.050781 202.300781 C 242.988281 201.09375 242.898438 199.890625 242.777344 198.6875 C 242.660156 197.484375 242.511719 196.285156 242.332031 195.09375 C 242.152344 193.898438 241.945312 192.707031 241.707031 191.523438 C 241.472656 190.339844 241.207031 189.160156 240.910156 187.992188 C 240.617188 186.820312 240.292969 185.65625 239.941406 184.5 C 239.589844 183.34375 239.210938 182.199219 238.800781 181.0625 C 238.394531 179.925781 237.957031 178.796875 237.496094 177.683594 C 237.03125 176.566406 236.542969 175.464844 236.023438 174.371094 C 235.507812 173.28125 234.964844 172.203125 234.394531 171.136719 C 233.824219 170.074219 233.226562 169.023438 232.605469 167.988281 C 231.984375 166.949219 231.335938 165.929688 230.664062 164.925781 C 229.992188 163.921875 229.296875 162.9375 228.574219 161.964844 C 227.855469 160.996094 227.113281 160.042969 226.34375 159.109375 C 225.578125 158.175781 224.789062 157.261719 223.976562 156.367188 C 223.164062 155.472656 222.332031 154.597656 221.476562 153.746094 C 220.621094 152.890625 219.746094 152.058594 218.851562 151.246094 C 217.957031 150.4375 217.042969 149.648438 216.109375 148.878906 C 215.171875 148.113281 214.222656 147.371094 213.25 146.652344 C 212.28125 145.933594 211.292969 145.234375 210.285156 144.566406 C 209.28125 143.894531 208.261719 143.246094 207.226562 142.625 C 206.1875 142.003906 205.136719 141.410156 204.070312 140.839844 C 203.007812 140.269531 201.925781 139.726562 200.835938 139.210938 C 199.742188 138.691406 198.636719 138.203125 197.519531 137.738281 C 196.40625 137.277344 195.277344 136.839844 194.140625 136.433594 C 193.003906 136.027344 191.855469 135.644531 190.699219 135.296875 C 189.542969 134.945312 188.378906 134.621094 187.207031 134.324219 C 186.035156 134.03125 184.855469 133.765625 183.667969 133.53125 C 182.484375 133.292969 181.292969 133.085938 180.097656 132.90625 C 178.902344 132.726562 177.703125 132.578125 176.5 132.460938 C 175.296875 132.339844 174.09375 132.25 172.886719 132.1875 C 171.679688 132.128906 170.472656 132.097656 169.261719 132.097656 C 168.898438 132.097656 168.539062 132.0625 168.183594 131.988281 C 167.828125 131.917969 167.480469 131.8125 167.144531 131.675781 C 166.808594 131.535156 166.492188 131.367188 166.1875 131.164062 C 165.886719 130.960938 165.605469 130.734375 165.351562 130.476562 C 165.09375 130.21875 164.863281 129.941406 164.660156 129.640625 C 164.460938 129.335938 164.289062 129.019531 164.148438 128.683594 C 164.011719 128.347656 163.90625 128 163.835938 127.644531 C 163.765625 127.289062 163.730469 126.929688 163.730469 126.566406 C 163.730469 126.203125 163.765625 125.84375 163.835938 125.488281 C 163.90625 125.132812 164.011719 124.785156 164.148438 124.453125 C 164.289062 124.117188 164.460938 123.796875 164.660156 123.496094 C 164.863281 123.195312 165.09375 122.914062 165.351562 122.65625 C 165.605469 122.402344 165.886719 122.171875 166.1875 121.96875 C 166.492188 121.769531 166.808594 121.597656 167.144531 121.460938 C 167.480469 121.320312 167.828125 121.214844 168.183594 121.144531 C 168.539062 121.074219 168.898438 121.039062 169.261719 121.039062 C 170.652344 121.039062 172.042969 121.074219 173.429688 121.144531 C 174.816406 121.214844 176.203125 121.316406 177.585938 121.453125 C 178.96875 121.59375 180.347656 121.761719 181.722656 121.96875 C 183.097656 122.171875 184.464844 122.410156 185.828125 122.683594 C 187.191406 122.957031 188.546875 123.261719 189.894531 123.597656 C 191.242188 123.9375 192.582031 124.308594 193.910156 124.714844 C 195.242188 125.117188 196.558594 125.554688 197.867188 126.023438 C 199.175781 126.492188 200.472656 126.992188 201.757812 127.523438 C 203.039062 128.054688 204.308594 128.617188 205.566406 129.210938 C 206.820312 129.808594 208.0625 130.433594 209.289062 131.085938 C 210.515625 131.742188 211.722656 132.425781 212.914062 133.140625 C 214.105469 133.855469 215.28125 134.597656 216.433594 135.371094 C 217.589844 136.140625 218.726562 136.941406 219.84375 137.769531 C 220.957031 138.597656 222.054688 139.453125 223.128906 140.332031 C 224.203125 141.214844 225.253906 142.121094 226.285156 143.054688 C 227.3125 143.984375 228.320312 144.945312 229.304688 145.925781 C 230.285156 146.90625 231.242188 147.914062 232.175781 148.941406 C 233.109375 149.972656 234.019531 151.023438 234.898438 152.09375 C 235.78125 153.167969 236.636719 154.261719 237.464844 155.378906 C 238.292969 156.492188 239.09375 157.628906 239.867188 158.785156 C 240.636719 159.9375 241.382812 161.109375 242.097656 162.300781 C 242.8125 163.492188 243.496094 164.699219 244.152344 165.925781 C 244.808594 167.148438 245.433594 168.390625 246.027344 169.644531 C 246.621094 170.898438 247.1875 172.167969 247.71875 173.449219 C 248.25 174.734375 248.753906 176.027344 249.222656 177.335938 C 249.691406 178.644531 250.128906 179.960938 250.53125 181.289062 C 250.9375 182.617188 251.308594 183.957031 251.644531 185.304688 C 251.984375 186.652344 252.289062 188.003906 252.5625 189.367188 C 252.835938 190.730469 253.074219 192.097656 253.277344 193.46875 C 253.484375 194.84375 253.65625 196.222656 253.792969 197.601562 C 253.929688 198.984375 254.03125 200.371094 254.101562 201.757812 C 254.171875 203.144531 254.207031 204.53125 254.207031 205.921875 C 254.207031 206.285156 254.171875 206.644531 254.101562 207 C 254.03125 207.355469 253.925781 207.699219 253.789062 208.035156 C 253.648438 208.371094 253.476562 208.691406 253.277344 208.992188 C 253.074219 209.292969 252.84375 209.574219 252.589844 209.828125 C 252.332031 210.085938 252.050781 210.316406 251.75 210.515625 C 251.449219 210.71875 251.128906 210.890625 250.792969 211.027344 C 250.457031 211.167969 250.113281 211.273438 249.753906 211.34375 C 249.398438 211.414062 249.039062 211.449219 248.675781 211.449219 Z M 248.675781 211.449219 " fill-opacity="1" fill-rule="nonzero"/></svg>