<svg xmlns="http://www.w3.org/2000/svg" xmlns:xlink="http://www.w3.org/1999/xlink" width="200" zoomAndPan="magnify" viewBox="0 0 150 135.000003" height="180" preserveAspectRatio="xMidYMid meet" version="1.0"><defs><clipPath id="3a4e6d8fc4"><path d="M 5 3 L 145 3 L 145 133.996094 L 5 133.996094 Z M 5 3 " clip-rule="nonzero"/></clipPath><clipPath id="27429e933a"><path d="M 104.96875 21.269531 L 132.511719 21.269531 L 132.511719 47.324219 L 104.96875 47.324219 Z M 104.96875 21.269531 " clip-rule="nonzero"/></clipPath></defs><g clip-path="url(#3a4e6d8fc4)"><path fill="#000000" d="M 114 4.96875 C 94.953125 0.00390625 78.9375 10.171875 75 12.976562 C 71.058594 10.171875 55.035156 0.00390625 36 4.96875 C 13.257812 10.894531 0.90625 36 6.632812 64.667969 C 12.394531 93.375 33.3125 126.675781 74.746094 134.03125 C 74.828125 134.046875 74.914062 134.054688 75 134.054688 C 75.085938 134.054688 75.171875 134.046875 75.253906 134.03125 C 116.6875 126.675781 137.605469 93.375 143.367188 64.667969 L 143.367188 64.664062 C 149.09375 36 136.742188 10.894531 114 4.96875 Z M 140.519531 64.097656 C 134.957031 91.808594 114.824219 123.9375 75 131.132812 C 35.175781 123.9375 15.042969 91.808594 9.480469 64.097656 C 4.066406 36.988281 15.527344 13.300781 36.738281 7.773438 C 40.042969 6.910156 43.269531 6.550781 46.351562 6.550781 C 61.988281 6.550781 73.957031 15.808594 74.097656 15.917969 C 74.625 16.335938 75.375 16.332031 75.902344 15.917969 C 76.070312 15.785156 93.152344 2.53125 113.261719 7.773438 C 134.472656 13.300781 145.933594 36.988281 140.519531 64.097656 Z M 117.339844 72.328125 C 117.339844 78.722656 114.28125 83.65625 107.113281 88.828125 C 99.671875 94.191406 90.53125 97.855469 82.03125 98.882812 C 75.222656 99.699219 67.453125 103.457031 58.277344 110.371094 C 58.015625 110.570312 57.707031 110.664062 57.402344 110.664062 C 56.964844 110.664062 56.527344 110.46875 56.242188 110.089844 C 55.757812 109.449219 55.886719 108.542969 56.527344 108.058594 C 66.125 100.828125 74.351562 96.882812 81.683594 96 C 89.707031 95.03125 98.355469 91.5625 105.410156 86.476562 C 113.339844 80.757812 114.429688 76.296875 114.429688 72.328125 C 114.429688 69.820312 113.457031 68.214844 112.613281 67.277344 C 112.300781 67.855469 111.972656 68.429688 111.613281 68.992188 C 109.226562 72.734375 104.601562 77.203125 104.40625 77.390625 C 104.121094 77.664062 103.757812 77.796875 103.394531 77.796875 C 103.015625 77.796875 102.636719 77.648438 102.351562 77.355469 C 101.792969 76.777344 101.808594 75.859375 102.386719 75.304688 C 102.433594 75.257812 106.960938 70.886719 109.160156 67.433594 C 111.644531 63.535156 111.871094 61.355469 110.054688 58.789062 C 109.007812 57.3125 107.976562 56.378906 107.183594 55.792969 C 106.898438 56.695312 106.519531 57.636719 105.992188 58.660156 C 104.214844 62.125 100.417969 65.949219 98.597656 67.789062 C 98.3125 68.078125 97.9375 68.21875 97.5625 68.21875 C 97.195312 68.21875 96.824219 68.078125 96.542969 67.800781 C 95.972656 67.238281 95.964844 66.320312 96.53125 65.75 C 98.25 64.015625 101.832031 60.402344 103.40625 57.335938 C 105.597656 53.066406 105.011719 51.105469 103.0625 48.785156 C 101.882812 47.375 100.5625 46.636719 99.589844 46.242188 C 99.414062 47.070312 99.152344 47.953125 98.738281 48.921875 C 96.261719 54.683594 90.15625 60.136719 89.898438 60.367188 C 89.296875 60.902344 88.378906 60.84375 87.847656 60.246094 C 87.3125 59.648438 87.367188 58.730469 87.96875 58.199219 C 88.023438 58.148438 93.847656 52.9375 96.066406 47.777344 C 98.199219 42.8125 96.019531 40.921875 94.195312 39.929688 C 92.804688 39.175781 91.234375 39.117188 90.160156 39.203125 C 89.5625 39.25 89.0625 39.71875 88.941406 40.34375 C 87.597656 47.175781 81.484375 50.796875 81.222656 50.949219 C 80.804688 51.195312 80.285156 51.214844 79.851562 50.996094 C 79.414062 50.78125 79.113281 50.363281 79.050781 49.878906 C 79.039062 49.804688 78.042969 42.125 75.617188 37.109375 C 73.824219 33.394531 71.984375 31.203125 70.144531 30.589844 C 68.898438 30.171875 67.546875 30.40625 65.746094 31.335938 C 63.332031 32.582031 64.144531 37.902344 64.859375 42.59375 C 65.054688 43.875 65.25 45.140625 65.386719 46.339844 C 66.148438 53.03125 64.390625 62.355469 59.632812 66.472656 C 51.011719 73.925781 37.371094 79.316406 36.796875 79.542969 C 36.621094 79.609375 36.441406 79.640625 36.265625 79.640625 C 35.683594 79.640625 35.136719 79.292969 34.910156 78.722656 C 34.617188 77.976562 34.984375 77.136719 35.734375 76.84375 C 35.871094 76.789062 49.492188 71.40625 57.726562 64.277344 C 61.589844 60.941406 63.1875 52.703125 62.5 46.671875 C 62.363281 45.503906 62.175781 44.273438 61.988281 43.03125 C 61.082031 37.097656 60.140625 30.964844 64.410156 28.761719 C 66.929688 27.460938 69.042969 27.167969 71.0625 27.839844 C 73.75 28.734375 76.027344 31.277344 78.234375 35.851562 C 80.003906 39.507812 81.046875 44.269531 81.554688 47.097656 C 83.179688 45.6875 85.417969 43.199219 86.085938 39.789062 C 86.460938 37.890625 88.039062 36.460938 89.929688 36.3125 C 92.027344 36.148438 93.988281 36.515625 95.582031 37.378906 C 97.230469 38.273438 99.378906 40.070312 99.75 43.226562 C 101.09375 43.636719 103.355469 44.613281 105.292969 46.925781 C 106.886719 48.824219 107.667969 50.652344 107.695312 52.667969 C 108.792969 53.273438 110.609375 54.546875 112.425781 57.113281 C 114.265625 59.710938 114.421875 62.125 113.796875 64.402344 C 115.128906 65.507812 117.339844 67.976562 117.339844 72.328125 Z M 117.339844 72.328125 " fill-opacity="1" fill-rule="nonzero"/></g><g clip-path="url(#27429e933a)"><path fill="#000000" d="M 123.816406 43.703125 C 120.175781 43.703125 117.03125 41.648438 115.464844 38.636719 L 123.816406 38.636719 L 125.265625 35.742188 L 114.507812 35.742188 C 114.433594 35.265625 114.390625 34.789062 114.390625 34.296875 C 114.390625 33.804688 114.433594 33.328125 114.507812 32.847656 L 123.816406 32.847656 L 125.265625 29.957031 L 115.464844 29.957031 C 117.03125 26.945312 120.191406 24.890625 123.816406 24.890625 C 126.148438 24.890625 128.292969 25.742188 129.945312 27.164062 L 132.511719 24.601562 C 130.207031 22.53125 127.148438 21.273438 123.816406 21.273438 C 118.132812 21.273438 113.316406 24.90625 111.519531 29.957031 L 106.417969 29.957031 L 104.96875 32.847656 L 110.851562 32.847656 C 110.796875 33.328125 110.765625 33.804688 110.765625 34.296875 C 110.765625 34.789062 110.796875 35.265625 110.851562 35.742188 L 106.417969 35.742188 L 104.96875 38.636719 L 111.519531 38.636719 C 113.316406 43.6875 118.132812 47.320312 123.816406 47.320312 C 127.164062 47.320312 130.207031 46.0625 132.511719 43.992188 L 129.933594 41.429688 C 128.292969 42.847656 126.164062 43.703125 123.816406 43.703125 Z M 123.816406 43.703125 " fill-opacity="1" fill-rule="nonzero"/></g></svg>