<svg xmlns="http://www.w3.org/2000/svg" xmlns:xlink="http://www.w3.org/1999/xlink" width="80" zoomAndPan="magnify" viewBox="0 0 60 62.999997" height="84" preserveAspectRatio="xMidYMid meet" version="1.0"><defs><clipPath id="fe2d2adb75"><path d="M 27 0.0234375 L 33 0.0234375 L 33 9 L 27 9 Z M 27 0.0234375 " clip-rule="nonzero"/></clipPath><clipPath id="90b3a346f1"><path d="M 4.511719 27.664062 L 9.761719 27.664062 L 9.761719 32.914062 L 4.511719 32.914062 Z M 4.511719 27.664062 " clip-rule="nonzero"/></clipPath></defs><path fill="#252525" d="M 54.535156 9.640625 L 54.523438 9.640625 L 54.121094 9.621094 L 53.921875 9.613281 L 53.722656 9.609375 L 53.328125 9.605469 L 52.929688 9.609375 L 52.730469 9.613281 L 52.53125 9.621094 L 52.136719 9.640625 L 51.738281 9.671875 L 51.539062 9.683594 L 51.339844 9.707031 L 50.941406 9.75 L 50.550781 9.804688 L 50.351562 9.828125 L 50.15625 9.863281 L 49.765625 9.929688 L 49.375 10.007812 C 49.3125 10.019531 49.246094 10.03125 49.183594 10.046875 L 48.988281 10.09375 C 48.863281 10.125 48.730469 10.152344 48.605469 10.183594 L 48.226562 10.285156 C 48.097656 10.316406 47.972656 10.359375 47.847656 10.394531 C 47.71875 10.433594 47.59375 10.464844 47.472656 10.511719 C 47.222656 10.597656 46.976562 10.675781 46.730469 10.769531 L 46.546875 10.835938 L 46.457031 10.875 L 46.367188 10.910156 L 46.003906 11.058594 C 45.882812 11.109375 45.765625 11.167969 45.648438 11.214844 C 45.53125 11.269531 45.414062 11.324219 45.292969 11.382812 C 44.339844 11.84375 43.394531 12.371094 42.410156 12.886719 C 41.433594 13.402344 40.402344 13.90625 39.296875 14.304688 L 38.878906 14.449219 L 38.449219 14.582031 C 38.308594 14.621094 38.164062 14.660156 38.023438 14.699219 C 37.878906 14.734375 37.738281 14.769531 37.589844 14.800781 C 37.007812 14.933594 36.40625 15.035156 35.785156 15.078125 L 35.550781 15.089844 L 35.316406 15.09375 C 35.15625 15.101562 35 15.09375 34.839844 15.089844 C 34.761719 15.089844 34.683594 15.082031 34.601562 15.078125 C 34.519531 15.074219 34.445312 15.066406 34.363281 15.058594 C 34.203125 15.042969 34.042969 15.03125 33.882812 15.003906 L 33.644531 14.96875 L 33.410156 14.921875 C 33.253906 14.898438 33.097656 14.855469 32.941406 14.820312 C 32.863281 14.800781 32.789062 14.777344 32.710938 14.757812 L 32.480469 14.6875 L 32.246094 14.613281 C 32.167969 14.585938 32.09375 14.558594 32.015625 14.527344 C 31.707031 14.410156 31.40625 14.273438 31.113281 14.121094 C 30.820312 13.960938 30.53125 13.785156 30.25 13.585938 C 30.167969 13.527344 30.089844 13.464844 30.007812 13.402344 C 29.925781 13.464844 29.84375 13.527344 29.761719 13.585938 C 29.484375 13.785156 29.199219 13.960938 28.902344 14.121094 C 28.605469 14.273438 28.304688 14.410156 27.996094 14.527344 C 27.921875 14.554688 27.84375 14.585938 27.769531 14.613281 L 27.53125 14.6875 L 27.292969 14.765625 C 27.21875 14.789062 27.140625 14.8125 27.0625 14.828125 C 26.90625 14.863281 26.753906 14.90625 26.59375 14.933594 L 26.359375 14.976562 L 26.121094 15.015625 C 25.960938 15.042969 25.800781 15.050781 25.640625 15.066406 C 25.558594 15.078125 25.484375 15.078125 25.402344 15.085938 C 25.320312 15.089844 25.246094 15.09375 25.164062 15.101562 C 25.003906 15.101562 24.847656 15.109375 24.6875 15.105469 L 24.453125 15.101562 L 24.21875 15.085938 C 23.597656 15.046875 22.992188 14.941406 22.410156 14.8125 C 22.265625 14.777344 22.121094 14.738281 21.976562 14.707031 C 21.832031 14.667969 21.691406 14.628906 21.550781 14.589844 L 21.121094 14.457031 L 20.703125 14.3125 C 19.597656 13.917969 18.566406 13.410156 17.589844 12.894531 C 16.605469 12.382812 15.660156 11.851562 14.707031 11.390625 C 14.648438 11.367188 14.589844 11.332031 14.527344 11.304688 L 14.351562 11.226562 C 14.234375 11.171875 14.117188 11.117188 13.996094 11.066406 L 13.632812 10.917969 L 13.453125 10.847656 L 13.269531 10.777344 C 13.023438 10.683594 12.777344 10.601562 12.527344 10.519531 C 12.402344 10.480469 12.273438 10.445312 12.152344 10.402344 C 12.027344 10.367188 11.902344 10.328125 11.773438 10.296875 L 11.394531 10.191406 C 11.269531 10.160156 11.136719 10.132812 11.011719 10.101562 L 10.816406 10.054688 C 10.753906 10.042969 10.6875 10.027344 10.625 10.015625 L 10.234375 9.9375 L 9.84375 9.871094 L 9.648438 9.839844 L 9.449219 9.8125 L 9.058594 9.757812 L 8.660156 9.71875 L 8.460938 9.695312 L 7.863281 9.648438 L 7.476562 9.617188 L 7.277344 9.609375 L 7.078125 9.605469 L 6.683594 9.601562 L 6.285156 9.605469 L 6.085938 9.609375 L 5.886719 9.617188 L 5.484375 9.636719 L 5.46875 9.636719 C 5.234375 9.644531 5.019531 9.472656 4.988281 9.234375 C 4.957031 8.980469 5.132812 8.75 5.386719 8.71875 L 6.007812 8.636719 L 6.21875 8.621094 L 6.636719 8.578125 L 7.058594 8.550781 L 7.269531 8.539062 L 7.902344 8.515625 L 8.53125 8.515625 L 8.746094 8.519531 L 9.164062 8.535156 L 9.585938 8.554688 L 9.796875 8.570312 L 10.007812 8.589844 L 10.429688 8.625 L 10.847656 8.675781 C 10.921875 8.683594 10.988281 8.691406 11.0625 8.699219 L 11.269531 8.734375 C 11.410156 8.753906 11.546875 8.773438 11.6875 8.796875 L 12.109375 8.871094 C 12.25 8.894531 12.386719 8.925781 12.523438 8.957031 C 12.664062 8.988281 12.804688 9.015625 12.9375 9.046875 C 13.214844 9.117188 13.492188 9.183594 13.765625 9.265625 L 13.972656 9.324219 L 14.078125 9.355469 L 14.179688 9.386719 L 14.589844 9.519531 C 14.726562 9.5625 14.863281 9.613281 14.996094 9.664062 L 15.199219 9.734375 C 15.269531 9.757812 15.332031 9.785156 15.398438 9.8125 C 16.449219 10.21875 17.457031 10.679688 18.445312 11.101562 C 19.433594 11.527344 20.414062 11.90625 21.390625 12.171875 L 21.753906 12.269531 L 22.121094 12.351562 C 22.242188 12.375 22.367188 12.398438 22.492188 12.421875 C 22.613281 12.441406 22.738281 12.46875 22.859375 12.480469 C 23.351562 12.554688 23.835938 12.59375 24.304688 12.585938 C 24.773438 12.574219 25.230469 12.53125 25.667969 12.425781 L 25.832031 12.390625 L 25.992188 12.34375 C 26.101562 12.316406 26.210938 12.277344 26.3125 12.246094 C 26.367188 12.226562 26.417969 12.207031 26.472656 12.1875 L 26.628906 12.128906 L 26.785156 12.066406 C 26.832031 12.042969 26.882812 12.019531 26.933594 11.996094 C 27.132812 11.902344 27.320312 11.796875 27.496094 11.6875 C 27.675781 11.574219 27.84375 11.445312 27.996094 11.3125 C 28.179688 11.15625 28.339844 10.992188 28.480469 10.8125 C 28.582031 10.433594 28.828125 10.09375 29.195312 9.878906 C 29.445312 9.734375 29.726562 9.671875 29.996094 9.679688 C 30.316406 9.671875 30.644531 9.757812 30.921875 9.957031 C 31.230469 10.171875 31.429688 10.480469 31.515625 10.8125 C 31.65625 10.984375 31.816406 11.152344 31.996094 11.3125 C 32.152344 11.441406 32.324219 11.570312 32.5 11.6875 C 32.679688 11.796875 32.867188 11.902344 33.0625 11.996094 C 33.113281 12.019531 33.164062 12.046875 33.210938 12.066406 L 33.367188 12.128906 L 33.523438 12.1875 C 33.578125 12.207031 33.628906 12.226562 33.679688 12.246094 C 33.789062 12.277344 33.894531 12.316406 34 12.34375 L 34.164062 12.390625 L 34.328125 12.425781 C 34.765625 12.53125 35.21875 12.574219 35.691406 12.585938 C 36.160156 12.59375 36.640625 12.554688 37.132812 12.480469 C 37.257812 12.46875 37.382812 12.441406 37.503906 12.421875 C 37.625 12.398438 37.753906 12.375 37.875 12.351562 L 38.242188 12.269531 L 38.605469 12.171875 C 39.582031 11.90625 40.554688 11.527344 41.550781 11.101562 C 42.542969 10.683594 43.542969 10.21875 44.597656 9.8125 C 44.664062 9.785156 44.726562 9.761719 44.796875 9.734375 L 45 9.664062 C 45.132812 9.613281 45.269531 9.5625 45.40625 9.519531 L 45.8125 9.386719 L 45.914062 9.355469 L 46.019531 9.324219 L 46.226562 9.265625 C 46.5 9.183594 46.777344 9.117188 47.050781 9.046875 C 47.191406 9.011719 47.332031 8.984375 47.46875 8.957031 C 47.605469 8.925781 47.742188 8.898438 47.882812 8.871094 L 48.300781 8.796875 C 48.441406 8.773438 48.582031 8.75 48.722656 8.734375 L 48.929688 8.699219 C 48.996094 8.691406 49.070312 8.683594 49.140625 8.675781 L 49.5625 8.625 L 49.980469 8.589844 L 50.195312 8.570312 L 50.40625 8.554688 L 50.824219 8.535156 L 51.246094 8.519531 L 51.457031 8.515625 L 52.089844 8.515625 L 52.507812 8.53125 L 52.722656 8.539062 L 52.933594 8.550781 L 53.355469 8.578125 L 53.773438 8.621094 L 53.980469 8.636719 L 54.1875 8.664062 L 54.605469 8.71875 C 54.839844 8.75 55.015625 8.957031 55.007812 9.199219 C 55.007812 9.457031 54.792969 9.648438 54.535156 9.640625 Z M 54.535156 9.640625 " fill-opacity="1" fill-rule="nonzero"/><path fill="#252525" d="M 32.226562 61.378906 L 27.777344 61.378906 L 28.644531 7.394531 L 31.359375 7.394531 Z M 32.226562 61.378906 " fill-opacity="1" fill-rule="nonzero"/><path fill="#252525" d="M 31.964844 15.324219 C 31.964844 15.457031 31.917969 15.582031 31.816406 15.699219 C 31.714844 15.820312 31.574219 15.925781 31.390625 16.019531 C 31.207031 16.109375 30.996094 16.179688 30.753906 16.230469 C 30.511719 16.28125 30.261719 16.304688 30.003906 16.304688 C 29.742188 16.304688 29.492188 16.28125 29.25 16.230469 C 29.011719 16.179688 28.796875 16.109375 28.613281 16.019531 C 28.429688 15.925781 28.289062 15.820312 28.1875 15.699219 C 28.089844 15.582031 28.039062 15.457031 28.039062 15.324219 C 28.039062 15.195312 28.089844 15.070312 28.1875 14.949219 C 28.289062 14.832031 28.429688 14.726562 28.613281 14.632812 C 28.796875 14.539062 29.011719 14.46875 29.25 14.421875 C 29.492188 14.371094 29.742188 14.347656 30.003906 14.347656 C 30.261719 14.347656 30.511719 14.371094 30.753906 14.421875 C 30.996094 14.46875 31.207031 14.539062 31.390625 14.632812 C 31.574219 14.726562 31.714844 14.832031 31.816406 14.949219 C 31.917969 15.070312 31.964844 15.195312 31.964844 15.324219 Z M 31.964844 15.324219 " fill-opacity="1" fill-rule="nonzero"/><path fill="#252525" d="M 31.964844 9.273438 C 31.964844 9.40625 31.917969 9.53125 31.816406 9.648438 C 31.714844 9.769531 31.574219 9.875 31.390625 9.96875 C 31.207031 10.058594 30.996094 10.128906 30.753906 10.179688 C 30.511719 10.230469 30.261719 10.253906 30.003906 10.253906 C 29.742188 10.253906 29.492188 10.230469 29.25 10.179688 C 29.011719 10.128906 28.796875 10.058594 28.613281 9.96875 C 28.429688 9.875 28.289062 9.769531 28.1875 9.648438 C 28.089844 9.53125 28.039062 9.40625 28.039062 9.273438 C 28.039062 9.144531 28.089844 9.019531 28.1875 8.898438 C 28.289062 8.78125 28.429688 8.671875 28.613281 8.582031 C 28.796875 8.488281 29.011719 8.417969 29.25 8.371094 C 29.492188 8.320312 29.742188 8.292969 30.003906 8.292969 C 30.261719 8.292969 30.511719 8.320312 30.753906 8.371094 C 30.996094 8.417969 31.207031 8.488281 31.390625 8.582031 C 31.574219 8.671875 31.714844 8.78125 31.816406 8.898438 C 31.917969 9.019531 31.964844 9.144531 31.964844 9.273438 Z M 31.964844 9.273438 " fill-opacity="1" fill-rule="nonzero"/><g clip-path="url(#fe2d2adb75)"><path fill="#252525" d="M 32.363281 6.292969 C 32.363281 7.648438 31.226562 8.734375 29.859375 8.652344 C 28.640625 8.574219 27.667969 7.554688 27.652344 6.335938 C 27.652344 6.230469 27.65625 6.128906 27.667969 6.023438 C 27.710938 5.679688 27.820312 5.359375 27.992188 5.078125 C 28.082031 4.929688 28.175781 4.78125 28.261719 4.628906 C 29.144531 3.007812 29.601562 1.375 30.011719 0.0234375 C 30.421875 1.375 30.878906 3.007812 31.761719 4.628906 C 31.84375 4.78125 31.9375 4.929688 32.027344 5.078125 C 32.199219 5.359375 32.3125 5.679688 32.355469 6.023438 C 32.355469 6.109375 32.363281 6.199219 32.363281 6.292969 Z M 32.363281 6.292969 " fill-opacity="1" fill-rule="nonzero"/></g><path fill="#252525" d="M 37.226562 61.378906 L 22.78125 61.378906 C 24.898438 59.308594 26 56.425781 26.996094 52.648438 C 27.105469 52.234375 27.480469 51.949219 27.902344 51.949219 L 32.101562 51.949219 C 32.53125 51.949219 32.898438 52.238281 33.007812 52.648438 C 34.007812 56.425781 35.109375 59.308594 37.226562 61.378906 Z M 37.226562 61.378906 " fill-opacity="1" fill-rule="nonzero"/><path fill="#252525" d="M 22.78125 61.378906 L 37.226562 61.378906 L 37.226562 63.023438 L 22.78125 63.023438 Z M 22.78125 61.378906 " fill-opacity="1" fill-rule="nonzero"/><path fill="#252525" d="M 33.117188 50.976562 C 33.117188 51.15625 33.039062 51.324219 32.878906 51.488281 C 32.722656 51.652344 32.496094 51.796875 32.203125 51.921875 C 31.914062 52.042969 31.574219 52.140625 31.195312 52.207031 C 30.8125 52.277344 30.414062 52.308594 30.003906 52.308594 C 29.589844 52.308594 29.191406 52.277344 28.808594 52.207031 C 28.429688 52.140625 28.09375 52.042969 27.800781 51.921875 C 27.507812 51.796875 27.28125 51.652344 27.125 51.488281 C 26.964844 51.324219 26.886719 51.15625 26.886719 50.976562 C 26.886719 50.800781 26.964844 50.632812 27.125 50.46875 C 27.28125 50.304688 27.507812 50.160156 27.800781 50.035156 C 28.09375 49.910156 28.429688 49.816406 28.808594 49.746094 C 29.191406 49.679688 29.589844 49.644531 30.003906 49.644531 C 30.414062 49.644531 30.8125 49.679688 31.195312 49.746094 C 31.574219 49.816406 31.914062 49.910156 32.203125 50.035156 C 32.496094 50.160156 32.722656 50.304688 32.878906 50.46875 C 33.039062 50.632812 33.117188 50.800781 33.117188 50.976562 Z M 33.117188 50.976562 " fill-opacity="1" fill-rule="nonzero"/><path fill="#252525" d="M 16.40625 37.273438 L 4.570312 37.273438 C 4.363281 37.273438 4.160156 37.191406 3.976562 37.042969 L 0.167969 33.84375 C 0.0078125 33.710938 0.0742188 33.355469 0.261719 33.355469 L 20.707031 33.355469 C 20.898438 33.355469 20.964844 33.710938 20.800781 33.84375 L 16.992188 37.042969 C 16.820312 37.191406 16.617188 37.273438 16.40625 37.273438 Z M 16.40625 37.273438 " fill-opacity="1" fill-rule="nonzero"/><path fill="#252525" d="M 17.710938 33.785156 L 10.488281 10.050781 L 3.269531 33.785156 L 2.835938 33.65625 L 10.488281 8.496094 L 18.140625 33.65625 Z M 17.710938 33.785156 " fill-opacity="1" fill-rule="nonzero"/><path fill="#252525" d="M 16.066406 37.878906 L 4.910156 37.878906 C 4.746094 37.878906 4.613281 37.746094 4.613281 37.585938 L 4.613281 37.269531 L 16.355469 37.269531 L 16.355469 37.585938 C 16.359375 37.746094 16.230469 37.878906 16.066406 37.878906 Z M 16.066406 37.878906 " fill-opacity="1" fill-rule="nonzero"/><path fill="#252525" d="M 10.261719 9.273438 L 10.714844 9.273438 L 10.714844 34.222656 L 10.261719 34.222656 Z M 10.261719 9.273438 " fill-opacity="1" fill-rule="nonzero"/><path fill="#252525" d="M 55.433594 37.273438 L 43.597656 37.273438 C 43.390625 37.273438 43.1875 37.191406 43.007812 37.042969 L 39.199219 33.84375 C 39.035156 33.710938 39.101562 33.355469 39.292969 33.355469 L 59.738281 33.355469 C 59.925781 33.355469 59.992188 33.710938 59.832031 33.84375 L 56.023438 37.042969 C 55.84375 37.191406 55.640625 37.273438 55.433594 37.273438 Z M 55.433594 37.273438 " fill-opacity="1" fill-rule="nonzero"/><path fill="#252525" d="M 56.734375 33.785156 L 49.515625 10.050781 L 42.292969 33.785156 L 41.867188 33.65625 L 49.515625 8.496094 L 57.167969 33.65625 Z M 56.734375 33.785156 " fill-opacity="1" fill-rule="nonzero"/><path fill="#252525" d="M 55.097656 37.878906 L 43.9375 37.878906 C 43.773438 37.878906 43.644531 37.746094 43.644531 37.585938 L 43.644531 37.269531 L 55.386719 37.269531 L 55.386719 37.585938 C 55.386719 37.746094 55.253906 37.878906 55.097656 37.878906 Z M 55.097656 37.878906 " fill-opacity="1" fill-rule="nonzero"/><path fill="#252525" d="M 49.292969 9.273438 L 49.742188 9.273438 L 49.742188 34.222656 L 49.292969 34.222656 Z M 49.292969 9.273438 " fill-opacity="1" fill-rule="nonzero"/><g clip-path="url(#90b3a346f1)"><path fill="#252525" d="M 9.542969 28.910156 C 9.175781 28.457031 8.566406 28.140625 7.816406 28.140625 C 6.875 28.140625 6.125 28.757812 5.890625 29.570312 L 9.234375 29.570312 L 9.007812 30.042969 L 5.785156 30.042969 C 5.777344 30.140625 5.773438 30.214844 5.773438 30.289062 C 5.773438 30.367188 5.777344 30.433594 5.785156 30.515625 L 8.792969 30.515625 L 8.566406 30.988281 L 5.890625 30.988281 C 6.164062 31.875 6.914062 32.433594 7.890625 32.433594 C 8.566406 32.433594 9.167969 32.140625 9.542969 31.6875 L 9.542969 32.328125 C 9.167969 32.628906 8.527344 32.90625 7.851562 32.90625 C 6.652344 32.90625 5.636719 32.175781 5.359375 30.988281 L 4.511719 30.988281 L 4.734375 30.515625 L 5.269531 30.515625 C 5.261719 30.417969 5.261719 30.351562 5.261719 30.285156 C 5.261719 30.207031 5.261719 30.140625 5.269531 30.042969 L 4.511719 30.042969 L 4.734375 29.570312 L 5.359375 29.570312 C 5.636719 28.382812 6.652344 27.667969 7.890625 27.667969 C 8.605469 27.667969 9.355469 27.96875 9.761719 28.449219 Z M 9.542969 28.910156 " fill-opacity="1" fill-rule="nonzero"/></g></svg>