<svg xmlns="http://www.w3.org/2000/svg" xmlns:xlink="http://www.w3.org/1999/xlink" width="50" zoomAndPan="magnify" viewBox="0 0 37.5 36.000001" height="48" preserveAspectRatio="xMidYMid meet" version="1.0"><defs><clipPath id="4a0b188482"><path d="M 1 1 L 36 1 L 36 35.027344 L 1 35.027344 Z M 1 1 " clip-rule="nonzero"/></clipPath></defs><g clip-path="url(#4a0b188482)"><path fill="#231f20" d="M 18.796875 35.480469 C 17.046875 35.484375 15.335938 35.222656 13.667969 34.699219 C 12 34.171875 10.449219 33.410156 9.019531 32.402344 L 1.460938 34.660156 L 4.347656 27.484375 C 4.019531 26.957031 3.71875 26.414062 3.449219 25.855469 C 3.179688 25.296875 2.945312 24.722656 2.738281 24.140625 C 2.53125 23.554688 2.359375 22.960938 2.21875 22.355469 C 2.078125 21.75 1.972656 21.140625 1.902344 20.523438 C 1.828125 19.910156 1.789062 19.292969 1.785156 18.671875 C 1.78125 18.050781 1.808594 17.433594 1.875 16.816406 C 1.9375 16.199219 2.035156 15.585938 2.167969 14.980469 C 2.296875 14.375 2.464844 13.777344 2.660156 13.191406 C 2.859375 12.601562 3.085938 12.027344 3.347656 11.464844 C 3.609375 10.898438 3.898438 10.351562 4.222656 9.820312 C 4.542969 9.289062 4.894531 8.777344 5.269531 8.285156 C 5.648438 7.792969 6.050781 7.320312 6.484375 6.871094 C 6.914062 6.421875 7.367188 6 7.84375 5.601562 C 8.320312 5.199219 8.816406 4.828125 9.335938 4.484375 C 9.851562 4.136719 10.386719 3.824219 10.941406 3.535156 C 11.496094 3.25 12.0625 2.996094 12.640625 2.769531 C 13.222656 2.546875 13.816406 2.351562 14.417969 2.195312 C 15.019531 2.035156 15.628906 1.90625 16.246094 1.8125 C 16.863281 1.722656 17.480469 1.660156 18.105469 1.636719 C 18.726562 1.609375 19.347656 1.617188 19.972656 1.660156 C 20.59375 1.703125 21.210938 1.78125 21.824219 1.890625 C 22.4375 2 23.042969 2.144531 23.640625 2.320312 C 24.238281 2.496094 24.824219 2.703125 25.398438 2.945312 C 25.972656 3.183594 26.535156 3.457031 27.078125 3.757812 C 27.621094 4.058594 28.148438 4.386719 28.65625 4.746094 C 29.167969 5.105469 29.652344 5.492188 30.117188 5.902344 C 30.585938 6.316406 31.027344 6.753906 31.445312 7.210938 C 31.859375 7.671875 32.25 8.15625 32.617188 8.660156 C 32.980469 9.160156 33.316406 9.683594 33.621094 10.222656 C 33.929688 10.761719 34.203125 11.316406 34.449219 11.886719 C 34.695312 12.457031 34.910156 13.039062 35.089844 13.632812 C 35.269531 14.226562 35.417969 14.828125 35.535156 15.4375 C 35.648438 16.046875 35.730469 16.660156 35.777344 17.277344 C 35.824219 17.898438 35.835938 18.515625 35.8125 19.136719 C 35.792969 19.753906 35.738281 20.371094 35.648438 20.984375 C 35.558594 21.597656 35.433594 22.207031 35.277344 22.804688 C 35.121094 23.40625 34.933594 23.996094 34.710938 24.574219 C 34.488281 25.15625 34.234375 25.71875 33.949219 26.273438 C 33.667969 26.824219 33.351562 27.359375 33.007812 27.875 C 32.667969 28.394531 32.296875 28.890625 31.898438 29.367188 C 31.5 29.84375 31.074219 30.296875 30.628906 30.730469 C 30.179688 31.160156 29.707031 31.566406 29.214844 31.945312 C 28.722656 32.324219 28.210938 32.675781 27.675781 32.996094 C 27.144531 33.320312 26.597656 33.613281 26.03125 33.878906 C 25.46875 34.140625 24.890625 34.371094 24.300781 34.574219 C 23.710938 34.773438 23.113281 34.941406 22.503906 35.074219 C 21.894531 35.210938 21.28125 35.3125 20.660156 35.378906 C 20.042969 35.445312 19.421875 35.480469 18.796875 35.480469 Z M 9.195312 31.355469 L 9.386719 31.496094 C 10.753906 32.484375 12.242188 33.238281 13.847656 33.757812 C 15.457031 34.273438 17.105469 34.53125 18.796875 34.527344 C 27.644531 34.527344 34.839844 27.367188 34.839844 18.570312 C 34.839844 9.769531 27.644531 2.609375 18.796875 2.609375 C 9.949219 2.609375 2.753906 9.769531 2.753906 18.570312 C 2.75 21.6875 3.59375 24.554688 5.285156 27.179688 L 5.417969 27.386719 L 3.085938 33.179688 Z M 9.195312 31.355469 " fill-opacity="1" fill-rule="nonzero"/></g><path fill="#231f20" d="M 24.453125 29.898438 C 24.320312 29.898438 24.191406 29.894531 24.058594 29.882812 C 23.5 29.835938 22.949219 29.765625 22.398438 29.664062 C 21.847656 29.566406 21.304688 29.441406 20.765625 29.289062 C 20.230469 29.136719 19.699219 28.957031 19.179688 28.753906 C 18.660156 28.546875 18.152344 28.320312 17.65625 28.066406 C 17.15625 27.808594 16.675781 27.53125 16.203125 27.230469 C 15.734375 26.929688 15.28125 26.605469 14.84375 26.261719 C 14.40625 25.914062 13.984375 25.546875 13.585938 25.160156 C 13.183594 24.773438 12.800781 24.371094 12.441406 23.945312 C 12.078125 23.519531 11.738281 23.082031 11.421875 22.621094 C 11.101562 22.164062 10.808594 21.695312 10.539062 21.207031 C 10.265625 20.722656 10.019531 20.222656 9.796875 19.710938 C 9.578125 19.203125 9.378906 18.683594 9.210938 18.152344 C 9.039062 17.625 8.894531 17.085938 8.777344 16.542969 C 8.660156 16 8.570312 15.453125 8.507812 14.898438 C 8.445312 14.347656 8.40625 13.792969 8.398438 13.238281 C 8.390625 12.679688 8.410156 12.125 8.457031 11.570312 C 8.480469 11.261719 8.539062 10.960938 8.625 10.660156 C 8.707031 10.363281 8.824219 10.074219 8.964844 9.800781 C 9.109375 9.523438 9.277344 9.265625 9.46875 9.023438 C 9.664062 8.78125 9.878906 8.558594 10.117188 8.359375 C 10.355469 8.15625 10.609375 7.980469 10.882812 7.832031 C 11.15625 7.679688 11.441406 7.558594 11.738281 7.464844 C 12.035156 7.367188 12.335938 7.304688 12.648438 7.269531 C 12.957031 7.234375 13.265625 7.230469 13.578125 7.253906 C 14.03125 7.289062 14.46875 7.390625 14.894531 7.554688 C 15.015625 7.597656 15.136719 7.652344 15.246094 7.707031 L 15.480469 7.816406 L 16.480469 15.371094 L 16.285156 15.539062 C 15.800781 15.953125 15.257812 16.257812 14.648438 16.453125 C 15.160156 18.011719 15.972656 19.398438 17.085938 20.605469 L 17.089844 20.609375 C 17.992188 21.59375 19.039062 22.390625 20.230469 23.003906 C 20.511719 22.472656 20.878906 22.007812 21.332031 21.613281 L 21.515625 21.457031 L 28.652344 22.972656 L 28.753906 23.1875 C 29.109375 23.941406 29.25 24.734375 29.179688 25.566406 C 29.128906 26.15625 28.972656 26.714844 28.710938 27.246094 C 28.453125 27.78125 28.101562 28.246094 27.664062 28.648438 C 27.226562 29.046875 26.730469 29.355469 26.175781 29.574219 C 25.621094 29.789062 25.046875 29.898438 24.453125 29.898438 Z M 13.179688 8.191406 C 12.707031 8.191406 12.246094 8.277344 11.804688 8.449219 C 11.363281 8.621094 10.964844 8.867188 10.617188 9.1875 C 10.269531 9.507812 9.988281 9.882812 9.78125 10.308594 C 9.574219 10.730469 9.449219 11.179688 9.410156 11.648438 C 9.367188 12.171875 9.347656 12.695312 9.359375 13.222656 C 9.367188 13.746094 9.398438 14.269531 9.460938 14.789062 C 9.519531 15.3125 9.605469 15.828125 9.71875 16.339844 C 9.828125 16.855469 9.964844 17.359375 10.125 17.859375 C 10.285156 18.359375 10.472656 18.851562 10.679688 19.332031 C 10.890625 19.8125 11.125 20.285156 11.378906 20.742188 C 11.636719 21.203125 11.914062 21.644531 12.214844 22.078125 C 12.511719 22.507812 12.832031 22.925781 13.175781 23.324219 C 13.515625 23.726562 13.875 24.109375 14.253906 24.472656 C 14.632812 24.839844 15.03125 25.183594 15.441406 25.511719 C 15.855469 25.835938 16.285156 26.144531 16.726562 26.425781 C 17.167969 26.710938 17.625 26.972656 18.09375 27.214844 C 18.5625 27.453125 19.042969 27.671875 19.535156 27.863281 C 20.023438 28.058594 20.523438 28.226562 21.03125 28.371094 C 21.539062 28.515625 22.050781 28.632812 22.570312 28.726562 C 23.089844 28.820312 23.609375 28.890625 24.136719 28.933594 C 24.429688 28.957031 24.722656 28.949219 25.011719 28.902344 C 25.304688 28.859375 25.585938 28.785156 25.859375 28.675781 C 26.132812 28.566406 26.390625 28.425781 26.628906 28.257812 C 26.871094 28.089844 27.089844 27.894531 27.285156 27.675781 C 27.480469 27.457031 27.648438 27.21875 27.785156 26.960938 C 27.925781 26.703125 28.035156 26.433594 28.109375 26.148438 C 28.1875 25.867188 28.226562 25.578125 28.238281 25.285156 C 28.246094 24.992188 28.21875 24.703125 28.160156 24.417969 C 28.117188 24.207031 28.058594 24.003906 27.980469 23.804688 L 21.789062 22.488281 C 21.402344 22.871094 21.109375 23.3125 20.910156 23.820312 L 20.726562 24.296875 L 20.261719 24.082031 C 18.84375 23.425781 17.59375 22.53125 16.519531 21.398438 L 16.238281 21.386719 L 16.25 21.105469 C 14.988281 19.6875 14.097656 18.070312 13.585938 16.246094 L 13.449219 15.753906 L 13.953125 15.652344 C 14.507812 15.539062 15.011719 15.3125 15.460938 14.976562 L 14.597656 8.460938 C 14.582031 8.453125 14.566406 8.449219 14.550781 8.441406 C 14.210938 8.3125 13.859375 8.234375 13.5 8.203125 C 13.390625 8.195312 13.285156 8.191406 13.179688 8.191406 Z M 13.179688 8.191406 " fill-opacity="1" fill-rule="nonzero"/></svg>