<svg xmlns="http://www.w3.org/2000/svg" xmlns:xlink="http://www.w3.org/1999/xlink" width="1000" zoomAndPan="magnify" viewBox="0 0 750 742.499978" height="990" preserveAspectRatio="xMidYMid meet" version="1.0"><defs><clipPath id="bc5af75006"><path d="M 0.253906 1 L 747 1 L 747 741.980469 L 0.253906 741.980469 Z M 0.253906 1 " clip-rule="nonzero"/></clipPath></defs><path fill="#ffffff" d="M 376.421875 12.828125 C 177.925781 12.828125 17.011719 173.667969 17.011719 372.074219 C 17 380.609375 17.292969 389.132812 17.890625 397.644531 C 18.484375 406.160156 19.386719 414.640625 20.589844 423.089844 C 21.796875 431.542969 23.300781 439.9375 25.109375 448.277344 C 26.914062 456.621094 29.015625 464.886719 31.414062 473.078125 C 33.8125 481.269531 36.503906 489.363281 39.480469 497.363281 C 42.460938 505.363281 45.71875 513.246094 49.261719 521.007812 C 52.808594 528.773438 56.625 536.402344 60.710938 543.894531 C 64.800781 551.386719 69.15625 558.726562 73.769531 565.90625 L 52.128906 619.945312 L 17.011719 707.625 L 107.511719 680.484375 L 165.644531 663.054688 C 173.242188 668.570312 181.046875 673.777344 189.054688 678.679688 C 197.0625 683.582031 205.253906 688.164062 213.621094 692.417969 C 221.992188 696.675781 230.515625 700.597656 239.195312 704.183594 C 247.871094 707.773438 256.679688 711.011719 265.613281 713.90625 C 274.546875 716.796875 283.578125 719.335938 292.714844 721.519531 C 301.847656 723.699219 311.050781 725.519531 320.328125 726.976562 C 329.605469 728.433594 338.925781 729.527344 348.289062 730.25 C 357.652344 730.972656 367.027344 731.328125 376.417969 731.316406 C 574.914062 731.316406 735.824219 570.476562 735.824219 372.070312 C 735.824219 173.667969 574.914062 12.828125 376.421875 12.828125 Z M 376.421875 12.828125 " fill-opacity="1" fill-rule="nonzero"/><g clip-path="url(#bc5af75006)"><path fill="#231f20" d="M 376.417969 741.722656 C 366.972656 741.746094 357.535156 741.402344 348.113281 740.699219 C 338.691406 739.992188 329.3125 738.925781 319.972656 737.496094 C 310.632812 736.066406 301.363281 734.277344 292.164062 732.132812 C 282.960938 729.988281 273.855469 727.492188 264.847656 724.644531 C 255.839844 721.796875 246.957031 718.605469 238.195312 715.070312 C 229.433594 711.535156 220.820312 707.671875 212.355469 703.472656 C 203.894531 699.273438 195.605469 694.753906 187.492188 689.914062 C 179.378906 685.078125 171.460938 679.933594 163.746094 674.484375 L -0.679688 723.792969 L 62.128906 566.964844 C 58.550781 561.214844 55.136719 555.367188 51.882812 549.429688 C 48.628906 543.488281 45.542969 537.464844 42.617188 531.359375 C 39.695312 525.25 36.941406 519.066406 34.359375 512.804688 C 31.773438 506.546875 29.363281 500.222656 27.128906 493.828125 C 24.894531 487.4375 22.832031 480.988281 20.953125 474.484375 C 19.070312 467.980469 17.367188 461.429688 15.84375 454.828125 C 14.324219 448.230469 12.984375 441.597656 11.824219 434.925781 C 10.667969 428.253906 9.695312 421.554688 8.902344 414.828125 C 8.113281 408.105469 7.507812 401.363281 7.089844 394.605469 C 6.671875 387.847656 6.4375 381.082031 6.386719 374.3125 C 6.339844 367.539062 6.476562 360.773438 6.800781 354.007812 C 7.125 347.246094 7.632812 340.496094 8.328125 333.761719 C 9.023438 327.023438 9.902344 320.3125 10.964844 313.625 C 12.027344 306.9375 13.273438 300.285156 14.703125 293.664062 C 16.128906 287.046875 17.738281 280.472656 19.527344 273.941406 C 21.316406 267.410156 23.285156 260.933594 25.429688 254.511719 C 27.574219 248.085938 29.894531 241.726562 32.390625 235.433594 C 34.882812 229.136719 37.546875 222.914062 40.386719 216.765625 C 43.222656 210.617188 46.222656 204.550781 49.394531 198.566406 C 52.5625 192.578125 55.894531 186.6875 59.386719 180.886719 C 62.878906 175.082031 66.527344 169.382812 70.335938 163.78125 C 74.140625 158.179688 78.097656 152.6875 82.207031 147.300781 C 86.3125 141.917969 90.566406 136.648438 94.964844 131.5 C 99.359375 126.347656 103.894531 121.320312 108.570312 116.417969 C 113.242188 111.515625 118.046875 106.746094 122.980469 102.105469 C 127.917969 97.46875 132.976562 92.96875 138.15625 88.609375 C 143.339844 84.246094 148.636719 80.03125 154.050781 75.960938 C 159.464844 71.890625 164.988281 67.972656 170.617188 64.203125 C 176.246094 60.4375 181.972656 56.828125 187.800781 53.375 C 193.628906 49.921875 199.546875 46.632812 205.554688 43.503906 C 211.5625 40.375 217.652344 37.414062 223.824219 34.621094 C 229.992188 31.824219 236.234375 29.203125 242.550781 26.75 C 248.867188 24.300781 255.242188 22.023438 261.683594 19.921875 C 268.121094 17.820312 274.617188 15.894531 281.160156 14.148438 C 287.707031 12.40625 294.292969 10.839844 300.925781 9.457031 C 307.558594 8.074219 314.222656 6.871094 320.917969 5.855469 C 327.617188 4.835938 334.335938 4 341.078125 3.351562 C 347.824219 2.703125 354.578125 2.238281 361.347656 1.960938 C 368.117188 1.679688 374.886719 1.589844 381.660156 1.679688 C 388.433594 1.773438 395.199219 2.050781 401.960938 2.515625 C 408.71875 2.980469 415.457031 3.628906 422.179688 4.464844 C 428.902344 5.296875 435.597656 6.316406 442.265625 7.515625 C 448.933594 8.71875 455.5625 10.101562 462.152344 11.667969 C 468.742188 13.230469 475.285156 14.976562 481.78125 16.898438 C 488.277344 18.824219 494.714844 20.925781 501.09375 23.203125 C 507.472656 25.480469 513.785156 27.929688 520.03125 30.554688 C 526.277344 33.175781 532.445312 35.96875 538.535156 38.933594 C 544.628906 41.894531 550.632812 45.023438 556.554688 48.3125 C 562.472656 51.605469 568.296875 55.058594 574.027344 58.667969 C 579.757812 62.28125 585.386719 66.046875 590.910156 69.964844 C 596.433594 73.886719 601.847656 77.953125 607.144531 82.171875 C 612.445312 86.390625 617.625 90.746094 622.6875 95.25 C 627.75 99.75 632.679688 104.386719 637.488281 109.160156 C 642.292969 113.929688 646.964844 118.832031 651.503906 123.859375 C 656.039062 128.886719 660.433594 134.039062 664.6875 139.308594 C 668.941406 144.578125 673.050781 149.960938 677.007812 155.453125 C 680.964844 160.949219 684.773438 166.546875 688.421875 172.253906 C 692.074219 177.957031 695.566406 183.753906 698.898438 189.652344 C 702.230469 195.546875 705.398438 201.527344 708.402344 207.597656 C 711.40625 213.667969 714.242188 219.8125 716.910156 226.039062 C 719.574219 232.261719 722.066406 238.554688 724.390625 244.917969 C 726.710938 251.277344 728.855469 257.699219 730.820312 264.179688 C 732.789062 270.65625 734.578125 277.1875 736.1875 283.761719 C 737.796875 290.339844 739.226562 296.957031 740.472656 303.613281 C 741.71875 310.269531 742.78125 316.953125 743.660156 323.667969 C 744.539062 330.382812 745.234375 337.113281 745.742188 343.867188 C 746.253906 350.621094 746.574219 357.378906 746.714844 364.148438 C 746.851562 370.921875 746.804688 377.6875 746.570312 384.457031 C 746.335938 391.222656 745.917969 397.980469 745.3125 404.722656 C 744.707031 411.46875 743.917969 418.191406 742.945312 424.890625 C 741.96875 431.59375 740.8125 438.261719 739.472656 444.898438 C 738.132812 451.535156 736.609375 458.132812 734.90625 464.6875 C 733.203125 471.238281 731.324219 477.742188 729.265625 484.191406 C 727.203125 490.644531 724.96875 497.03125 722.558594 503.359375 C 720.148438 509.6875 717.566406 515.945312 714.8125 522.132812 C 712.058594 528.320312 709.136719 534.425781 706.046875 540.453125 C 702.957031 546.476562 699.703125 552.414062 696.289062 558.261719 C 692.871094 564.109375 689.296875 569.859375 685.566406 575.511719 C 681.835938 581.160156 677.953125 586.707031 673.914062 592.144531 C 669.878906 597.582031 665.695312 602.90625 661.367188 608.117188 C 657.039062 613.324219 652.574219 618.410156 647.964844 623.375 C 643.355469 628.339844 638.617188 633.171875 633.742188 637.875 C 628.871094 642.578125 623.871094 647.144531 618.746094 651.574219 C 613.625 656.003906 608.382812 660.289062 603.023438 664.429688 C 597.664062 668.574219 592.195312 672.566406 586.617188 676.40625 C 581.035156 680.246094 575.355469 683.933594 569.574219 687.464844 C 563.792969 690.992188 557.921875 694.363281 551.957031 697.570312 C 545.988281 700.777344 539.941406 703.820312 533.808594 706.695312 C 527.671875 709.570312 521.464844 712.277344 515.183594 714.8125 C 508.902344 717.347656 502.554688 719.707031 496.144531 721.894531 C 489.734375 724.082031 483.265625 726.089844 476.746094 727.921875 C 470.222656 729.753906 463.65625 731.40625 457.042969 732.878906 C 450.433594 734.347656 443.785156 735.640625 437.101562 736.746094 C 430.417969 737.851562 423.707031 738.773438 416.976562 739.515625 C 410.242188 740.253906 403.492188 740.804688 396.726562 741.175781 C 389.964844 741.542969 383.195312 741.726562 376.417969 741.722656 Z M 167.585938 651.605469 L 171.753906 654.625 C 179.125 659.984375 186.699219 665.050781 194.472656 669.816406 C 202.25 674.582031 210.199219 679.03125 218.324219 683.171875 C 226.449219 687.308594 234.726562 691.121094 243.152344 694.605469 C 251.578125 698.089844 260.128906 701.234375 268.804688 704.046875 C 277.480469 706.855469 286.253906 709.316406 295.125 711.433594 C 303.992188 713.550781 312.933594 715.316406 321.941406 716.726562 C 330.953125 718.136719 340.003906 719.191406 349.09375 719.890625 C 358.1875 720.585938 367.292969 720.921875 376.414062 720.902344 C 568.847656 720.902344 725.40625 564.414062 725.40625 372.066406 C 725.40625 179.71875 568.847656 23.234375 376.414062 23.234375 C 183.976562 23.234375 27.425781 179.726562 27.425781 372.074219 C 27.417969 380.359375 27.703125 388.636719 28.285156 396.902344 C 28.867188 405.167969 29.742188 413.40625 30.914062 421.609375 C 32.085938 429.8125 33.546875 437.964844 35.300781 446.0625 C 37.054688 454.164062 39.097656 462.1875 41.425781 470.144531 C 43.753906 478.097656 46.363281 485.957031 49.253906 493.722656 C 52.148438 501.488281 55.3125 509.144531 58.75 516.683594 C 62.1875 524.222656 65.894531 531.632812 69.863281 538.910156 C 73.828125 546.183594 78.054688 553.308594 82.53125 560.28125 L 85.433594 564.796875 L 34.707031 691.453125 Z M 167.585938 651.605469 " fill-opacity="1" fill-rule="nonzero"/></g><path fill="#231f20" d="M 262.042969 135.140625 C 270.910156 135.863281 279.496094 137.820312 287.800781 141.007812 C 290.136719 141.910156 292.429688 142.902344 294.660156 143.988281 L 314.976562 297.964844 C 308.996094 303.121094 302.464844 307.441406 295.378906 310.929688 C 288.292969 314.414062 280.882812 316.953125 273.148438 318.546875 C 275.863281 328.300781 279.144531 337.859375 282.988281 347.226562 C 286.832031 356.59375 291.214844 365.703125 296.132812 374.554688 C 301.050781 383.402344 306.472656 391.933594 312.394531 400.144531 C 318.320312 408.359375 324.707031 416.191406 331.558594 423.652344 L 331.558594 423.679688 L 331.582031 423.679688 C 343.011719 436.160156 355.550781 447.402344 369.203125 457.410156 C 382.855469 467.414062 397.351562 475.988281 412.695312 483.132812 C 415.421875 476.066406 418.960938 469.429688 423.316406 463.230469 C 427.667969 457.03125 432.707031 451.449219 438.433594 446.484375 L 583.578125 477.453125 C 586.96875 484.742188 589.367188 492.34375 590.777344 500.257812 C 592.183594 508.171875 592.554688 516.136719 591.886719 524.144531 C 591.761719 525.660156 591.597656 527.167969 591.398438 528.675781 C 591.199219 530.179688 590.964844 531.679688 590.691406 533.175781 C 590.417969 534.667969 590.109375 536.15625 589.765625 537.632812 C 589.417969 539.113281 589.039062 540.582031 588.621094 542.042969 C 588.203125 543.503906 587.746094 544.953125 587.257812 546.390625 C 586.769531 547.828125 586.246094 549.253906 585.6875 550.667969 C 585.128906 552.078125 584.535156 553.476562 583.90625 554.859375 C 583.277344 556.242188 582.617188 557.609375 581.921875 558.960938 C 581.226562 560.3125 580.5 561.644531 579.738281 562.957031 C 578.980469 564.273438 578.1875 565.570312 577.363281 566.84375 C 576.539062 568.121094 575.683594 569.375 574.796875 570.609375 C 573.914062 571.84375 572.996094 573.054688 572.050781 574.246094 C 571.105469 575.433594 570.132812 576.601562 569.128906 577.742188 C 568.128906 578.882812 567.097656 580 566.039062 581.089844 C 564.984375 582.179688 563.898438 583.246094 562.789062 584.28125 C 561.679688 585.320312 560.546875 586.328125 559.386719 587.3125 C 558.226562 588.292969 557.046875 589.246094 555.839844 590.171875 C 554.632812 591.09375 553.40625 591.988281 552.15625 592.851562 C 550.90625 593.714844 549.636719 594.546875 548.34375 595.351562 C 547.054688 596.152344 545.746094 596.921875 544.414062 597.65625 C 543.085938 598.394531 541.742188 599.097656 540.378906 599.769531 C 539.015625 600.441406 537.636719 601.078125 536.242188 601.679688 C 534.847656 602.285156 533.4375 602.851562 532.015625 603.386719 C 530.59375 603.921875 529.160156 604.421875 527.710938 604.882812 C 526.265625 605.347656 524.808594 605.777344 523.339844 606.167969 C 521.871094 606.5625 520.394531 606.917969 518.910156 607.238281 C 517.425781 607.554688 515.933594 607.839844 514.433594 608.085938 C 512.933594 608.332031 511.429688 608.542969 509.917969 608.714844 C 508.410156 608.886719 506.898438 609.023438 505.378906 609.121094 C 503.863281 609.21875 502.347656 609.28125 500.828125 609.304688 C 499.308594 609.328125 497.789062 609.316406 496.269531 609.265625 C 494.75 609.214844 493.234375 609.125 491.71875 609 C 293.171875 592.628906 145.484375 418.464844 161.875 220 C 162 218.484375 162.164062 216.976562 162.363281 215.46875 C 162.5625 213.964844 162.796875 212.464844 163.070312 210.96875 C 163.34375 209.476562 163.652344 207.988281 163.996094 206.507812 C 164.34375 205.03125 164.726562 203.5625 165.144531 202.101562 C 165.5625 200.640625 166.015625 199.191406 166.503906 197.753906 C 166.992188 196.316406 167.515625 194.890625 168.074219 193.476562 C 168.636719 192.066406 169.226562 190.667969 169.855469 189.285156 C 170.484375 187.902344 171.144531 186.535156 171.839844 185.183594 C 172.535156 183.832031 173.261719 182.5 174.023438 181.1875 C 174.785156 179.871094 175.574219 178.574219 176.398438 177.300781 C 177.222656 176.023438 178.078125 174.769531 178.964844 173.535156 C 179.851562 172.300781 180.765625 171.089844 181.710938 169.898438 C 182.65625 168.710938 183.628906 167.542969 184.632812 166.402344 C 185.632812 165.261719 186.664062 164.144531 187.722656 163.054688 C 188.777344 161.964844 189.863281 160.898438 190.972656 159.863281 C 192.082031 158.824219 193.214844 157.816406 194.375 156.832031 C 195.535156 155.851562 196.71875 154.898438 197.921875 153.972656 C 199.128906 153.050781 200.355469 152.15625 201.605469 151.292969 C 202.855469 150.429688 204.125 149.597656 205.417969 148.792969 C 206.707031 147.992188 208.019531 147.222656 209.347656 146.488281 C 210.675781 145.75 212.019531 145.046875 213.382812 144.375 C 214.746094 143.703125 216.125 143.066406 217.519531 142.464844 C 218.914062 141.859375 220.324219 141.292969 221.746094 140.757812 C 223.167969 140.222656 224.601562 139.722656 226.050781 139.261719 C 227.496094 138.796875 228.953125 138.367188 230.421875 137.976562 C 231.890625 137.582031 233.367188 137.226562 234.851562 136.90625 C 236.335938 136.589844 237.828125 136.304688 239.328125 136.058594 C 240.828125 135.8125 242.332031 135.601562 243.84375 135.429688 C 245.351562 135.257812 246.867188 135.121094 248.382812 135.023438 C 249.898438 134.925781 251.414062 134.863281 252.933594 134.839844 C 254.453125 134.816406 255.972656 134.828125 257.492188 134.878906 C 259.011719 134.929688 260.527344 135.015625 262.042969 135.140625 Z M 262.042969 135.140625 " fill-opacity="1" fill-rule="nonzero"/><path fill="#231f20" d="M 499.53125 619.734375 C 496.652344 619.734375 493.765625 619.613281 490.863281 619.375 C 484.808594 618.878906 478.769531 618.238281 472.742188 617.445312 C 466.71875 616.65625 460.71875 615.714844 454.742188 614.628906 C 448.765625 613.542969 442.816406 612.3125 436.898438 610.933594 C 430.984375 609.554688 425.105469 608.035156 419.261719 606.367188 C 413.417969 604.699219 407.621094 602.890625 401.867188 600.9375 C 396.117188 598.988281 390.414062 596.894531 384.761719 594.664062 C 379.113281 592.433594 373.519531 590.0625 367.988281 587.554688 C 362.453125 585.050781 356.984375 582.410156 351.582031 579.632812 C 346.175781 576.859375 340.84375 573.953125 335.582031 570.914062 C 330.320312 567.878906 325.140625 564.714844 320.035156 561.421875 C 314.929688 558.128906 309.90625 554.714844 304.96875 551.175781 C 300.03125 547.636719 295.183594 543.980469 290.425781 540.203125 C 285.667969 536.425781 281.007812 532.535156 276.441406 528.53125 C 271.875 524.523438 267.410156 520.410156 263.046875 516.183594 C 258.679688 511.957031 254.421875 507.628906 250.273438 503.195312 C 246.121094 498.761719 242.082031 494.226562 238.152344 489.59375 C 234.226562 484.960938 230.414062 480.234375 226.71875 475.414062 C 223.023438 470.59375 219.445312 465.6875 215.992188 460.691406 C 212.539062 455.695312 209.207031 450.621094 206.003906 445.460938 C 202.800781 440.300781 199.722656 435.066406 196.777344 429.757812 C 193.828125 424.445312 191.011719 419.066406 188.332031 413.617188 C 185.648438 408.167969 183.101562 402.65625 180.6875 397.085938 C 178.277344 391.511719 176.003906 385.882812 173.867188 380.195312 C 171.734375 374.511719 169.738281 368.777344 167.886719 362.992188 C 166.03125 357.210938 164.324219 351.382812 162.757812 345.515625 C 161.191406 339.648438 159.769531 333.746094 158.492188 327.808594 C 157.214844 321.871094 156.085938 315.90625 155.101562 309.914062 C 154.121094 303.921875 153.285156 297.910156 152.597656 291.875 C 151.910156 285.839844 151.371094 279.792969 150.980469 273.734375 C 150.589844 267.675781 150.351562 261.609375 150.257812 255.535156 C 150.167969 249.464844 150.222656 243.394531 150.429688 237.324219 C 150.636719 231.253906 150.992188 225.195312 151.496094 219.140625 C 151.664062 217.152344 151.886719 215.171875 152.167969 213.195312 C 152.449219 211.21875 152.785156 209.253906 153.179688 207.296875 C 153.574219 205.339844 154.027344 203.394531 154.535156 201.464844 C 155.042969 199.535156 155.605469 197.621094 156.222656 195.722656 C 156.84375 193.824219 157.515625 191.949219 158.242188 190.089844 C 158.96875 188.230469 159.75 186.394531 160.585938 184.582031 C 161.417969 182.765625 162.304688 180.980469 163.242188 179.21875 C 164.179688 177.453125 165.167969 175.722656 166.207031 174.015625 C 167.246094 172.3125 168.332031 170.636719 169.464844 168.996094 C 170.601562 167.355469 171.785156 165.746094 173.011719 164.171875 C 174.242188 162.597656 175.511719 161.0625 176.832031 159.5625 C 178.148438 158.0625 179.507812 156.601562 180.910156 155.183594 C 182.3125 153.761719 183.753906 152.382812 185.238281 151.042969 C 186.71875 149.707031 188.238281 148.414062 189.796875 147.164062 C 191.355469 145.914062 192.945312 144.710938 194.574219 143.554688 C 196.199219 142.398438 197.859375 141.289062 199.550781 140.226562 C 201.242188 139.167969 202.964844 138.15625 204.714844 137.195312 C 206.464844 136.234375 208.238281 135.324219 210.042969 134.464844 C 211.84375 133.605469 213.671875 132.800781 215.519531 132.046875 C 217.371094 131.296875 219.238281 130.597656 221.128906 129.953125 C 223.019531 129.308594 224.925781 128.71875 226.851562 128.1875 C 228.773438 127.652344 230.710938 127.175781 232.664062 126.753906 C 234.617188 126.332031 236.578125 125.96875 238.550781 125.660156 C 240.523438 125.351562 242.503906 125.101562 244.492188 124.910156 C 246.480469 124.714844 248.472656 124.582031 250.464844 124.503906 C 252.460938 124.425781 254.457031 124.40625 256.453125 124.445312 C 258.449219 124.480469 260.445312 124.578125 262.433594 124.730469 C 264.425781 124.886719 266.410156 125.097656 268.390625 125.363281 C 270.367188 125.632812 272.335938 125.957031 274.296875 126.339844 C 276.257812 126.722656 278.203125 127.164062 280.136719 127.660156 C 282.074219 128.152344 283.992188 128.707031 285.894531 129.3125 C 287.796875 129.917969 289.679688 130.578125 291.542969 131.296875 C 294.191406 132.316406 296.777344 133.4375 299.222656 134.625 L 304.253906 137.078125 L 326.035156 302.171875 L 321.769531 305.84375 C 316.570312 310.324219 310.976562 314.242188 304.992188 317.609375 C 299.007812 320.972656 292.75 323.714844 286.21875 325.835938 C 288.960938 334.234375 292.140625 342.464844 295.757812 350.523438 C 299.375 358.582031 303.414062 366.425781 307.867188 374.054688 C 312.324219 381.6875 317.171875 389.054688 322.414062 396.167969 C 327.65625 403.28125 333.261719 410.09375 339.230469 416.609375 L 339.257812 416.640625 C 349.019531 427.324219 359.644531 437.066406 371.128906 445.867188 C 382.613281 454.671875 394.78125 462.398438 407.632812 469.050781 C 410.636719 463.269531 414.152344 457.824219 418.183594 452.707031 C 422.210938 447.589844 426.683594 442.894531 431.601562 438.621094 L 435.523438 435.214844 L 590.824219 468.347656 L 593.015625 473.050781 C 593.925781 475.003906 594.769531 476.984375 595.554688 478.992188 C 596.335938 481 597.054688 483.03125 597.710938 485.082031 C 598.367188 487.136719 598.960938 489.207031 599.488281 491.296875 C 600.011719 493.386719 600.472656 495.492188 600.867188 497.609375 C 601.261719 499.726562 601.589844 501.855469 601.851562 503.996094 C 602.113281 506.136719 602.308594 508.28125 602.433594 510.429688 C 602.5625 512.582031 602.621094 514.734375 602.613281 516.890625 C 602.605469 519.046875 602.527344 521.199219 602.386719 523.347656 C 602.242188 525.5 602.03125 527.640625 601.753906 529.777344 C 601.476562 531.917969 601.132812 534.042969 600.722656 536.160156 C 600.3125 538.273438 599.835938 540.375 599.292969 542.460938 C 598.753906 544.546875 598.144531 546.613281 597.472656 548.660156 C 596.800781 550.707031 596.066406 552.734375 595.269531 554.734375 C 594.46875 556.734375 593.609375 558.710938 592.6875 560.660156 C 591.765625 562.605469 590.785156 564.523438 589.742188 566.410156 C 588.699219 568.296875 587.597656 570.148438 586.441406 571.964844 C 585.28125 573.785156 584.066406 575.5625 582.796875 577.304688 C 581.527344 579.046875 580.207031 580.746094 578.828125 582.40625 C 577.453125 584.0625 576.027344 585.675781 574.546875 587.246094 C 573.070312 588.816406 571.546875 590.335938 569.972656 591.8125 C 568.398438 593.285156 566.78125 594.707031 565.121094 596.082031 C 563.457031 597.453125 561.753906 598.773438 560.011719 600.039062 C 558.265625 601.304688 556.484375 602.515625 554.664062 603.667969 C 552.839844 604.824219 550.988281 605.917969 549.097656 606.957031 C 547.207031 607.996094 545.289062 608.972656 543.339844 609.890625 C 541.386719 610.8125 539.410156 611.667969 537.40625 612.460938 C 535.402344 613.253906 533.375 613.984375 531.324219 614.652344 C 529.273438 615.320312 527.207031 615.921875 525.117188 616.460938 C 523.03125 617 520.929688 617.472656 518.8125 617.878906 C 516.695312 618.285156 514.566406 618.625 512.425781 618.898438 C 510.289062 619.167969 508.144531 619.375 505.992188 619.515625 C 503.839844 619.652344 501.6875 619.726562 499.53125 619.730469 Z M 254.265625 145.230469 C 252.988281 145.230469 251.714844 145.261719 250.4375 145.324219 C 249.164062 145.386719 247.890625 145.476562 246.617188 145.597656 C 245.347656 145.71875 244.078125 145.867188 242.816406 146.046875 C 241.550781 146.226562 240.292969 146.4375 239.035156 146.675781 C 237.78125 146.914062 236.535156 147.179688 235.292969 147.476562 C 234.050781 147.773438 232.816406 148.097656 231.589844 148.449219 C 230.363281 148.804688 229.144531 149.183594 227.933594 149.59375 C 226.726562 150.003906 225.527344 150.441406 224.335938 150.910156 C 223.148438 151.375 221.972656 151.867188 220.804688 152.386719 C 219.640625 152.90625 218.484375 153.453125 217.34375 154.027344 C 216.203125 154.601562 215.078125 155.203125 213.964844 155.828125 C 212.851562 156.457031 211.753906 157.105469 210.671875 157.785156 C 209.589844 158.460938 208.523438 159.164062 207.476562 159.890625 C 206.425781 160.617188 205.394531 161.367188 204.378906 162.140625 C 203.363281 162.917969 202.367188 163.714844 201.390625 164.535156 C 200.410156 165.355469 199.453125 166.199219 198.515625 167.066406 C 197.578125 167.929688 196.660156 168.816406 195.761719 169.726562 C 194.863281 170.632812 193.988281 171.5625 193.132812 172.511719 C 192.28125 173.457031 191.449219 174.425781 190.640625 175.414062 C 189.832031 176.402344 189.042969 177.40625 188.28125 178.429688 C 187.519531 179.453125 186.78125 180.496094 186.066406 181.554688 C 185.355469 182.613281 184.664062 183.6875 184 184.777344 C 183.335938 185.867188 182.699219 186.972656 182.085938 188.089844 C 181.472656 189.210938 180.886719 190.34375 180.328125 191.492188 C 179.765625 192.636719 179.234375 193.796875 178.726562 194.96875 C 178.222656 196.140625 177.742188 197.324219 177.292969 198.519531 C 176.839844 199.710938 176.417969 200.914062 176.023438 202.128906 C 175.628906 203.34375 175.261719 204.566406 174.921875 205.796875 C 174.582031 207.027344 174.273438 208.265625 173.992188 209.507812 C 173.710938 210.753906 173.460938 212.003906 173.238281 213.261719 C 173.015625 214.519531 172.824219 215.78125 172.660156 217.046875 C 172.496094 218.3125 172.359375 219.582031 172.253906 220.851562 C 171.785156 226.5625 171.453125 232.285156 171.261719 238.011719 C 171.070312 243.738281 171.019531 249.46875 171.113281 255.195312 C 171.203125 260.925781 171.433594 266.652344 171.804688 272.371094 C 172.175781 278.089844 172.6875 283.792969 173.339844 289.488281 C 173.992188 295.183594 174.785156 300.855469 175.714844 306.511719 C 176.648438 312.164062 177.714844 317.792969 178.921875 323.394531 C 180.128906 328.996094 181.472656 334.566406 182.957031 340.101562 C 184.4375 345.640625 186.050781 351.136719 187.804688 356.59375 C 189.554688 362.050781 191.4375 367.460938 193.453125 372.824219 C 195.472656 378.191406 197.617188 383.5 199.894531 388.761719 C 202.171875 394.019531 204.578125 399.21875 207.113281 404.359375 C 209.644531 409.5 212.300781 414.578125 215.085938 419.589844 C 217.867188 424.597656 220.769531 429.539062 223.796875 434.40625 C 226.820312 439.273438 229.964844 444.066406 233.222656 448.78125 C 236.484375 453.492188 239.859375 458.125 243.347656 462.671875 C 246.832031 467.222656 250.429688 471.679688 254.136719 476.050781 C 257.84375 480.425781 261.65625 484.703125 265.574219 488.886719 C 269.492188 493.070312 273.507812 497.160156 277.625 501.144531 C 281.742188 505.132812 285.957031 509.015625 290.265625 512.796875 C 294.574219 516.578125 298.972656 520.25 303.460938 523.816406 C 307.949219 527.382812 312.523438 530.835938 317.183594 534.175781 C 321.839844 537.515625 326.578125 540.738281 331.394531 543.847656 C 336.210938 546.957031 341.101562 549.941406 346.066406 552.8125 C 351.03125 555.679688 356.0625 558.421875 361.160156 561.042969 C 366.257812 563.664062 371.417969 566.160156 376.640625 568.527344 C 381.859375 570.894531 387.136719 573.132812 392.46875 575.242188 C 397.796875 577.351562 403.179688 579.328125 408.605469 581.171875 C 414.035156 583.019531 419.503906 584.726562 425.015625 586.304688 C 430.527344 587.882812 436.074219 589.320312 441.660156 590.625 C 447.242188 591.929688 452.851562 593.097656 458.492188 594.125 C 464.132812 595.152344 469.796875 596.042969 475.480469 596.792969 C 481.164062 597.546875 486.863281 598.15625 492.574219 598.628906 C 494.164062 598.757812 495.753906 598.84375 497.347656 598.878906 C 498.941406 598.917969 500.535156 598.910156 502.128906 598.855469 C 503.722656 598.800781 505.3125 598.699219 506.898438 598.554688 C 508.488281 598.40625 510.070312 598.214844 511.644531 597.976562 C 513.222656 597.738281 514.789062 597.457031 516.347656 597.125 C 517.910156 596.796875 519.457031 596.421875 520.996094 596.003906 C 522.535156 595.585938 524.058594 595.121094 525.570312 594.617188 C 527.082031 594.109375 528.574219 593.558594 530.054688 592.964844 C 531.535156 592.371094 532.996094 591.734375 534.4375 591.054688 C 535.878906 590.375 537.300781 589.65625 538.703125 588.894531 C 540.101562 588.136719 541.480469 587.335938 542.832031 586.492188 C 544.1875 585.652344 545.515625 584.773438 546.820312 583.855469 C 548.121094 582.9375 549.398438 581.984375 550.644531 580.992188 C 551.894531 580 553.109375 578.972656 554.300781 577.910156 C 555.488281 576.847656 556.644531 575.753906 557.769531 574.625 C 558.890625 573.496094 559.984375 572.332031 561.039062 571.140625 C 562.097656 569.949219 563.121094 568.726562 564.105469 567.476562 C 565.09375 566.222656 566.042969 564.945312 566.953125 563.636719 C 567.867188 562.332031 568.738281 561 569.574219 559.640625 C 570.410156 558.285156 571.203125 556.902344 571.957031 555.5 C 572.714844 554.097656 573.425781 552.671875 574.097656 551.226562 C 574.769531 549.78125 575.402344 548.320312 575.988281 546.839844 C 576.574219 545.355469 577.117188 543.859375 577.621094 542.347656 C 578.121094 540.832031 578.574219 539.308594 578.988281 537.769531 C 579.398438 536.230469 579.765625 534.679688 580.089844 533.121094 C 580.410156 531.558594 580.6875 529.988281 580.917969 528.414062 C 581.148438 526.835938 581.335938 525.253906 581.472656 523.667969 C 581.613281 522.082031 581.707031 520.492188 581.753906 518.898438 C 581.800781 517.304688 581.800781 515.710938 581.753906 514.121094 C 581.710938 512.527344 581.617188 510.9375 581.480469 509.351562 C 581.34375 507.761719 581.160156 506.179688 580.929688 504.601562 C 580.699219 503.027344 580.425781 501.457031 580.105469 499.898438 C 579.167969 495.320312 577.847656 490.855469 576.136719 486.503906 L 441.53125 457.785156 C 437.347656 461.898438 433.644531 466.40625 430.421875 471.308594 C 427.199219 476.210938 424.527344 481.398438 422.414062 486.871094 L 418.410156 497.269531 L 408.300781 492.570312 C 392.996094 485.464844 378.496094 476.976562 364.804688 467.113281 C 351.109375 457.25 338.472656 446.179688 326.886719 433.910156 L 320.777344 433.675781 L 321 427.488281 C 314.246094 419.878906 307.945312 411.910156 302.09375 403.585938 C 296.246094 395.257812 290.886719 386.628906 286.015625 377.699219 C 281.144531 368.765625 276.792969 359.585938 272.964844 350.160156 C 269.136719 340.734375 265.851562 331.121094 263.113281 321.324219 L 260.132812 310.582031 L 271.054688 308.34375 C 277.007812 307.113281 282.75 305.25 288.292969 302.75 C 293.832031 300.25 299.03125 297.175781 303.886719 293.527344 L 285.101562 151.132812 C 284.753906 150.992188 284.40625 150.855469 284.058594 150.722656 C 276.683594 147.894531 269.058594 146.15625 261.1875 145.515625 C 258.871094 145.324219 256.566406 145.230469 254.265625 145.230469 Z M 254.265625 145.230469 " fill-opacity="1" fill-rule="nonzero"/></svg>