<svg xmlns="http://www.w3.org/2000/svg" xmlns:xlink="http://www.w3.org/1999/xlink" width="488" zoomAndPan="magnify" viewBox="0 0 366 362.250002" height="483" preserveAspectRatio="xMidYMid meet" version="1.0"><defs><clipPath id="237be01c45"><path d="M 1 0 L 365.621094 0 L 365.621094 361.5 L 1 361.5 Z M 1 0 " clip-rule="nonzero"/></clipPath></defs><g clip-path="url(#237be01c45)"><path fill="#231f20" d="M 185.03125 361.664062 C 175.804688 361.6875 166.628906 361 157.503906 359.601562 C 148.382812 358.203125 139.421875 356.113281 130.625 353.328125 C 121.824219 350.542969 113.289062 347.097656 105.023438 342.992188 C 96.757812 338.886719 88.855469 334.167969 81.316406 328.839844 L 1.132812 352.910156 L 31.761719 276.347656 C 30.019531 273.539062 28.355469 270.683594 26.765625 267.785156 C 25.179688 264.886719 23.675781 261.945312 22.25 258.964844 C 20.824219 255.980469 19.480469 252.960938 18.21875 249.90625 C 16.960938 246.851562 15.785156 243.761719 14.695312 240.640625 C 13.605469 237.519531 12.601562 234.375 11.683594 231.199219 C 10.765625 228.023438 9.933594 224.824219 9.191406 221.601562 C 8.449219 218.382812 7.796875 215.140625 7.230469 211.882812 C 6.667969 208.628906 6.191406 205.355469 5.808594 202.074219 C 5.421875 198.789062 5.128906 195.5 4.921875 192.199219 C 4.71875 188.902344 4.605469 185.597656 4.582031 182.292969 C 4.558594 178.988281 4.625 175.683594 4.78125 172.382812 C 4.941406 169.078125 5.1875 165.785156 5.527344 162.496094 C 5.867188 159.207031 6.292969 155.929688 6.8125 152.664062 C 7.332031 149.402344 7.9375 146.152344 8.632812 142.921875 C 9.332031 139.691406 10.117188 136.480469 10.988281 133.292969 C 11.859375 130.101562 12.820312 126.941406 13.867188 123.804688 C 14.914062 120.667969 16.042969 117.566406 17.261719 114.492188 C 18.476562 111.417969 19.777344 108.378906 21.160156 105.378906 C 22.542969 102.375 24.007812 99.414062 25.550781 96.492188 C 27.097656 93.570312 28.722656 90.695312 30.425781 87.863281 C 32.128906 85.027344 33.910156 82.246094 35.765625 79.511719 C 37.621094 76.777344 39.550781 74.09375 41.554688 71.464844 C 43.558594 68.835938 45.632812 66.265625 47.777344 63.75 C 49.921875 61.234375 52.132812 58.78125 54.410156 56.386719 C 56.691406 53.996094 59.03125 51.667969 61.4375 49.402344 C 63.847656 47.136719 66.3125 44.941406 68.839844 42.8125 C 71.367188 40.683594 73.949219 38.625 76.589844 36.636719 C 79.230469 34.648438 81.925781 32.738281 84.667969 30.898438 C 87.414062 29.058594 90.207031 27.296875 93.050781 25.609375 C 95.890625 23.925781 98.777344 22.316406 101.707031 20.789062 C 104.636719 19.265625 107.605469 17.816406 110.617188 16.453125 C 113.625 15.089844 116.667969 13.808594 119.75 12.613281 C 122.828125 11.414062 125.9375 10.304688 129.078125 9.277344 C 132.21875 8.253906 135.386719 7.3125 138.578125 6.460938 C 141.769531 5.609375 144.984375 4.84375 148.214844 4.167969 C 151.449219 3.492188 154.699219 2.90625 157.964844 2.410156 C 161.230469 1.914062 164.507812 1.507812 167.796875 1.1875 C 171.085938 0.871094 174.382812 0.644531 177.683594 0.507812 C 180.984375 0.375 184.285156 0.328125 187.585938 0.375 C 190.890625 0.417969 194.191406 0.554688 197.488281 0.78125 C 200.78125 1.007812 204.070312 1.324219 207.347656 1.730469 C 210.625 2.140625 213.890625 2.636719 217.140625 3.222656 C 220.394531 3.808594 223.625 4.484375 226.839844 5.25 C 230.054688 6.011719 233.246094 6.863281 236.414062 7.804688 C 239.582031 8.742188 242.71875 9.769531 245.832031 10.878906 C 248.941406 11.992188 252.019531 13.1875 255.066406 14.46875 C 258.113281 15.75 261.121094 17.113281 264.089844 18.558594 C 267.0625 20.007812 269.988281 21.53125 272.875 23.140625 C 275.765625 24.746094 278.605469 26.429688 281.398438 28.195312 C 284.195312 29.957031 286.9375 31.796875 289.632812 33.710938 C 292.324219 35.625 294.964844 37.609375 297.550781 39.667969 C 300.132812 41.726562 302.660156 43.855469 305.128906 46.054688 C 307.597656 48.25 310 50.515625 312.34375 52.84375 C 314.6875 55.175781 316.96875 57.566406 319.179688 60.023438 C 321.390625 62.476562 323.535156 64.988281 325.609375 67.5625 C 327.683594 70.136719 329.6875 72.761719 331.617188 75.445312 C 333.546875 78.128906 335.402344 80.863281 337.183594 83.648438 C 338.964844 86.429688 340.667969 89.261719 342.292969 92.140625 C 343.917969 95.019531 345.464844 97.9375 346.929688 100.902344 C 348.394531 103.867188 349.777344 106.867188 351.078125 109.90625 C 352.375 112.945312 353.59375 116.015625 354.722656 119.121094 C 355.855469 122.226562 356.902344 125.363281 357.863281 128.527344 C 358.820312 131.6875 359.695312 134.875 360.480469 138.085938 C 361.265625 141.296875 361.960938 144.527344 362.566406 147.777344 C 363.175781 151.027344 363.695312 154.289062 364.121094 157.566406 C 364.550781 160.847656 364.890625 164.132812 365.136719 167.429688 C 365.386719 170.726562 365.542969 174.027344 365.613281 177.332031 C 365.679688 180.636719 365.65625 183.941406 365.542969 187.246094 C 365.425781 190.550781 365.222656 193.847656 364.929688 197.140625 C 364.632812 200.433594 364.25 203.714844 363.773438 206.984375 C 363.296875 210.257812 362.734375 213.511719 362.082031 216.753906 C 361.425781 219.992188 360.683594 223.214844 359.855469 226.414062 C 359.023438 229.613281 358.105469 232.789062 357.101562 235.9375 C 356.097656 239.085938 355.007812 242.207031 353.832031 245.296875 C 352.65625 248.382812 351.398438 251.4375 350.054688 254.460938 C 348.710938 257.480469 347.285156 260.460938 345.78125 263.402344 C 344.273438 266.34375 342.6875 269.242188 341.019531 272.097656 C 339.355469 274.953125 337.613281 277.757812 335.792969 280.519531 C 333.972656 283.277344 332.078125 285.984375 330.109375 288.640625 C 328.144531 291.292969 326.101562 293.894531 323.992188 296.4375 C 321.882812 298.980469 319.703125 301.464844 317.457031 303.886719 C 315.207031 306.308594 312.898438 308.667969 310.519531 310.964844 C 308.144531 313.261719 305.707031 315.492188 303.207031 317.652344 C 300.707031 319.816406 298.152344 321.910156 295.539062 323.929688 C 292.925781 325.953125 290.257812 327.902344 287.539062 329.777344 C 284.816406 331.652344 282.046875 333.453125 279.230469 335.175781 C 276.410156 336.898438 273.546875 338.542969 270.636719 340.109375 C 267.726562 341.675781 264.777344 343.160156 261.785156 344.5625 C 258.792969 345.96875 255.765625 347.289062 252.703125 348.527344 C 249.640625 349.765625 246.546875 350.917969 243.417969 351.984375 C 240.292969 353.050781 237.140625 354.03125 233.957031 354.925781 C 230.777344 355.820312 227.574219 356.628906 224.351562 357.347656 C 221.125 358.066406 217.882812 358.695312 214.625 359.234375 C 211.367188 359.777344 208.09375 360.226562 204.8125 360.585938 C 201.527344 360.949219 198.234375 361.21875 194.9375 361.398438 C 191.636719 361.578125 188.335938 361.667969 185.035156 361.664062 Z M 83.191406 317.667969 L 85.222656 319.144531 C 92.425781 324.390625 99.996094 329.035156 107.933594 333.082031 C 115.871094 337.128906 124.074219 340.527344 132.550781 343.273438 C 141.027344 346.019531 149.664062 348.085938 158.464844 349.464844 C 167.265625 350.84375 176.121094 351.523438 185.027344 351.503906 C 278.875 351.503906 355.222656 275.105469 355.222656 181.199219 C 355.222656 87.292969 278.878906 10.894531 185.03125 10.894531 C 91.1875 10.894531 14.839844 87.292969 14.839844 181.199219 C 14.828125 189.300781 15.394531 197.359375 16.539062 205.382812 C 17.683594 213.402344 19.390625 221.300781 21.664062 229.078125 C 23.9375 236.851562 26.753906 244.425781 30.113281 251.796875 C 33.472656 259.171875 37.335938 266.265625 41.710938 273.082031 L 43.125 275.285156 L 18.386719 337.121094 Z M 83.191406 317.667969 " fill-opacity="1" fill-rule="nonzero"/></g><path fill="#231f20" d="M 245.019531 302.105469 C 243.636719 302.105469 242.242188 302.046875 240.839844 301.933594 C 237.886719 301.691406 234.941406 301.378906 232.003906 300.992188 C 229.066406 300.605469 226.140625 300.148438 223.226562 299.617188 C 220.308594 299.085938 217.410156 298.484375 214.523438 297.8125 C 211.640625 297.140625 208.773438 296.398438 205.921875 295.582031 C 203.074219 294.769531 200.246094 293.886719 197.441406 292.933594 C 194.636719 291.980469 191.855469 290.957031 189.097656 289.871094 C 186.34375 288.78125 183.617188 287.621094 180.917969 286.398438 C 178.21875 285.175781 175.550781 283.886719 172.917969 282.53125 C 170.28125 281.175781 167.679688 279.757812 165.117188 278.273438 C 162.550781 276.792969 160.023438 275.246094 157.53125 273.640625 C 155.042969 272.03125 152.59375 270.367188 150.1875 268.636719 C 147.777344 266.910156 145.414062 265.125 143.09375 263.28125 C 140.773438 261.4375 138.5 259.539062 136.273438 257.582031 C 134.046875 255.625 131.871094 253.617188 129.742188 251.554688 C 127.613281 249.492188 125.539062 247.378906 123.511719 245.210938 C 121.488281 243.046875 119.519531 240.835938 117.601562 238.574219 C 115.6875 236.3125 113.828125 234.003906 112.027344 231.652344 C 110.222656 229.296875 108.480469 226.902344 106.796875 224.460938 C 105.109375 222.023438 103.488281 219.546875 101.925781 217.027344 C 100.363281 214.507812 98.863281 211.953125 97.425781 209.359375 C 95.988281 206.765625 94.613281 204.140625 93.304688 201.480469 C 91.996094 198.820312 90.753906 196.128906 89.578125 193.410156 C 88.402344 190.6875 87.292969 187.9375 86.253906 185.164062 C 85.210938 182.386719 84.238281 179.589844 83.335938 176.765625 C 82.433594 173.941406 81.597656 171.097656 80.835938 168.234375 C 80.070312 165.367188 79.378906 162.488281 78.753906 159.589844 C 78.132812 156.691406 77.582031 153.777344 77.101562 150.851562 C 76.621094 147.925781 76.214844 144.992188 75.878906 142.046875 C 75.546875 139.097656 75.28125 136.148438 75.09375 133.1875 C 74.902344 130.230469 74.785156 127.269531 74.738281 124.304688 C 74.695312 121.339844 74.722656 118.375 74.824219 115.414062 C 74.925781 112.449219 75.097656 109.492188 75.34375 106.535156 C 75.480469 104.890625 75.695312 103.257812 75.992188 101.632812 C 76.289062 100.011719 76.664062 98.40625 77.117188 96.820312 C 77.570312 95.230469 78.097656 93.671875 78.707031 92.136719 C 79.3125 90.601562 79.992188 89.101562 80.75 87.632812 C 81.503906 86.167969 82.328125 84.738281 83.222656 83.351562 C 84.117188 81.964844 85.074219 80.625 86.101562 79.335938 C 87.128906 78.042969 88.214844 76.804688 89.363281 75.617188 C 90.507812 74.433594 91.710938 73.304688 92.96875 72.238281 C 94.226562 71.171875 95.535156 70.167969 96.890625 69.230469 C 98.25 68.292969 99.648438 67.421875 101.089844 66.621094 C 102.53125 65.820312 104.011719 65.09375 105.523438 64.4375 C 107.035156 63.78125 108.578125 63.203125 110.148438 62.699219 C 111.71875 62.195312 113.3125 61.769531 114.921875 61.421875 C 116.535156 61.074219 118.160156 60.804688 119.800781 60.617188 C 121.4375 60.429688 123.082031 60.324219 124.730469 60.296875 C 126.378906 60.269531 128.027344 60.324219 129.671875 60.460938 C 134.480469 60.855469 139.136719 61.917969 143.640625 63.648438 C 144.933594 64.148438 146.195312 64.695312 147.382812 65.273438 L 149.835938 66.472656 L 160.460938 147.074219 L 158.382812 148.863281 C 153.257812 153.28125 147.476562 156.535156 141.042969 158.625 C 143.722656 166.847656 147.242188 174.695312 151.601562 182.164062 C 155.957031 189.636719 161.054688 196.5625 166.894531 202.941406 L 166.910156 202.957031 C 176.503906 213.46875 187.621094 221.996094 200.253906 228.542969 C 203.207031 222.851562 207.105469 217.898438 211.941406 213.6875 L 213.855469 212.023438 L 289.59375 228.203125 L 290.660156 230.496094 C 292.5 234.457031 293.800781 238.585938 294.566406 242.886719 C 295.328125 247.183594 295.53125 251.507812 295.167969 255.859375 C 295.039062 257.417969 294.835938 258.964844 294.5625 260.503906 C 294.285156 262.042969 293.941406 263.5625 293.527344 265.070312 C 293.113281 266.574219 292.628906 268.058594 292.074219 269.519531 C 291.519531 270.980469 290.902344 272.414062 290.214844 273.816406 C 289.53125 275.222656 288.78125 276.589844 287.96875 277.921875 C 287.152344 279.257812 286.28125 280.550781 285.347656 281.804688 C 284.414062 283.054688 283.425781 284.261719 282.378906 285.421875 C 281.335938 286.582031 280.238281 287.695312 279.089844 288.753906 C 277.941406 289.8125 276.746094 290.8125 275.507812 291.761719 C 274.265625 292.710938 272.984375 293.597656 271.660156 294.425781 C 270.335938 295.253906 268.976562 296.019531 267.582031 296.722656 C 266.1875 297.425781 264.761719 298.0625 263.308594 298.628906 C 261.855469 299.199219 260.378906 299.703125 258.878906 300.132812 C 257.375 300.566406 255.859375 300.929688 254.324219 301.21875 C 252.792969 301.511719 251.246094 301.730469 249.691406 301.878906 C 248.140625 302.027344 246.582031 302.101562 245.019531 302.105469 Z M 125.460938 70.453125 C 124.214844 70.453125 122.96875 70.515625 121.730469 70.632812 C 120.488281 70.75 119.257812 70.925781 118.03125 71.15625 C 116.808594 71.390625 115.597656 71.679688 114.402344 72.023438 C 113.203125 72.371094 112.023438 72.769531 110.863281 73.222656 C 109.703125 73.679688 108.566406 74.1875 107.453125 74.746094 C 106.339844 75.308594 105.257812 75.917969 104.199219 76.582031 C 103.144531 77.242188 102.121094 77.953125 101.128906 78.707031 C 100.140625 79.464844 99.1875 80.265625 98.273438 81.113281 C 97.355469 81.957031 96.480469 82.84375 95.648438 83.769531 C 94.8125 84.699219 94.023438 85.660156 93.28125 86.660156 C 92.539062 87.660156 91.839844 88.695312 91.191406 89.757812 C 90.546875 90.824219 89.949219 91.917969 89.402344 93.039062 C 88.855469 94.15625 88.363281 95.300781 87.921875 96.46875 C 87.480469 97.632812 87.097656 98.820312 86.765625 100.019531 C 86.433594 101.222656 86.160156 102.4375 85.945312 103.667969 C 85.726562 104.894531 85.566406 106.128906 85.464844 107.371094 C 85.234375 110.160156 85.074219 112.953125 84.980469 115.75 C 84.886719 118.546875 84.863281 121.34375 84.90625 124.140625 C 84.953125 126.9375 85.0625 129.730469 85.246094 132.523438 C 85.425781 135.316406 85.675781 138.101562 85.996094 140.878906 C 86.3125 143.660156 86.699219 146.429688 87.152344 149.191406 C 87.605469 151.953125 88.128906 154.699219 88.71875 157.433594 C 89.304688 160.167969 89.960938 162.886719 90.683594 165.589844 C 91.40625 168.292969 92.195312 170.976562 93.046875 173.640625 C 93.902344 176.304688 94.820312 178.949219 95.804688 181.566406 C 96.785156 184.183594 97.835938 186.777344 98.945312 189.347656 C 100.054688 191.914062 101.226562 194.453125 102.464844 196.960938 C 103.699219 199.472656 104.996094 201.949219 106.351562 204.394531 C 107.707031 206.84375 109.125 209.253906 110.601562 211.628906 C 112.074219 214.007812 113.609375 216.347656 115.199219 218.648438 C 116.789062 220.949219 118.433594 223.210938 120.132812 225.429688 C 121.835938 227.652344 123.589844 229.828125 125.398438 231.960938 C 127.203125 234.097656 129.0625 236.1875 130.972656 238.230469 C 132.882812 240.273438 134.84375 242.265625 136.851562 244.214844 C 138.859375 246.160156 140.914062 248.058594 143.015625 249.902344 C 145.117188 251.75 147.261719 253.542969 149.449219 255.28125 C 151.640625 257.023438 153.871094 258.707031 156.140625 260.339844 C 158.414062 261.96875 160.722656 263.542969 163.074219 265.0625 C 165.421875 266.578125 167.808594 268.035156 170.226562 269.4375 C 172.648438 270.835938 175.101562 272.175781 177.589844 273.457031 C 180.074219 274.734375 182.589844 275.953125 185.136719 277.109375 C 187.683594 278.265625 190.257812 279.359375 192.855469 280.386719 C 195.457031 281.417969 198.078125 282.382812 200.726562 283.285156 C 203.375 284.183594 206.042969 285.019531 208.730469 285.789062 C 211.417969 286.558594 214.121094 287.261719 216.84375 287.898438 C 219.566406 288.535156 222.304688 289.105469 225.054688 289.605469 C 227.804688 290.109375 230.566406 290.542969 233.339844 290.910156 C 236.109375 291.277344 238.890625 291.574219 241.675781 291.804688 C 242.449219 291.867188 243.226562 291.910156 244.003906 291.929688 C 244.78125 291.945312 245.558594 291.941406 246.335938 291.917969 C 247.113281 291.890625 247.886719 291.839844 248.660156 291.769531 C 249.433594 291.699219 250.207031 291.605469 250.976562 291.488281 C 251.742188 291.371094 252.507812 291.234375 253.269531 291.070312 C 254.03125 290.910156 254.785156 290.730469 255.535156 290.523438 C 256.285156 290.320312 257.027344 290.09375 257.765625 289.847656 C 258.503906 289.597656 259.230469 289.328125 259.953125 289.039062 C 260.675781 288.75 261.386719 288.4375 262.089844 288.109375 C 262.792969 287.777344 263.488281 287.425781 264.171875 287.054688 C 264.851562 286.683594 265.523438 286.292969 266.183594 285.882812 C 266.84375 285.46875 267.492188 285.042969 268.128906 284.59375 C 268.765625 284.144531 269.386719 283.679688 269.996094 283.195312 C 270.601562 282.710938 271.195312 282.210938 271.777344 281.691406 C 272.355469 281.171875 272.917969 280.636719 273.46875 280.085938 C 274.015625 279.535156 274.546875 278.96875 275.0625 278.386719 C 275.578125 277.804688 276.078125 277.207031 276.558594 276.597656 C 277.039062 275.984375 277.503906 275.359375 277.949219 274.722656 C 278.390625 274.085938 278.820312 273.433594 279.226562 272.773438 C 279.632812 272.109375 280.019531 271.433594 280.386719 270.75 C 280.757812 270.066406 281.105469 269.371094 281.433594 268.664062 C 281.761719 267.957031 282.066406 267.246094 282.355469 266.519531 C 282.640625 265.796875 282.90625 265.066406 283.148438 264.328125 C 283.394531 263.589844 283.617188 262.84375 283.816406 262.09375 C 284.015625 261.34375 284.195312 260.585938 284.351562 259.824219 C 284.511719 259.0625 284.644531 258.296875 284.757812 257.527344 C 284.871094 256.757812 284.960938 255.984375 285.027344 255.210938 C 285.097656 254.433594 285.140625 253.660156 285.164062 252.878906 C 285.1875 252.101562 285.1875 251.324219 285.167969 250.546875 C 285.144531 249.769531 285.097656 248.996094 285.03125 248.21875 C 284.964844 247.445312 284.875 246.671875 284.765625 245.902344 C 284.652344 245.132812 284.519531 244.367188 284.363281 243.605469 C 283.90625 241.367188 283.261719 239.1875 282.425781 237.066406 L 216.785156 223.042969 C 212.65625 227.105469 209.546875 231.839844 207.460938 237.242188 L 205.507812 242.320312 L 200.578125 240.027344 C 193.113281 236.558594 186.042969 232.414062 179.363281 227.597656 C 172.6875 222.78125 166.523438 217.378906 160.875 211.390625 L 157.894531 211.273438 L 158.003906 208.253906 C 151.394531 200.796875 145.707031 192.695312 140.941406 183.945312 C 136.175781 175.195312 132.453125 166.023438 129.773438 156.425781 L 128.320312 151.179688 L 133.648438 150.085938 C 139.523438 148.875 144.863281 146.460938 149.660156 142.851562 L 140.496094 73.332031 C 140.328125 73.265625 140.160156 73.199219 139.988281 73.132812 C 136.394531 71.75 132.675781 70.90625 128.835938 70.59375 C 127.707031 70.5 126.582031 70.453125 125.460938 70.453125 Z M 125.460938 70.453125 " fill-opacity="1" fill-rule="nonzero"/></svg>